<svg xmlns="http://www.w3.org/2000/svg" viewBox="0 0 128 128"><path fill="#71c2ff" d="M112,5c-1.7,0-3,1.3-3,3v11.9C97.2,7.8,81.1,1,64,1c-2.6,0-5.2,0.2-7.8,0.5c-1.6,0.2-2.8,1.7-2.6,3.3c0.2,1.6,1.7,2.8,3.3,2.6C59.3,7.1,61.6,7,64,7c15.9,0,30.8,6.5,41.5,18H92c-1.7,0-3,1.3-3,3s1.3,3,3,3h20c1.7,0,3-1.3,3-3V8C115,6.3,113.7,5,112,5z"/><path fill="#444b54" d="M7.4,71.1C7.1,68.7,7,66.4,7,64c0-15.9,6.5-30.8,18-41.5V36c0,1.7,1.3,3,3,3s3-1.3,3-3V16c0-1.7-1.3-3-3-3H8c-1.7,0-3,1.3-3,3s1.3,3,3,3h11.9C7.8,30.8,1,46.9,1,64c0,2.6,0.2,5.2,0.5,7.8c0.2,1.5,1.5,2.6,3,2.6c0.1,0,0.2,0,0.4,0C6.5,74.2,7.6,72.7,7.4,71.1z"/><path fill="#444b54" d="M126.5,56.2c-0.2-1.6-1.7-2.8-3.3-2.6c-1.6,0.2-2.8,1.7-2.6,3.3c0.3,2.3,0.4,4.7,0.4,7.1c0,15.9-6.5,30.8-18,41.5V92c0-1.7-1.3-3-3-3s-3,1.3-3,3v20c0,1.7,1.3,3,3,3h20c1.7,0,3-1.3,3-3s-1.3-3-3-3h-11.9C120.2,97.2,127,81.1,127,64C127,61.4,126.8,58.8,126.5,56.2z"/><path fill="#444b54" d="M71.1,120.6c-2.3,0.3-4.7,0.4-7.1,0.4c-15.9,0-30.8-6.5-41.5-18H36c1.7,0,3-1.3,3-3s-1.3-3-3-3H16c-1.7,0-3,1.3-3,3v20c0,1.7,1.3,3,3,3s3-1.3,3-3v-11.9C30.8,120.2,46.9,127,64,127c2.6,0,5.2-0.2,7.8-0.5c1.6-0.2,2.8-1.7,2.6-3.3C74.2,121.5,72.7,120.4,71.1,120.6z"/></svg>