<svg xmlns="http://www.w3.org/2000/svg" viewBox="0 0 128 128"><path fill="#fff" d="M101,14H47c-5.5,0-10,4.5-10,10v90c0,5.5,4.5,10,10,10h64c5.5,0,10-4.5,10-10V34C121,23,112,14,101,14z"/><path fill="#71c2ff" d="M84.2 87h-29c-1.7 0-3-1.3-3-3s1.3-3 3-3h29c1.7 0 3 1.3 3 3S85.9 87 84.2 87zM99 57H55c-1.7 0-3-1.3-3-3s1.3-3 3-3h44c1.7 0 3 1.3 3 3S100.7 57 99 57zM99 72H55c-1.7 0-3-1.3-3-3s1.3-3 3-3h44c1.7 0 3 1.3 3 3S100.7 72 99 72zM99.2 87H99c-1.7 0-3-1.3-3-3s1.3-3 3-3h.2c1.7 0 3 1.3 3 3S100.9 87 99.2 87z"/><path fill="#444b54" d="M37 127c-.2 0-.4 0-.6-.1-.2 0-.4-.1-.6-.2-.2-.1-.4-.2-.5-.3-.2-.1-.3-.2-.5-.4-.1-.1-.3-.3-.4-.4-.1-.2-.2-.3-.3-.5-.1-.2-.1-.4-.2-.6 0-.2-.1-.4-.1-.6 0-.8.3-1.6.9-2.1.7-.7 1.7-1 2.7-.8.2 0 .4.1.6.2.2.1.4.2.5.3.2.1.3.2.5.4.6.6.9 1.3.9 2.1s-.3 1.6-.9 2.1c-.1.1-.3.3-.5.4-.2.1-.3.2-.5.3-.2.1-.4.1-.6.2C37.4 127 37.2 127 37 127zM51.6 127c-.7 0-1.4-.2-1.9-.7-1.3-1.1-1.4-3-.3-4.2l2.9-3.4c1.3-2 3.5-3.2 5.8-3.1 2.3.1 4.3 1.4 5.4 3.5l.9 1.7c0 .1.1.2.3.2.2 0 .3-.1.3-.2l2.1-6.7c.9-2.8 3.3-4.8 6.2-5 2.9-.3 5.7 1.2 7 3.8l3 5.7c.6 1.1 1.6 1.8 2.8 2 1.2.2 2.4-.2 3.3-1.1 1.2-1.2 3.1-1.2 4.2 0s1.2 3.1 0 4.2c-2.2 2.2-5.3 3.2-8.4 2.8-3.1-.5-5.7-2.3-7.2-5.1l-3-5.7c-.3-.6-.9-.7-1.2-.6-.3 0-.8.2-1 .8l-2.1 6.7c-.8 2.5-2.9 4.2-5.5 4.4-2.6.2-5-1.2-6.2-3.5l-.9-1.7c-.1-.2-.2-.2-.2-.2-.1 0-.4.1-.6.4-.1.1-.2.3-.3.4l-3 3.5C53.3 126.6 52.5 127 51.6 127z"/><path fill="#fff" d="M121,34h-10c-5.5,0-10-4.5-10-10V14h0C112,14,121,23,121,34L121,34z"/><path fill="#71c2ff" d="M121,37C121,37,121,37,121,37c-1.7,0-3-1.3-3-3c0-4.5-1.8-8.8-5-12c-3.2-3.2-7.5-5-12-5c-1.7,0-3-1.3-3-3s1.3-3,3-3c6.2,0,11.9,2.4,16.3,6.8c4.3,4.4,6.7,10.1,6.7,16.3C124,35.7,122.6,37,121,37z"/><g><path fill="#71c2ff" d="M108.8,127c-1.7,0-3-1.3-3-3s1.3-3,3-3c5.4,0,9-2.8,9-7l0.1-67c0-1.7,1.3-3,3-3c0,0,0,0,0,0c1.7,0,3,1.3,3,3l-0.1,67C123.8,121.5,117.5,127,108.8,127z"/></g><g><path fill="#71c2ff" d="M121,37h-10c-7.2,0-13-5.8-13-13l0-7H47c-1.7,0-3-1.3-3-3s1.3-3,3-3h54c1.7,0,3,1.3,3,3l0,10c0,3.9,3.1,7,7,7h10c1.7,0,3,1.3,3,3S122.7,37,121,37z"/></g><g><path fill="#fff" d="M20.8,112.4L15,124l-5.8-11.6C6.4,106.9,5,100.8,5,94.6L5,24c0-5.5,4.5-10,10-10h0c5.5,0,10,4.5,10,10l0,70.6C25,100.8,23.6,106.9,20.8,112.4z"/><path fill="#71c2ff" d="M19,87.6c-1.7,0-3-1.3-3-3V29c0-1.7,1.3-3,3-3s3,1.3,3,3v55.6C22,86.2,20.7,87.6,19,87.6z"/><path fill="#444b54" d="M28,25.1V24c0-7.2-5.8-13-13-13S2,16.8,2,24v70.6c0,6.6,1.6,13.3,4.5,19.2l5.8,11.6c0.5,1,1.5,1.7,2.7,1.7s2.2-0.6,2.7-1.7l5.8-11.6c3-5.9,4.5-12.6,4.5-19.2V31.1c3.4,0.5,6,3.4,6,6.9v27c0,1.7,1.3,3,3,3s3-1.3,3-3V38C40,31.2,34.7,25.6,28,25.1z M22,94.6c0,5.7-1.4,11.4-3.9,16.5l-3.1,6.2l-3.1-6.2C9.4,106,8,100.3,8,94.6V24c0-3.9,3.1-7,7-7s7,3.1,7,7V94.6z"/></g></svg>