<svg xmlns="http://www.w3.org/2000/svg" viewBox="0 0 128 128"><path fill="#9eb9d3" d="M119,112H9c-1.7,0-3-1.3-3-3V99h116v10C122,110.7,120.7,112,119,112z"/><path fill="#fff" d="M119,99H74c-5.5,0-10,4.5-10,10v0v0c0-5.5-4.5-10-10-10H9V19h45c5.5,0,10,4.5,10,10v0v0c0-5.5,4.5-10,10-10h45V99z"/><path fill="#444b54" d="M64,112c-1.7,0-3-1.3-3-3c0-3.9-3.1-7-7-7H9c-1.7,0-3-1.3-3-3V19c0-1.7,1.3-3,3-3h45c4,0,7.6,1.8,10,4.7c2.4-2.9,6-4.7,10-4.7h45c1.7,0,3,1.3,3,3v80c0,1.7-1.3,3-3,3H74c-3.9,0-7,3.1-7,7C67,110.7,65.7,112,64,112z M12,96h42c4,0,7.6,1.8,10,4.7c2.4-2.9,6-4.7,10-4.7h42V22H74c-3.9,0-7,3.1-7,7c0,1.7-1.3,3-3,3s-3-1.3-3-3c0-3.9-3.1-7-7-7H12V96z"/><path fill="#444b54" d="M64,85c-1.7,0-3-1.3-3-3V29c0-1.7,1.3-3,3-3s3,1.3,3,3v53C67,83.7,65.7,85,64,85z"/><path fill="#9eb9d3" d="M34 48H19c-1.7 0-3-1.3-3-3s1.3-3 3-3h15c1.7 0 3 1.3 3 3S35.7 48 34 48zM54 48c-.2 0-.4 0-.6-.1-.2 0-.4-.1-.6-.2-.2-.1-.3-.2-.5-.3-.2-.1-.3-.2-.5-.4C51.3 46.6 51 45.8 51 45s.3-1.6.9-2.1c.1-.1.3-.3.5-.4.2-.1.3-.2.5-.3.2-.1.4-.1.6-.2.4-.1.8-.1 1.2 0 .2 0 .4.1.6.2.2.1.4.2.5.3.2.1.3.2.5.4.6.6.9 1.3.9 2.1s-.3 1.6-.9 2.1c-.1.1-.3.3-.5.4-.2.1-.3.2-.5.3-.2.1-.4.1-.6.2C54.4 48 54.2 48 54 48zM54 63c-.2 0-.4 0-.6-.1-.2 0-.4-.1-.6-.2-.2-.1-.3-.2-.5-.3-.2-.1-.3-.2-.5-.4-.1-.1-.3-.3-.4-.5-.1-.2-.2-.3-.3-.5-.1-.2-.1-.4-.2-.6 0-.2-.1-.4-.1-.6 0-.8.3-1.6.9-2.1.1-.1.3-.3.5-.4.2-.1.3-.2.5-.3.2-.1.4-.1.6-.2.4-.1.8-.1 1.2 0 .2 0 .4.1.6.2.2.1.4.2.5.3.2.1.3.2.5.4.6.6.9 1.3.9 2.1 0 .2 0 .4-.1.6 0 .2-.1.4-.2.6-.1.2-.2.4-.3.5-.1.2-.2.3-.4.5C55.6 62.7 54.8 63 54 63zM44 48c-.8 0-1.6-.3-2.1-.9C41.3 46.6 41 45.8 41 45s.3-1.6.9-2.1c.7-.7 1.7-1 2.7-.8.2 0 .4.1.6.2.2.1.4.2.5.3.2.1.3.2.5.4.6.6.9 1.3.9 2.1 0 .2 0 .4-.1.6 0 .2-.1.4-.2.6-.1.2-.2.4-.3.5-.1.2-.2.3-.4.5C45.6 47.7 44.8 48 44 48zM54 78c-.2 0-.4 0-.6-.1-.2 0-.4-.1-.6-.2-.2-.1-.3-.2-.5-.3-.2-.1-.3-.2-.5-.4-.1-.1-.3-.3-.4-.5-.1-.2-.2-.3-.3-.5-.1-.2-.1-.4-.2-.6 0-.2-.1-.4-.1-.6 0-.8.3-1.6.9-2.1.1-.1.3-.3.5-.4.2-.1.3-.2.5-.3.2-.1.4-.1.6-.2.4-.1.8-.1 1.2 0 .2 0 .4.1.6.2.2.1.4.2.5.3.2.1.3.2.5.4.6.6.9 1.3.9 2.1 0 .2 0 .4-.1.6 0 .2-.1.4-.2.6-.1.2-.2.4-.3.5-.1.2-.2.3-.4.5C55.6 77.7 54.8 78 54 78zM44 78c-.8 0-1.6-.3-2.1-.9-.1-.1-.3-.3-.4-.5-.1-.2-.2-.3-.3-.5-.1-.2-.1-.4-.2-.6 0-.2-.1-.4-.1-.6 0-.8.3-1.6.9-2.1.7-.7 1.7-1 2.7-.8.2 0 .4.1.6.2.2.1.4.2.5.3.2.1.3.2.5.4.6.6.9 1.3.9 2.1 0 .2 0 .4-.1.6 0 .2-.1.4-.2.6-.1.2-.2.4-.3.5-.1.2-.2.3-.4.5-.1.1-.3.3-.5.4-.2.1-.3.2-.5.3-.2.1-.4.1-.6.2C44.4 78 44.2 78 44 78zM34 63H19c-1.7 0-3-1.3-3-3s1.3-3 3-3h15c1.7 0 3 1.3 3 3S35.7 63 34 63zM34 78H19c-1.7 0-3-1.3-3-3s1.3-3 3-3h15c1.7 0 3 1.3 3 3S35.7 78 34 78zM89 48H74c-1.7 0-3-1.3-3-3s1.3-3 3-3h15c1.7 0 3 1.3 3 3S90.7 48 89 48zM109 48c-.2 0-.4 0-.6-.1-.2 0-.4-.1-.6-.2-.2-.1-.3-.2-.5-.3-.2-.1-.3-.2-.5-.4-.6-.6-.9-1.3-.9-2.1s.3-1.6.9-2.1c.1-.1.3-.3.5-.4.2-.1.3-.2.5-.3.2-.1.4-.1.6-.2.4-.1.8-.1 1.2 0 .2 0 .4.1.6.2.2.1.4.2.5.3.2.1.3.2.5.4.6.6.9 1.3.9 2.1s-.3 1.6-.9 2.1c-.1.1-.3.3-.5.4-.2.1-.3.2-.5.3-.2.1-.4.1-.6.2C109.4 48 109.2 48 109 48zM109 63c-.8 0-1.6-.3-2.1-.9-.6-.6-.9-1.3-.9-2.1 0-.2 0-.4.1-.6 0-.2.1-.4.2-.6.1-.2.2-.3.3-.5.1-.2.2-.3.4-.5s.3-.3.5-.4c.2-.1.3-.2.5-.3.2-.1.4-.1.6-.2 1-.2 2 .1 2.7.8.6.6.9 1.3.9 2.1 0 .2 0 .4-.1.6 0 .2-.1.4-.2.6-.1.2-.2.4-.3.5-.1.2-.2.3-.4.5C110.6 62.7 109.8 63 109 63zM99 48c-.8 0-1.6-.3-2.1-.9C96.3 46.6 96 45.8 96 45s.3-1.6.9-2.1c.1-.1.3-.3.5-.4.2-.1.3-.2.5-.3.2-.1.4-.1.6-.2 1-.2 2 .1 2.7.8.6.6.9 1.3.9 2.1s-.3 1.6-.9 2.1C100.6 47.7 99.8 48 99 48zM89 63H74c-1.7 0-3-1.3-3-3s1.3-3 3-3h15c1.7 0 3 1.3 3 3S90.7 63 89 63z"/></svg>