<svg xmlns="http://www.w3.org/2000/svg" viewBox="0 0 128 128"><path fill="#e4caa6" d="M17.2 17L40.9 17 40.9 111 17.2 111 17.2 17M52 72.5L76 72.5 76 111 52 111 52 72.5M52 17L76 17 76 61.4 52 61.4 52 17M87 17L110.7 17 110.7 111 87 111 87 17"/><path fill="#ccb79a" d="M98.617,108c0.132,0.908,0.259,1.871,0.383,2.9h-3.7c-0.272-0.992-0.552-1.953-0.834-2.9 c-1.169-3.925-2.38-7.608-3.266-12.2c-0.579-3.019-0.958-5.689-1.2-8.147c-1.098-11.138,0.611-17.934-0.7-33.253 c-0.6-6.8-1.7-13.1-2.5-19.7c-0.327-2.614-0.593-3.523-0.8-3.523c-0.007,0-0.015,0.001-0.022,0.003 c0.316-4.682,0.846-9.312,1.122-14.281h1.3c0.199,12.6-1,8.3-0.7,20.4c0.019,1.025,0.065,1.422,0.132,1.422 c0.114,0,0.289-1.152,0.488-2.304s0.423-2.305,0.637-2.304c0.12,0,0.236,0.362,0.343,1.287c0.287,2.325,0.513,4.681,0.7,7.057 c0.401,5.085,0.628,10.264,0.9,15.443c0.5,11,1.1,22,1.6,33c0.2,3.399,0.4,4,1,6.899c0.071,0.327,0.146,0.464,0.225,0.464 c0.204,0,0.431-0.923,0.672-1.845c0.241-0.923,0.494-1.845,0.752-1.845c0.084,0,0.168,0.098,0.253,0.327 C96.781,98.783,97.788,102.293,98.617,108z M24.3,54.5c0.2-12.5,0.7-8.2-2.9-19c-0.36-1.126-0.782-1.583-1.2-1.982 c-0.51-0.487-1.016-0.889-1.4-2.318c-0.104-0.339-0.202-0.482-0.293-0.482c-0.253,0-0.459,1.102-0.632,2.204 s-0.313,2.204-0.435,2.204c-0.05,0-0.096-0.184-0.14-0.626v1.7c0.088,0.322,0.176,0.456,0.264,0.456c0.21,0,0.421-0.762,0.631-1.525 c0.21-0.763,0.421-1.525,0.631-1.525c0.091,0,0.183,0.144,0.274,0.494c0.416,1.724,0.781,3.375,1.1,4.962 c4.442,22.067,0.141,31.862,3.5,57.238c0.476,3.811,1.142,7.811,1.446,11.7c0.079,1.009,0.133,2.011,0.154,3h2.1c0-0.1,0-0.2,0-0.3 c-0.098-0.921-0.195-1.822-0.288-2.7C24.823,86.559,23.916,77.267,24.3,54.5z M30.1,36.8c-1.493-16.326-3.682-4.28-5.43-16.8 c-0.126-0.9-0.249-1.926-0.37-3.1h-3.2c0.145,1.038,0.284,2.071,0.42,3.1c0.427,3.234,0.825,6.438,1.28,9.7 c0.441,3.224,0.882,4.224,1.323,4.224c0.359,0,0.718-0.662,1.077-1.324c0.359-0.662,0.718-1.324,1.077-1.324 c0.441,0,0.882,0.999,1.323,4.224c0.7,5,1.4,7.1,1.6,12.3c0.2,6.6-0.4,13.2,0.1,19.7c0.5,6.8,2.3,13.3,2.1,20.2 c-0.1,3.6-0.7,4.1-1,7.7c-0.027,0.326-0.051,0.556-0.072,0.709c0.085,3.963,0.215,7.927,0.31,11.89 c0.023,0.967,0.044,1.934,0.062,2.9h4c0.028-0.971,0.048-1.938,0.06-2.9c0.198-16.082-1.777-30.683-2.06-35.4 C32,60.6,31.2,48.7,30.1,36.8z M30.244,93.697c-0.026,0-0.044,0.665-0.044,1.329c0,0.665,0.019,1.329,0.068,1.329 c0.016,0,0.036-0.074,0.06-0.246c-0.01-0.47-0.02-0.939-0.028-1.409C30.28,93.973,30.261,93.697,30.244,93.697z M105.2,98.2 c-1.601-11.7-3.2-8.7-4.8-20.4c-0.7-5-1.4-10.1-1.601-15.3c-0.2-6.6,0.4-13.2-0.1-19.7c-0.5-6.8-2.3-4.5-2.101-11.3 c0.019-0.669,0.055-0.927,0.103-0.927c0.081,0,0.197,0.738,0.323,1.477c0.126,0.738,0.261,1.477,0.382,1.477 c0.071,0,0.137-0.258,0.193-0.927c0.027-0.326,0.051-0.557,0.072-0.71c-0.085-3.963-0.215-7.926-0.31-11.89 c-0.023-0.967-0.044-1.933-0.062-2.9h-4c-0.03,1.032-0.05,1.997-0.062,2.9c-0.181,14.143,1.78,13.094,2.062,17.7 c0.7,12,1.5,23.9,2.601,35.8c1.503,16.443,3.713,19.73,5.467,34.5c0.113,0.95,0.224,1.949,0.333,3h3.2 c-0.14-1.005-0.275-2.004-0.407-3C106.061,104.732,105.66,101.495,105.2,98.2z M104.3,31.9c-0.484-3.876-1.165-7.948-1.461-11.9 h-1.961c2.303,20.095,3.304,13.001,2.823,35.9c-0.2,12.5-0.7,25.9,2.899,36.7c0.332,1.037,0.716,1.506,1.101,1.886V77.019 C103.424,56.795,107.633,56.989,104.3,31.9z M38.7,55.9c-1.311-15.319,0.398-10.304-0.7-17.171c-0.242-1.516-0.622-3.61-1.2-6.629 c-0.878-4.553-2.076-8.212-3.236-12.1c-0.292-0.979-0.582-1.974-0.864-3H29c0.121,1.011,0.246,2.012,0.375,3 c0.83,6.341,1.84,12.106,3.225,16c0.061,0.165,0.122,0.239,0.182,0.239c0.283,0,0.563-1.62,0.827-3.241 c0.264-1.62,0.512-3.241,0.73-3.241c0.056,0,0.109,0.105,0.161,0.343c0.6,2.9,0.8,3.5,1,6.9c0.5,11,1.1,4.4,1.6,15.4 c0.273,5.18,0.499,10.358,0.9,15.443c0.188,2.376,0.413,4.732,0.7,7.057c0.6,5.199,1.5,10.3,1.6,15.699 c0.3,12.101-0.9,7.801-0.7,20.4h1.3c0.3-5.3,0.9-10.3,1.2-15.4c0.8-11.199,0.5-8.699-0.9-20C40.4,69,39.3,62.7,38.7,55.9z M42.5,17 h-1.6c0.6,2.4,1.2,4.9,1.6,7.7V17z M18.016,96.979c-0.158,0-0.29,0.34-0.398,0.68c-0.108,0.34-0.194,0.68-0.259,0.68 c-0.08,0-0.131-0.507-0.158-2.139v8.899c0.2,2,0.3,4,0.2,6h2.9c0-3.8-0.7-7.8-1.6-12.1C18.43,97.461,18.204,96.979,18.016,96.979z M63.7,72.5H62c-0.123,0.988-0.247,1.992-0.377,3c-0.187,1.441-0.387,2.888-0.623,4.3c-1.7,11.7-3.3,6.7-4.9,18.4 c-0.375,2.686-0.75,5.332-1.1,7.989c-0.211,1.596-0.412,3.197-0.6,4.811h3.2c0.109-1.06,0.22-2.058,0.333-3 c1.755-14.624,3.969-16.06,5.567-32.5C63.6,74.5,63.7,73.5,63.7,72.5z M62.8,60.4c0,0.3,0,0.6-0.1,0.9h1.8 c0.082-0.99,0.16-1.955,0.237-2.9c0.58-7.165,1.022-13.202,1.463-20.8c0.188-4.503,2.047-3.461,2.111-17.6 c0.004-0.932,0.001-1.93-0.012-3h-4c-0.018,1-0.04,2-0.064,3c-0.094,3.924-0.222,7.847-0.307,11.771 c0.021,0.159,0.044,0.396,0.071,0.729c0.056,0.669,0.122,0.927,0.193,0.927c0.121,0,0.256-0.738,0.382-1.477 c0.126-0.738,0.242-1.477,0.323-1.477c0.048,0,0.084,0.258,0.102,0.927c0.2,6.9-1.6,4.5-2.1,11.3 c-0.447,5.815-0.014,10.189-0.061,15.7C62.833,59.049,62.821,59.715,62.8,60.4z M71.6,72.5H70c-0.046,1.04-0.094,2.035-0.144,3 C69.58,80.843,69.254,85.24,69,91c-0.2,3.4-0.4,4-1,6.9c-0.073,0.349-0.152,0.495-0.236,0.495c-0.212,0-0.455-0.93-0.704-1.859 c-0.249-0.93-0.503-1.859-0.739-1.859c-0.076,0-0.15,0.097-0.222,0.323c-1.372,3.86-2.45,7.352-3.234,13 c-0.13,0.937-0.252,1.933-0.366,3h3.7c0.262-1.026,0.539-2.02,0.825-3c1.135-3.887,2.396-7.548,3.274-12.1 c2.026-11.145,1.508-9.819,1.335-20.4C71.62,74.593,71.608,73.598,71.6,72.5z M75.398,31.124C75.019,26.462,74.591,21.857,74.5,17 h-1.3c-0.3,12.5,1,8.3,0.7,20.4c-0.019,0.998-0.064,1.384-0.131,1.384c-0.115,0-0.292-1.145-0.499-2.29 c-0.086-0.473-0.176-0.945-0.27-1.337c-0.133-0.558-0.272-0.953-0.41-0.953c-0.133,0-0.264,0.363-0.39,1.295 C71.3,42.8,70.9,48.4,70.6,56c-0.044,0.8-0.089,1.6-0.133,2.4c-0.055,1-0.111,2-0.167,3h1.4c0.033-1,0.067-2,0.104-3 c0.074-2,0.163-4,0.296-6c0.238-2.697,0.555-5.001,0.9-7.211c0.525-3.362,1.117-6.507,1.6-10.488 C74.925,32.073,75.191,31.143,75.398,31.124z M76,111v-7.7c-0.4,2.8-1,5.4-1.6,7.7H76z M55,91.081 c1.63-5.179,2.307-9.83,2.526-15.581c0.037-0.966,0.061-1.964,0.074-3h-3.4c-0.5,4-1.1,5.9-2,9.7c-0.1,0.3-0.1,0.5-0.2,0.8v13.5 c0.7-2.4,1.7-1.6,2.5-3.9C54.676,92.087,54.842,91.581,55,91.081z M57.666,58.4c-0.029-1.529-0.065-3.051-0.065-4.5 c-0.48-22.828,0.421-14.009,2.701-33.9c0.097-0.847,0.197-1.745,0.299-2.7c0-0.1,0-0.2,0-0.3h-2.1c-0.02,0.997-0.074,1.997-0.151,3 c-0.303,3.926-0.971,7.876-1.449,11.7c-2.654,19.719-0.635,9.958-1.696,26.7c-0.058,0.917-0.126,1.914-0.203,3h2.7 C57.7,60.409,57.685,59.403,57.666,58.4z M52,17v11.9c0.8-4.2,1.5-8.1,1.5-11.9H52z M85.5,111h1.6c-0.6-2.4-1.199-4.9-1.6-7.7V111z M110.6,17h-2.9c0,3.8,0.7,7.8,1.6,12.1c0.46,2.575,0.793,2.74,1.028,2.74c0.017,0,0.034-0.001,0.05-0.002 c0.016-0.001,0.032-0.002,0.047-0.002c0.213,0,0.328,0.174,0.375,2.964V23C110.6,21,110.5,19,110.6,17z"/><path fill="#454b54" d="M110.8 114H87c-1.7 0-3-1.3-3-3V17c0-1.7 1.3-3 3-3h23.7c1.7 0 3 1.3 3 3v94C113.8 112.7 112.4 114 110.8 114M90 108h17.7V20H90V108M76 64.4H52c-1.7 0-3-1.3-3-3.001V17c0-1.7 1.3-3 3-3h24c1.7 0 3 1.3 3 3v44.4C79 63.1 77.7 64.4 76 64.4M55 58.4h18V20H55V58.4M76 114H52c-1.7 0-3-1.3-3-3V72.5c0-1.7 1.3-3 3-3h24c1.7 0 3 1.3 3 3V111C79 112.7 77.7 114 76 114M55 108h18V75.5H55V108M41 114H17.2c-1.7 0-3-1.3-3-3V17c0-1.7 1.3-3 3-3H41c1.7 0 3 1.3 3 3v94C44 112.7 42.6 114 41 114M20.2 108H38V20H20.2V108"/></svg>