<svg xmlns="http://www.w3.org/2000/svg" viewBox="0 0 48 48">
  <path d="M9 18C7.1250005 18 5.528815 18.757133 4.5039062 19.910156C3.4789975 21.063179 3 22.541667 3 24C3 25.458333 3.4789975 26.936821 4.5039062 28.089844C5.528815 29.242867 7.1250005 30 9 30C10.875 30 12.471185 29.242867 13.496094 28.089844C14.521003 26.936821 15 25.458333 15 24C15 22.541667 14.521003 21.063179 13.496094 19.910156C12.471185 18.757133 10.875 18 9 18 z M 24 18C22.125 18 20.528815 18.757133 19.503906 19.910156C18.478997 21.063179 18 22.541667 18 24C18 25.458333 18.478997 26.936821 19.503906 28.089844C20.528815 29.242867 22.125 30 24 30C25.875 30 27.471185 29.242867 28.496094 28.089844C29.521003 26.936821 30 25.458333 30 24C30 22.541667 29.521003 21.063179 28.496094 19.910156C27.471185 18.757133 25.875 18 24 18 z M 39 18C37.125 18 35.528815 18.757133 34.503906 19.910156C33.478997 21.063179 33 22.541667 33 24C33 25.458333 33.478997 26.936821 34.503906 28.089844C35.528815 29.242867 37.125 30 39 30C40.875 30 42.471185 29.242867 43.496094 28.089844C44.521003 26.936821 45 25.458333 45 24C45 22.541667 44.521003 21.063179 43.496094 19.910156C42.471185 18.757133 40.875 18 39 18 z M 9 21C10.124999 21 10.778816 21.367867 11.253906 21.902344C11.728997 22.436821 12 23.208333 12 24C12 24.791667 11.728997 25.563179 11.253906 26.097656C10.778816 26.632133 10.124999 27 9 27C7.8750008 27 7.2211843 26.632133 6.7460938 26.097656C6.2710032 25.563179 6 24.791667 6 24C6 23.208333 6.2710031 22.436821 6.7460938 21.902344C7.2211843 21.367867 7.8750008 21 9 21 z M 24 21C25.124999 21 25.778816 21.367867 26.253906 21.902344C26.728997 22.436821 27 23.208333 27 24C27 24.791667 26.728997 25.563179 26.253906 26.097656C25.778816 26.632133 25.124999 27 24 27C22.875001 27 22.221184 26.632133 21.746094 26.097656C21.271003 25.563179 21 24.791667 21 24C21 23.208333 21.271003 22.436821 21.746094 21.902344C22.221184 21.367867 22.875001 21 24 21 z M 39 21C40.124999 21 40.778816 21.367867 41.253906 21.902344C41.728997 22.436821 42 23.208333 42 24C42 24.791667 41.728997 25.563179 41.253906 26.097656C40.778816 26.632133 40.124999 27 39 27C37.875001 27 37.221184 26.632133 36.746094 26.097656C36.271003 25.563179 36 24.791667 36 24C36 23.208333 36.271003 22.436821 36.746094 21.902344C37.221184 21.367867 37.875001 21 39 21 z" fill="#5B5B5B" />
</svg>