<svg xmlns="http://www.w3.org/2000/svg" viewBox="0 0 128 128"><path fill="#fff" d="M86,9H32c-5.5,0-10,4.5-10,10v90c0,5.5,4.5,10,10,10h64c5.5,0,10-4.5,10-10V29C106,18,97,9,86,9z"/><path fill="#71c2ff" d="M106 82A20 20 0 1 0 106 122A20 20 0 1 0 106 82Z" transform="rotate(-45.001 106 102.002)"/><path fill="#fff" d="M106,115c-1.7,0-3-1.3-3-3v-11.8l-2.9,2.9c-1.2,1.2-3.1,1.2-4.2,0c-1.2-1.2-1.2-3.1,0-4.2l8-8c0.9-0.9,2.1-1.1,3.3-0.7c1.1,0.5,1.9,1.6,1.9,2.8v19C109,113.7,107.7,115,106,115z"/><path fill="#fff" d="M114,104c-0.8,0-1.5-0.3-2.1-0.9l-8-8c-1.2-1.2-1.2-3.1,0-4.2c1.2-1.2,3.1-1.2,4.2,0l8,8c1.2,1.2,1.2,3.1,0,4.2C115.5,103.7,114.8,104,114,104z"/><g><path fill="#444b54" d="M106,39C105.9,39,105.9,39,106,39c-1.7,0-3,1.3-3,3l0,25c0,1.7,1.3,3,3,3c0,0,0,0,0,0c1.7,0,3-1.3,3-3l0-25C108.9,40.3,107.6,39,106,39z"/><path fill="#444b54" d="M30,122h46c1.7,0,3-1.3,3-3s-1.3-3-3-3H30c-1.7,0-5-3-5-7V19c0-3.9,3.1-7,7-7h51v7c0,7.2,5.8,13,13,13h9.6c0.1,0,0.2,0,0.4,0c0,0,0,0,0,0c1.2,0,2.3-0.8,2.8-1.8c0.2-0.4,0.3-0.8,0.3-1.2c0-0.1,0-0.3,0-0.4c-0.1-6-2.5-11.6-6.7-15.9C97.9,8.4,92.2,6,86,6c0,0,0,0,0,0c0,0,0,0,0,0c0,0,0,0,0,0H32c-7.2,0-13,5.8-13,13v90C19,116.3,24.9,122,30,122z M102.7,26H96c-3.9,0-7-3.1-7-7v-6.7c3.4,0.6,6.5,2.2,9,4.7C100.5,19.5,102.1,22.6,102.7,26z"/></g></svg>