<svg xmlns="http://www.w3.org/2000/svg" viewBox="0 0 128 128"><path fill="#fff" d="M22,19v90c0,5.5,4.5,10,10,10h63.9c5.5,0,10-4.5,10-10l0.1-80C106,18,97.1,9,86,9H32C26.5,9,22,13.5,22,19z"/><path fill="#fcca3d" d="M106 82A20 20 0 1 0 106 122A20 20 0 1 0 106 82Z" transform="rotate(-45.001 106 102.002)"/><path fill="#fff" d="M115,105H96c-1.7,0-3-1.3-3-3s1.3-3,3-3h11.8l-2.9-2.9c-1.2-1.2-1.2-3.1,0-4.2c1.2-1.2,3.1-1.2,4.2,0l8,8c0.9,0.9,1.1,2.1,0.7,3.3C117.3,104.3,116.2,105,115,105z"/><path fill="#fff" d="M107,113c-0.8,0-1.5-0.3-2.1-0.9c-1.2-1.2-1.2-3.1,0-4.2l8-8c1.2-1.2,3.1-1.2,4.2,0c1.2,1.2,1.2,3.1,0,4.2l-8,8C108.5,112.7,107.8,113,107,113z"/><g><path fill="#444b54" d="M109,42c0-1.7-1.3-3-3-3c0,0,0,0,0,0c-1.7,0-3,1.3-3,3l0,27c0,1.7,1.3,3,3,3c0,0,0,0,0,0c1.7,0,3-1.3,3-3L109,42z"/><path fill="#444b54" d="M109,28.6c-0.1-6-2.5-11.6-6.7-15.9C97.9,8.4,92.2,6,86,6c0,0,0,0,0,0c0,0,0,0,0,0c0,0,0,0,0,0H32c-7.2,0-13,5.8-13,13v90c0,7.3,5.9,13,11,13h51c1.7,0,3-1.3,3-3s-1.3-3-3-3H30c-1.7,0-5-3-5-7V19c0-3.9,3.1-7,7-7h51v7c0,7.2,5.8,13,13,13h9.6c0.1,0,0.2,0,0.4,0c0,0,0,0,0,0c1.2,0,2.3-0.8,2.8-1.8c0.2-0.4,0.3-0.8,0.3-1.2C109,28.9,109,28.7,109,28.6z M89,19v-6.7c3.4,0.6,6.5,2.2,9,4.7c2.5,2.5,4.1,5.6,4.7,9H96C92.1,26,89,22.9,89,19z"/></g></svg>