<svg xmlns="http://www.w3.org/2000/svg" x="0" y="0" viewBox="0 0 128 128"><path fill="#fff" d="M111,30c7.18,0,13-5.82,13-13v0c0-7.18-5.82-13-13-13h0c-7.18,0-13,5.82-13,13v0C98,24.18,103.82,30,111,30 L111,30z"/><path fill="#fff" d="M64,30c7.18,0,13-5.82,13-13v0c0-7.18-5.82-13-13-13h0c-7.18,0-13,5.82-13,13v0C51,24.18,56.82,30,64,30 L64,30z"/><path fill="#fff" d="M17,30c7.18,0,13-5.82,13-13v0c0-7.18-5.82-13-13-13h0C9.82,4,4,9.82,4,17v0C4,24.18,9.82,30,17,30L17,30z"/><path fill="#fff" d="M111,77c7.18,0,13-5.82,13-13v0c0-7.18-5.82-13-13-13h0c-7.18,0-13,5.82-13,13v0C98,71.18,103.82,77,111,77 L111,77z"/><path fill="#fff" d="M64,77c7.18,0,13-5.82,13-13v0c0-7.18-5.82-13-13-13h0c-7.18,0-13,5.82-13,13v0C51,71.18,56.82,77,64,77 L64,77z"/><path fill="#fff" d="M17,77c7.18,0,13-5.82,13-13v0c0-7.18-5.82-13-13-13h0C9.82,51,4,56.82,4,64v0C4,71.18,9.82,77,17,77L17,77 z"/><path fill="#fff" d="M111,124c7.18,0,13-5.82,13-13v0c0-7.18-5.82-13-13-13h0c-7.18,0-13,5.82-13,13v0 C98,118.18,103.82,124,111,124L111,124z"/><path fill="#fff" d="M64,124c7.18,0,13-5.82,13-13v0c0-7.18-5.82-13-13-13h0c-7.18,0-13,5.82-13,13v0 C51,118.18,56.82,124,64,124L64,124z"/><path fill="#fff" d="M17,124c7.18,0,13-5.82,13-13v0c0-7.18-5.82-13-13-13h0c-7.18,0-13,5.82-13,13v0C4,118.18,9.82,124,17,124 L17,124z"/><g><path fill="#71c2ff" d="M111,33c-8.82,0-16-7.18-16-16s7.18-16,16-16s16,7.18,16,16S119.82,33,111,33z M111,7c-5.51,0-10,4.49-10,10 s4.49,10,10,10s10-4.49,10-10S116.51,7,111,7z"/></g><path fill="#444b54" d="M114,95.29V79.71c7.39-1.41,13-7.91,13-15.71s-5.61-14.3-13-15.71V42c0-1.66-1.34-3-3-3s-3,1.34-3,3v6.29 c-6.42,1.22-11.48,6.29-12.71,12.71H79.71C78.48,54.58,73.42,49.52,67,48.29V32.71c6.42-1.22,11.48-6.29,12.71-12.71H86 c1.66,0,3-1.34,3-3s-1.34-3-3-3h-6.29C78.3,6.61,71.8,1,64,1S49.7,6.61,48.29,14H32.71C31.3,6.61,24.8,1,17,1C8.18,1,1,8.18,1,17 c0,7.8,5.61,14.3,13,15.71v15.58C6.61,49.7,1,56.2,1,64s5.61,14.3,13,15.71v15.58C6.61,96.7,1,103.2,1,111c0,8.82,7.18,16,16,16 c7.8,0,14.3-5.61,15.71-13h15.58c1.41,7.39,7.91,13,15.71,13s14.3-5.61,15.71-13h15.58c1.41,7.39,7.91,13,15.71,13 c8.82,0,16-7.18,16-16C127,103.2,121.39,96.7,114,95.29z M95.29,108H79.71c-1.22-6.42-6.29-11.48-12.71-12.71V79.71 c6.42-1.22,11.48-6.29,12.71-12.71h15.58c1.22,6.42,6.29,11.48,12.71,12.71v15.58C101.58,96.52,96.52,101.58,95.29,108z M48.29,108 H32.71c-1.22-6.42-6.29-11.48-12.71-12.71V79.71c6.42-1.22,11.48-6.29,12.71-12.71h15.58c1.22,6.42,6.29,11.48,12.71,12.71v15.58 C54.58,96.52,49.52,101.58,48.29,108z M32.71,20h15.58c1.22,6.42,6.29,11.48,12.71,12.71v15.58C54.58,49.52,49.52,54.58,48.29,61 H32.71C31.48,54.58,26.42,49.52,20,48.29V32.71C26.42,31.48,31.48,26.42,32.71,20z M111,54c5.51,0,10,4.49,10,10s-4.49,10-10,10 s-10-4.49-10-10S105.49,54,111,54z M74,64c0,5.51-4.49,10-10,10s-10-4.49-10-10s4.49-10,10-10S74,58.49,74,64z M64,7 c5.51,0,10,4.49,10,10s-4.49,10-10,10s-10-4.49-10-10S58.49,7,64,7z M7,17c0-5.51,4.49-10,10-10s10,4.49,10,10s-4.49,10-10,10 S7,22.51,7,17z M7,64c0-5.51,4.49-10,10-10s10,4.49,10,10s-4.49,10-10,10S7,69.51,7,64z M17,121c-5.51,0-10-4.49-10-10 s4.49-10,10-10s10,4.49,10,10S22.51,121,17,121z M64,121c-5.51,0-10-4.49-10-10s4.49-10,10-10s10,4.49,10,10S69.51,121,64,121z M111,121c-5.51,0-10-4.49-10-10s4.49-10,10-10s10,4.49,10,10S116.51,121,111,121z"/></svg>