<svg xmlns="http://www.w3.org/2000/svg" viewBox="0 0 128 128"><polygon fill="#fff" points="14,43.2 14,32 114,32 114,118 14,118"/><path fill="#444b54" d="M121,115h-4V32c0-1.7-1.3-3-3-3H14c-1.7,0-3,1.3-3,3v83H7c-3.3,0-6,2.7-6,6s2.7,6,6,6h114c3.3,0,6-2.7,6-6 S124.3,115,121,115z M17,35h94v80H17V35z"/><path fill="#71c2ff" d="M96.9,52.2c-1.5-0.6-3.3,0.1-3.9,1.7L82.3,81c-0.1,0-0.2,0-0.3,0c-1.6,0-3,0.4-4.3,1.1L62.3,68.4 c0.4-1.1,0.7-2.2,0.7-3.4c0-5-4-9-9-9s-9,4-9,9c0,2,0.7,3.9,1.8,5.4L36.2,86.3C35.5,86.1,34.8,86,34,86c-5,0-9,4-9,9s4,9,9,9 s9-4,9-9c0-2-0.7-3.9-1.8-5.4l10.6-15.9c0.7,0.2,1.4,0.3,2.2,0.3c1.6,0,3-0.4,4.3-1.1l15.3,13.7C73.2,87.6,73,88.8,73,90 c0,5,4,9,9,9s9-4,9-9c0-2.7-1.2-5.1-3.1-6.8l10.7-27.1C99.2,54.6,98.4,52.8,96.9,52.2z M34,98c-1.7,0-3-1.3-3-3s1.3-3,3-3 s3,1.3,3,3S35.7,98,34,98z M51,65c0-1.7,1.3-3,3-3s3,1.3,3,3s-1.3,3-3,3S51,66.7,51,65z M82,93c-1.7,0-3-1.3-3-3s1.3-3,3-3 s3,1.3,3,3S83.7,93,82,93z"/></svg>