<svg xmlns="http://www.w3.org/2000/svg" viewBox="0 0 128 128"><path fill="#fff" d="M91.9,29H36.1c-3.8,0-7.2,2.1-8.9,5.4L7,74v30c0,5.5,4.5,10,10,10h94c5.5,0,10-4.5,10-10V74l-20.2-39.6C99.1,31.1,95.6,29,91.9,29z"/><path fill="#444b54" d="M13.6,64c-0.5,0-0.9-0.1-1.4-0.3c-1.5-0.8-2.1-2.6-1.3-4l13.6-26.6c2.2-4.4,6.7-7.1,11.6-7.1h55.8c4.9,0,9.3,2.7,11.6,7.1L116,57.6c0.8,1.5,0.2,3.3-1.3,4c-1.5,0.8-3.3,0.2-4-1.3L98.1,35.8c-1.2-2.4-3.6-3.8-6.2-3.8H36.1c-2.6,0-5,1.5-6.2,3.8L16.3,62.4C15.8,63.4,14.7,64,13.6,64z"/><path fill="#71c2ff" d="M93.1 47h-58c-1.7 0-3-1.3-3-3s1.3-3 3-3h58c1.7 0 3 1.3 3 3S94.8 47 93.1 47zM100.1 62h-73c-1.7 0-3-1.3-3-3s1.3-3 3-3h73c1.7 0 3 1.3 3 3S101.8 62 100.1 62z"/><path fill="#444b54" d="M111,117H17c-7.2,0-13-5.8-13-13V74c0-1.7,1.3-3,3-3h28c1,0,1.9,0.5,2.5,1.3l0,0C43.2,80.9,52.7,86,63,86s19.8-5.1,25.5-13.6C89,71.5,90,71,91,71h30c1.7,0,3,1.3,3,3v30C124,111.2,118.2,117,111,117z M10,77v27c0,3.9,3.1,7,7,7h94c3.9,0,7-3.1,7-7V77H92.6C85.7,86.4,74.7,92,63,92c-11.7,0-22.7-5.6-29.6-15H10z"/></svg>