<svg xmlns="http://www.w3.org/2000/svg" viewBox="0 0 128 128"><path fill="#fff" d="M34 64A7 7 0 1 0 34 78 7 7 0 1 0 34 64zM64 64A7 7 0 1 0 64 78 7 7 0 1 0 64 64zM94 64A7 7 0 1 0 94 78 7 7 0 1 0 94 64zM34 94A7 7 0 1 0 34 108 7 7 0 1 0 34 94zM64 94A7 7 0 1 0 64 108 7 7 0 1 0 64 94zM94 94A7 7 0 1 0 94 108 7 7 0 1 0 94 94z"/><g><path fill="#fff" d="M94,47H34c-7.2,0-13-5.8-13-13v0c0-7.2,5.8-13,13-13h60c7.2,0,13,5.8,13,13v0C107,41.2,101.2,47,94,47z"/><path fill="#444b54" d="M94,50H34c-8.8,0-16-7.2-16-16s7.2-16,16-16h60c8.8,0,16,7.2,16,16S102.8,50,94,50z M34,24c-5.5,0-10,4.5-10,10s4.5,10,10,10h60c5.5,0,10-4.5,10-10s-4.5-10-10-10H34z"/><path fill="#71c2ff" d="M43 38c-.3 0-.5 0-.8-.1-.3-.1-.5-.1-.8-.2s-.5-.2-.7-.4c-.2-.2-.4-.3-.6-.5-.2-.2-.4-.4-.5-.6-.1-.2-.3-.4-.4-.7-.1-.2-.2-.5-.2-.8 0-.3-.1-.5-.1-.8 0-1.1.4-2.1 1.2-2.8.2-.2.4-.4.6-.5.2-.1.4-.3.7-.4.2-.1.5-.2.8-.2.5-.1 1-.1 1.6 0 .3 0 .5.1.8.2.2.1.5.2.7.4.2.1.4.3.6.5.7.8 1.2 1.8 1.2 2.8 0 .3 0 .5-.1.8 0 .3-.1.5-.2.8-.1.2-.2.5-.4.7-.1.2-.3.4-.5.6-.2.2-.4.3-.6.5-.2.1-.5.3-.7.4-.2.1-.5.2-.8.2C43.5 38 43.3 38 43 38zM67 34c0-2.2 1.8-4 4-4l0 0c2.2 0 4 1.8 4 4l0 0c0 2.2-1.8 4-4 4l0 0C68.8 38 67 36.2 67 34zM53 34c0-2.2 1.8-4 4-4l0 0c2.2 0 4 1.8 4 4l0 0c0 2.2-1.8 4-4 4l0 0C54.8 38 53 36.2 53 34zM85 38c-.3 0-.5 0-.8-.1-.3-.1-.5-.1-.8-.2s-.5-.2-.7-.4c-.2-.2-.4-.3-.6-.5C81.4 36.1 81 35 81 34c0-1.1.4-2.1 1.2-2.8.2-.2.4-.4.6-.5.2-.1.4-.3.7-.4.2-.1.5-.2.8-.2 1.3-.3 2.7.2 3.6 1.1.7.8 1.2 1.8 1.2 2.8 0 1-.4 2.1-1.2 2.8C87.1 37.6 86 38 85 38z"/><path fill="#444b54" d="M34 81c-5.5 0-10-4.5-10-10s4.5-10 10-10 10 4.5 10 10S39.5 81 34 81zM34 67c-2.2 0-4 1.8-4 4s1.8 4 4 4 4-1.8 4-4S36.2 67 34 67zM64 81c-5.5 0-10-4.5-10-10s4.5-10 10-10 10 4.5 10 10S69.5 81 64 81zM64 67c-2.2 0-4 1.8-4 4s1.8 4 4 4 4-1.8 4-4S66.2 67 64 67zM94 81c-5.5 0-10-4.5-10-10s4.5-10 10-10 10 4.5 10 10S99.5 81 94 81zM94 67c-2.2 0-4 1.8-4 4s1.8 4 4 4 4-1.8 4-4S96.2 67 94 67zM34 111c-5.5 0-10-4.5-10-10s4.5-10 10-10 10 4.5 10 10S39.5 111 34 111zM34 97c-2.2 0-4 1.8-4 4s1.8 4 4 4 4-1.8 4-4S36.2 97 34 97z"/><g><path fill="#444b54" d="M64,111c-5.5,0-10-4.5-10-10s4.5-10,10-10s10,4.5,10,10S69.5,111,64,111z M64,97c-2.2,0-4,1.8-4,4s1.8,4,4,4s4-1.8,4-4S66.2,97,64,97z"/></g><g><path fill="#444b54" d="M94,111c-5.5,0-10-4.5-10-10s4.5-10,10-10s10,4.5,10,10S99.5,111,94,111z M94,97c-2.2,0-4,1.8-4,4s1.8,4,4,4s4-1.8,4-4S96.2,97,94,97z"/></g></g></svg>