<svg xmlns="http://www.w3.org/2000/svg" x="0" y="0" viewBox="0 0 128 128"><path fill="#fff" d="M114,124H14c-5.5,0-10-4.5-10-10V14C4,8.5,8.5,4,14,4h100c5.5,0,10,4.5,10,10v100 C124,119.5,119.5,124,114,124z"/><circle cx="16" cy="16" r="3" fill="#444b54"/><circle cx="26" cy="16" r="3" fill="#444b54"/><circle cx="36" cy="16" r="3" fill="#444b54"/><path fill="#71c2ff" d="M43,90H33c-7.7,0-14-6.3-14-14s6.3-14,14-14h30c7.7,0,14,6.3,14,14c0,1.7-1.3,3-3,3s-3-1.3-3-3 c0-4.4-3.6-8-8-8H33c-4.4,0-8,3.6-8,8s3.6,8,8,8h10c1.7,0,3,1.3,3,3S44.7,90,43,90z"/><path fill="#71c2ff" d="M95,90H65c-7.7,0-14-6.3-14-14c0-1.7,1.3-3,3-3s3,1.3,3,3c0,4.4,3.6,8,8,8h30c4.4,0,8-3.6,8-8s-3.6-8-8-8h-8 c-1.7,0-3-1.3-3-3s1.3-3,3-3h8c7.7,0,14,6.3,14,14S102.7,90,95,90z"/><path fill="#444b54" d="M114,127H14c-7.2,0-13-5.8-13-13V41c0-1.7,1.3-3,3-3s3,1.3,3,3v73c0,3.9,3.1,7,7,7h100c3.9,0,7-3.1,7-7V14 c0-3.9-3.1-7-7-7H14c-3.9,0-7,3.1-7,7v11h104c1.7,0,3,1.3,3,3s-1.3,3-3,3H4c-1.7,0-3-1.3-3-3V14C1,6.8,6.8,1,14,1h100 c7.2,0,13,5.8,13,13v100C127,121.2,121.2,127,114,127z"/></svg>