<svg xmlns="http://www.w3.org/2000/svg" viewBox="0 0 128 128"><path fill="#fff" d="M22,19v90c0,5.5,4.5,10,10,10h63.9c5.5,0,10-4.5,10-10l0.1-80c0-11-9-20-20-20H32C26.5,9,22,13.5,22,19z"/><path fill="#e9eef4" d="M86,62H57c-1.7,0-3-1.3-3-3s1.3-3,3-3h29c1.7,0,3,1.3,3,3S87.7,62,86,62z"/><path fill="#71c2ff" d="M43,62c-0.2,0-0.4,0-0.6-0.1c-0.2,0-0.4-0.1-0.6-0.2c-0.2-0.1-0.3-0.2-0.5-0.3S41,61.2,40.9,61c-0.6-0.4-0.9-1.2-0.9-2c0-0.2,0-0.4,0.1-0.6c0-0.2,0.1-0.4,0.2-0.6c0.1-0.2,0.2-0.3,0.3-0.5s0.2-0.3,0.4-0.4c1.1-1.1,3.1-1.1,4.2,0c0.6,0.6,0.9,1.3,0.9,2.1s-0.3,1.6-0.9,2.1C44.6,61.7,43.8,62,43,62z"/><path fill="#e9eef4" d="M86,77H57c-1.7,0-3-1.3-3-3s1.3-3,3-3h29c1.7,0,3,1.3,3,3S87.7,77,86,77z"/><path fill="#71c2ff" d="M43,77c-0.8,0-1.6-0.3-2.1-0.9C40.3,75.6,40,74.8,40,74s0.3-1.6,0.9-2.1c0.1-0.1,0.3-0.3,0.4-0.4c0.2-0.1,0.3-0.2,0.5-0.3c0.2-0.1,0.4-0.1,0.6-0.2c0.4-0.1,0.8-0.1,1.2,0c0.2,0,0.4,0.1,0.6,0.2c0.2,0.1,0.4,0.2,0.5,0.3c0.2,0.1,0.3,0.2,0.4,0.4c0.6,0.6,0.9,1.3,0.9,2.1s-0.3,1.6-0.9,2.1c-0.1,0.1-0.3,0.3-0.4,0.4c-0.2,0.1-0.3,0.2-0.5,0.3c-0.2,0.1-0.4,0.1-0.6,0.2C43.4,77,43.2,77,43,77z"/><path fill="#e9eef4" d="M86,92H57c-1.7,0-3-1.3-3-3s1.3-3,3-3h29c1.7,0,3,1.3,3,3S87.7,92,86,92z"/><path fill="#71c2ff" d="M43,92c-0.2,0-0.4,0-0.6-0.1c-0.2,0-0.4-0.1-0.6-0.2c-0.2-0.1-0.3-0.2-0.5-0.3c-0.2-0.1-0.3-0.2-0.5-0.4c-0.1-0.1-0.3-0.3-0.4-0.4c-0.1-0.2-0.2-0.3-0.3-0.5s-0.1-0.4-0.2-0.6c0-0.2-0.1-0.4-0.1-0.6s0-0.4,0.1-0.6c0-0.2,0.1-0.4,0.2-0.6c0.1-0.2,0.2-0.3,0.3-0.5s0.2-0.3,0.4-0.4c1.1-1.1,3.1-1.1,4.2,0c0.6,0.6,0.9,1.3,0.9,2.1c0,0.2,0,0.4-0.1,0.6c0,0.2-0.1,0.4-0.2,0.6c-0.1,0.2-0.2,0.4-0.3,0.5c-0.1,0.2-0.2,0.3-0.4,0.4C44.6,91.7,43.8,92,43,92z"/><g><path fill="#444b54" d="M32,12h51v7c0,7.2,5.8,13,13,13h9.6c0.1,0,0.2,0,0.4,0l0,0c1.2,0,2.3-0.8,2.8-1.8c0.2-0.4,0.3-0.8,0.3-1.2c0-0.1,0-0.2,0-0.4c-0.1-6-2.5-11.6-6.7-15.9C97.9,8.4,92.2,6,86,6l0,0l0,0l0,0H32c-7.2,0-13,5.8-13,13v90c0,7.2,5.8,13,13,13h63.8c7.2,0,13-5.8,13-13l0.2-67c0-1.7-1.3-3-3-3l0,0c-1.7,0-3,1.3-3,3l-0.2,67c0,3.9-3.1,7-7,7H32c-3.9,0-7-3.1-7-7V19C25,15.1,28.1,12,32,12z M102.7,26H96c-3.9,0-7-3.1-7-7v-6.7c3.4,0.6,6.5,2.2,9,4.7S102.1,22.6,102.7,26z"/></g></svg>