<svg xmlns="http://www.w3.org/2000/svg" viewBox="0 0 128 128"><path fill="#444b54" d="M114,21H14c-4.4,0-8,3.6-8,8v65c0,1.7,1.3,3,3,3s3-1.3,3-3v-7h9v14h-2c-1.7,0-3,1.3-3,3s1.3,3,3,3h95c4.4,0,8-3.6,8-8V29C122,24.6,118.4,21,114,21z M12,47h9v14h-9V47z M107,47h9v14h-9V47z M107,67h9v14h-9V67z M116,29v12h-9V27h7C115.1,27,116,27.9,116,29z M14,27h7v14h-9V29C12,27.9,12.9,27,14,27z M12,81V67h9v14H12z M114,101h-7V87h9v12C116,100.1,115.1,101,114,101z"/><path fill="#ff5576" d="M57.3,52.3l15.8,9.1c2,1.2,2,4,0,5.2l-15.8,9.1c-2,1.2-4.5-0.3-4.5-2.6l0-18.2C52.8,52.6,55.3,51.1,57.3,52.3z"/></svg>