<svg xmlns="http://www.w3.org/2000/svg" viewBox="0 0 128 128"><path fill="#fff" d="M107 80A12 12 0 1 0 107 104 12 12 0 1 0 107 80zM57 90A12 12 0 1 0 57 114 12 12 0 1 0 57 90zM22 60A12 12 0 1 0 22 84 12 12 0 1 0 22 60z"/><path fill="#444b54" d="M33.9 24c-1.6 0-2.9 1.4-2.9 3l0 31.2c0 .8-.8 1.2-1.5.8-2.7-1.6-6-2.3-9.4-1.9-6.8.9-12.3 6.4-13 13.3-1 9.4 6.7 17.2 16 16.6C31 86.4 37 79.5 37 71.6l0-41.1c3.5 1.2 6 4.5 6 8.4 0 1.2.7 2.4 1.9 2.8C47 42.6 49 41 49 39 49 30.7 42.2 23.9 33.9 24zM22 81c-5 0-9-4-9-9s4-9 9-9 9 4 9 9S27 81 22 81zM122 49.2c0-4.5-2.3-8.7-6.2-11.1-2.9-1.8-6.3-2.2-9.6-1.6l-29.7 5.9C70.4 43.7 66 49 66 55.2v33c0 .8-.8 1.2-1.5.8-2.7-1.6-6-2.3-9.4-1.9-6.8.9-12.3 6.4-13 13.3-1 9.4 6.7 17.2 16 16.6 7.9-.6 13.9-7.4 13.9-15.3l0-32.2 44-8.8v17.5c0 .8-.8 1.2-1.5.8-2.7-1.6-6-2.3-9.4-1.9-6.8.9-12.3 6.4-13 13.3-1 9.4 6.7 17.2 16 16.6 7.9-.6 13.9-7.4 13.9-15.3L122 49.2zM57 111c-5 0-9-4-9-9s4-9 9-9 9 4 9 9S62 111 57 111zM72 63.3v-8.1c0-3.3 2.4-6.2 5.6-6.9l30-6c2.1-.4 4.2.1 5.8 1.5 1.6 1.3 2.6 3.3 2.6 5.4v5.3L72 63.3zM107 101c-5 0-9-4-9-9s4-9 9-9 9 4 9 9S112 101 107 101z"/></svg>