<svg xmlns="http://www.w3.org/2000/svg" x="0" y="0" viewBox="0 0 128 128"><path fill="#444b54" d="M124.5,127.4H44.1c-1.7,0-3-1.3-3-3s1.3-3,3-3h80.4c1.7,0,3,1.3,3,3S126.2,127.4,124.5,127.4z"/><path fill="#444b54" d="M24.1,127.4h-20c-1.7,0-3-1.3-3-3s1.3-3,3-3h20c1.7,0,3,1.3,3,3S25.8,127.4,24.1,127.4z"/><path fill="#aeb3b7" d="M90.1,8.4c5.9-5.9,15.4-5.9,21.2,0l0,0c5.9,5.9,5.9,15.4,0,21.2l-70.7,70.7l-24.7,3.5l3.5-24.7L90.1,8.4z"/><path fill="#fff" d="M90.1,8.4c5.9-5.9,15.4-5.9,21.2,0l0,0c5.9,5.9,5.9,15.4,0,21.2l-70.7,70.7v0c0-11.7-9.5-21.2-21.2-21.2h0 L90.1,8.4z"/><path fill="#efde97" d="M80.2,18.3c13.1,3.8,19.9,13.4,21.2,21.2l9.9-9.9c5.9-5.9,5.9-15.4,0-21.2l0,0c-5.9-5.9-15.4-5.9-21.2,0 C90.1,8.4,80.2,18.3,80.2,18.3z"/><path fill="#b5a809" d="M97.3,35.1c-1.2-1.2-1.2-3.1,0-4.2l7.6-7.6c1.4-1.4,2-3.4,1.6-5.4c-0.3-1.6,0.8-3.2,2.4-3.5 c1.6-0.3,3.2,0.7,3.5,2.4c0.8,3.9-0.5,8-3.3,10.8l-7.6,7.6C100.4,36.3,98.5,36.3,97.3,35.1z"/><path fill="#aeb3b7" d="M37.8,94.7c-1.2-1.2-1.2-3.1,0-4.2l41-41c1.2-1.2,3.1-1.2,4.2,0c1.2,1.2,1.2,3.1,0,4.2l-41,41 C40.8,95.8,38.9,95.8,37.8,94.7z"/><path fill="#444b54" d="M118.7,19c0-4.8-1.9-9.3-5.3-12.7C110,2.9,105.5,1,100.7,1S91.4,2.9,88,6.3c-1.2,1.2-1.2,3.1,0,4.2 c1.2,1.2,3.1,1.2,4.2,0c2.3-2.3,5.3-3.5,8.5-3.5s6.2,1.2,8.5,3.5c2.3,2.3,3.5,5.3,3.5,8.5s-1.2,6.2-3.5,8.5l-6.3,6.3 c-3-7.2-9.8-14.9-21.8-18.4c-1.1-0.3-2.2,0-2.9,0.7c0,0-60.9,60.9-60.9,60.9c-0.5,0.5-0.8,1.1-0.8,1.7L13,102.4l-2.8,2.8 c-1.2,1.2-1.2,3.1,0,4.2c0.6,0.6,1.4,0.9,2.1,0.9s1.5-0.3,2.1-0.9l2.8-2.8l23.8-3.4c0.6-0.1,1.2-0.4,1.7-0.8l70.7-70.7 C116.8,28.3,118.7,23.8,118.7,19z M22,82c7.5,2.4,13.4,8.2,15.7,15.7l-18.3,2.6L22,82z M42.7,93.9c-3-7.8-9.2-13.9-17-17L81,21.7 c10.3,3.6,15.6,10.9,17.1,16.8L42.7,93.9z"/></svg>