<svg xmlns="http://www.w3.org/2000/svg" viewBox="0 0 128 128"><path fill="#c6c6c5" d="M64.4,54.4H24V26.9h40.4c5.1,0,9.199,4.1,9.199,9.2v9.1C73.6,50.3,69.5,54.4,64.4,54.4"/><path fill="#a1a1a1" d="M73.599,36.05c-0.027,5.077-4.116,9.15-9.199,9.15H24v9.2h40.4c5.1,0,9.199-4.1,9.199-9.2v-9.1 C73.6,36.083,73.6,36.067,73.599,36.05"/><path fill="#fff" d="M55.2,37.3H24c-1.7,0-3-1.3-3-3s1.3-3,3-3h31.1c1.7,0,3,1.3,3,3S56.8,37.3,55.2,37.3z"/><path fill="#c6c6c5" d="M64.4,72.7H24v27.5h40.4c5.1,0,9.199-4.101,9.199-9.2v-9.1C73.6,76.8,69.5,72.7,64.4,72.7"/><path fill="#a1a1a1" d="M73.599,81.85C73.573,86.927,69.483,91,64.4,91H24v9.2h40.4c5.1,0,9.199-4.101,9.199-9.2v-9.1 C73.6,81.884,73.6,81.867,73.599,81.85"/><path fill="#454b54" d="M64.4,57.4H24c-1.7,0-3-1.3-3-3V26.9c0-1.7,1.3-3,3-3h40.4c6.7,0,12.2,5.5,12.2,12.2v9.1 C76.6,51.9,71.1,57.4,64.4,57.4z M27,51.4h37.4c3.4,0,6.2-2.8,6.2-6.2v-9.1c0-3.4-2.8-6.2-6.2-6.2H27V51.4z"/><path fill="#454b54" d="M24 62c-1.7 0-3-1.3-3-3V22.4c0-1.7 1.3-3 3-3s3 1.3 3 3V59C27 60.6 25.7 62 24 62zM113.2 66.1H99.4c-1.2 0-2.3-.7-2.8-1.9l-6.4-16c-1.2-3.1-4.2-5-7.5-5h-9.1c-1.7 0-3-1.3-3-3s1.3-3 3-3h9.1c5.8 0 10.9 3.4 13 8.8l5.7 14.1h11.8c1.7 0 3 1.3 3 3C116.2 64.8 114.8 66.1 113.2 66.1z"/><path fill="#454b54" d="M23.9 43.2h-9.1c-1.7 0-3-1.3-3-3s1.3-3 3-3h9.1c1.7 0 3 1.3 3 3S25.6 43.2 23.9 43.2zM23.9 89h-9.1c-1.7 0-3-1.3-3-3s1.3-3 3-3h9.1c1.7 0 3 1.3 3 3S25.6 89 23.9 89zM82.7 89.9h-9.1c-1.7 0-3-1.3-3-3s1.3-3 3-3h9.1c3.3 0 6.2-2 7.5-5l6.4-16c.6-1.5 2.4-2.3 3.9-1.7s2.3 2.4 1.7 3.9l-6.4 16C93.6 86.4 88.4 89.9 82.7 89.9z"/><path fill="#454b54" d="M64.4,103.2H24c-1.7,0-3-1.3-3-3V72.7c0-1.7,1.3-3,3-3h40.4c6.7,0,12.2,5.5,12.2,12.2V91 C76.6,97.7,71.1,103.2,64.4,103.2z M27,97.2h37.4c3.4,0,6.2-2.8,6.2-6.2v-9.1c0-3.4-2.8-6.2-6.2-6.2H27V97.2z"/><path fill="#fff" d="M55.2,83H24c-1.7,0-3-1.3-3-3s1.3-3,3-3h31.1c1.7,0,3,1.3,3,3S56.8,83,55.2,83z"/><path fill="#454b54" d="M24,108.6c-1.7,0-3-1.3-3-3V68.1c0-1.7,1.3-3,3-3s3,1.3,3,3v37.5C27,107.3,25.7,108.6,24,108.6z"/></svg>