<svg xmlns="http://www.w3.org/2000/svg" x="0" y="0" viewBox="0 0 128 128"><path fill="#3532c1" d="M65.1,81c-0.2,0-0.4,0-0.6-0.1c-1.6-0.3-2.7-1.9-2.4-3.5c1.3-6.9,2.2-9.6,2.9-11.6c0.1-0.4,0.2-0.7,0.3-1 c0.8-2.4,1.7-5,2.7-7.7c3.4-9.3,7.3-19.8,3.5-25.6c-1.4-2.1-4-3.4-6.8-3.4c-2,0-5.7,0.5-8.7,4.7c-1,1.3-2.8,1.7-4.2,0.7 c-1.3-1-1.7-2.8-0.7-4.2c3.3-4.6,8.2-7.2,13.4-7.2c0.1,0,0.2,0,0.3,0c4.8,0.1,9.3,2.4,11.7,6.1c5.5,8.3,1.1,20.3-2.9,30.9 c-1,2.7-1.9,5.2-2.6,7.5c-0.1,0.4-0.2,0.7-0.4,1.2c-0.6,1.8-1.5,4.4-2.7,10.8C67.8,80,66.5,81,65.1,81z"/><path fill="#3532c1" d="M65.1,101c-1.7,0-3-1.3-3-3v-5c0-1.7,1.3-3,3-3s3,1.3,3,3v5C68.1,99.7,66.7,101,65.1,101z"/><path fill="#3532c1" d="M25.1,101c-0.2,0-0.4,0-0.6-0.1c-1.6-0.3-2.7-1.9-2.4-3.5c1.3-6.9,2.2-9.6,2.9-11.6c0.1-0.4,0.2-0.7,0.3-1 c0.8-2.4,1.7-5,2.7-7.7c3.4-9.3,7.3-19.8,3.5-25.6c-1.4-2.1-4-3.4-6.8-3.4c-2,0-5.7,0.5-8.7,4.7c-1,1.3-2.8,1.7-4.2,0.7 c-1.3-1-1.7-2.8-0.7-4.2c3.3-4.7,8.3-7.3,13.7-7.2c4.8,0.1,9.3,2.4,11.7,6.1c5.5,8.3,1.1,20.3-2.9,30.9c-1,2.7-1.9,5.2-2.6,7.5 c-0.1,0.4-0.2,0.7-0.4,1.2c-0.6,1.8-1.5,4.4-2.7,10.8C27.8,100,26.5,101,25.1,101z"/><path fill="#3532c1" d="M25.1,121c-1.7,0-3-1.3-3-3v-5c0-1.7,1.3-3,3-3s3,1.3,3,3v5C28.1,119.7,26.7,121,25.1,121z"/><path fill="#3532c1" d="M105.1,101c-0.2,0-0.4,0-0.6-0.1c-1.6-0.3-2.7-1.9-2.4-3.5c1.3-6.9,2.2-9.6,2.9-11.6c0.1-0.4,0.2-0.7,0.3-1 c0.8-2.4,1.7-5,2.7-7.7c3.4-9.3,7.3-19.8,3.5-25.6c-1.4-2.1-4-3.4-6.8-3.4c-2,0-5.7,0.5-8.7,4.7c-1,1.3-2.8,1.7-4.2,0.7 c-1.3-1-1.7-2.8-0.7-4.2c3.3-4.7,8.3-7.3,13.7-7.2c4.8,0.1,9.3,2.4,11.7,6.1c5.5,8.3,1.1,20.3-2.9,30.9c-1,2.7-1.9,5.2-2.6,7.5 c-0.1,0.4-0.2,0.7-0.4,1.2c-0.6,1.8-1.5,4.4-2.7,10.8C107.8,100,106.5,101,105.1,101z"/><path fill="#3532c1" d="M105.1,121c-1.7,0-3-1.3-3-3v-5c0-1.7,1.3-3,3-3s3,1.3,3,3v5C108.1,119.7,106.7,121,105.1,121z"/></svg>