<svg xmlns="http://www.w3.org/2000/svg" x="0" y="0" viewBox="0 0 128 128"><path fill="#444b54" d="M34.4,13.1c-2.8,1.9-5.4,4.1-7.8,6.5c-1.2,1.2-1.2,3.1,0,4.2c0.6,0.6,1.4,0.9,2.1,0.9s1.5-0.3,2.1-0.9c2.1-2.1,4.5-4.1,7-5.7c1.4-0.9,1.7-2.8,0.8-4.2C37.6,12.5,35.7,12.1,34.4,13.1z"/><path fill="#444b54" d="M64,4c-1.7,0-3,1.3-3,3s1.3,3,3,3c25.9,0,47,21.1,47,47s-21.1,47-47,47c-0.8,0-1.6,0-2.4-0.1l13-13c1.2-1.2,1.2-3.1,0-4.2c-1.2-1.2-3.1-1.2-4.2,0l-17.7,17.7c-1.2,1.2-1.2,3.1,0,4.2l17.7,17.7c0.6,0.6,1.4,0.9,2.1,0.9s1.5-0.3,2.1-0.9c1.2-1.2,1.2-3.1,0-4.2L62.5,110c0.5,0,1,0,1.5,0c29.2,0,53-23.8,53-53S93.2,4,64,4z"/></svg>