<svg xmlns="http://www.w3.org/2000/svg" x="0" y="0" viewBox="0 0 128 128"><path fill="#fff" d="M114,124H14c-5.5,0-10-4.5-10-10V14C4,8.5,8.5,4,14,4h100c5.5,0,10,4.5,10,10v100 C124,119.5,119.5,124,114,124z"/><circle cx="16" cy="16" r="3" fill="#444b54"/><circle cx="26" cy="16" r="3" fill="#444b54"/><circle cx="36" cy="16" r="3" fill="#444b54"/><path fill="#71c2ff" d="M106,53.9c0-0.1,0-0.3,0-0.4c0,0,0,0,0,0c-0.1-0.5-0.3-1-0.7-1.5c-0.9-1-2.4-1.2-3.5-0.6l-8,4 c-1.5,0.7-2.1,2.5-1.3,4c0.6,1.1,1.8,1.8,3,1.6L72.4,99.2L45.1,71.9c-0.7-0.7-1.6-1-2.6-0.8c-0.9,0.1-1.8,0.7-2.2,1.6l-10,19 c-0.8,1.5-0.2,3.3,1.3,4.1c1.5,0.8,3.3,0.2,4.1-1.3L43.8,79l27.1,27.1c0.6,0.6,1.3,0.9,2.1,0.9c0.1,0,0.2,0,0.4,0 c0.9-0.1,1.7-0.6,2.2-1.4l24.5-40.9c0.3,1.3,1.5,2.3,2.9,2.3c1.7,0,3-1.3,3-3V54C106,54,106,53.9,106,53.9z"/><path fill="#444b54" d="M114,127H14c-7.2,0-13-5.8-13-13V41c0-1.7,1.3-3,3-3s3,1.3,3,3v73c0,3.9,3.1,7,7,7h100c3.9,0,7-3.1,7-7V14 c0-3.9-3.1-7-7-7H14c-3.9,0-7,3.1-7,7v11h104c1.7,0,3,1.3,3,3s-1.3,3-3,3H4c-1.7,0-3-1.3-3-3V14C1,6.8,6.8,1,14,1h100 c7.2,0,13,5.8,13,13v100C127,121.2,121.2,127,114,127z"/><circle cx="27" cy="104" r="3" fill="#71c2ff"/></svg>