<svg xmlns="http://www.w3.org/2000/svg" viewBox="0 0 128 128"><path fill="#FFF" d="M104,94H24c-2.8,0-5-2.2-5-5V79c0-2.8,2.2-5,5-5h80c2.8,0,5,2.2,5,5v10C109,91.8,106.8,94,104,94z"/><path fill="#454B54" d="M104 97H24c-4.4 0-8-3.6-8-8V79c0-4.4 3.6-8 8-8h80c4.4 0 8 3.6 8 8v10C112 93.4 108.4 97 104 97zM24 77c-1.1 0-2 .9-2 2v10c0 1.1.9 2 2 2h80c1.1 0 2-.9 2-2V79c0-1.1-.9-2-2-2H24zM109 112H19c-1.7 0-3-1.3-3-3s1.3-3 3-3h90c1.7 0 3 1.3 3 3S110.7 112 109 112z"/><path fill="#7CA5C6" d="M99 87H69c-1.7 0-3-1.3-3-3s1.3-3 3-3h30c1.7 0 3 1.3 3 3S100.7 87 99 87zM49 87c-.8 0-1.6-.3-2.1-.9C46.3 85.6 46 84.8 46 84s.3-1.6.9-2.1c1.1-1.1 3.1-1.1 4.2 0 .6.6.9 1.3.9 2.1s-.3 1.6-.9 2.1C50.6 86.7 49.8 87 49 87zM39 87c-.8 0-1.6-.3-2.1-.9C36.3 85.6 36 84.8 36 84s.3-1.6.9-2.1c1.1-1.1 3.1-1.1 4.2 0 .6.6.9 1.3.9 2.1s-.3 1.6-.9 2.1C40.6 86.7 39.8 87 39 87zM29 87c-.8 0-1.6-.3-2.1-.9C26.3 85.6 26 84.8 26 84s.3-1.6.9-2.1c1.1-1.1 3.1-1.1 4.2 0 .6.6.9 1.3.9 2.1s-.3 1.6-.9 2.1C30.6 86.7 29.8 87 29 87z"/><path fill="#FFF" d="M104,64H24c-2.8,0-5-2.2-5-5V49c0-2.8,2.2-5,5-5h80c2.8,0,5,2.2,5,5v10C109,61.8,106.8,64,104,64z"/><path fill="#454B54" d="M104,67H24c-4.4,0-8-3.6-8-8V49c0-4.4,3.6-8,8-8h80c4.4,0,8,3.6,8,8v10C112,63.4,108.4,67,104,67z M24,47c-1.1,0-2,0.9-2,2v10c0,1.1,0.9,2,2,2h80c1.1,0,2-0.9,2-2V49c0-1.1-0.9-2-2-2H24z"/><path fill="#7CA5C6" d="M99 57H69c-1.7 0-3-1.3-3-3s1.3-3 3-3h30c1.7 0 3 1.3 3 3S100.7 57 99 57zM49 57c-.8 0-1.6-.3-2.1-.9C46.3 55.6 46 54.8 46 54s.3-1.6.9-2.1c1.1-1.1 3.1-1.1 4.2 0 .6.6.9 1.3.9 2.1s-.3 1.6-.9 2.1C50.6 56.7 49.8 57 49 57zM39 57c-.8 0-1.6-.3-2.1-.9C36.3 55.6 36 54.8 36 54s.3-1.6.9-2.1c1.1-1.1 3.1-1.1 4.2 0 .6.6.9 1.3.9 2.1s-.3 1.6-.9 2.1C40.6 56.7 39.8 57 39 57zM29 57c-.8 0-1.6-.3-2.1-.9C26.3 55.6 26 54.8 26 54s.3-1.6.9-2.1c1.1-1.1 3.1-1.1 4.2 0 .6.6.9 1.3.9 2.1s-.3 1.6-.9 2.1C30.6 56.7 29.8 57 29 57z"/><path fill="#FFF" d="M104,34H24c-2.8,0-5-2.2-5-5V19c0-2.8,2.2-5,5-5h80c2.8,0,5,2.2,5,5v10C109,31.8,106.8,34,104,34z"/><path fill="#454B54" d="M104,37H24c-4.4,0-8-3.6-8-8V19c0-4.4,3.6-8,8-8h80c4.4,0,8,3.6,8,8v10C112,33.4,108.4,37,104,37z M24,17c-1.1,0-2,0.9-2,2v10c0,1.1,0.9,2,2,2h80c1.1,0,2-0.9,2-2V19c0-1.1-0.9-2-2-2H24z"/><path fill="#7CA5C6" d="M99 27H69c-1.7 0-3-1.3-3-3s1.3-3 3-3h30c1.7 0 3 1.3 3 3S100.7 27 99 27zM49 27c-.8 0-1.6-.3-2.1-.9C46.3 25.6 46 24.8 46 24s.3-1.6.9-2.1c1.1-1.1 3.1-1.1 4.2 0 .6.6.9 1.3.9 2.1s-.3 1.6-.9 2.1C50.6 26.7 49.8 27 49 27zM39 27c-.8 0-1.6-.3-2.1-.9C36.3 25.6 36 24.8 36 24s.3-1.6.9-2.1c1.1-1.1 3.1-1.1 4.2 0 .6.6.9 1.3.9 2.1s-.3 1.6-.9 2.1C40.6 26.7 39.8 27 39 27zM29 27c-.8 0-1.6-.3-2.1-.9C26.3 25.6 26 24.8 26 24s.3-1.6.9-2.1c1.1-1.1 3.1-1.1 4.2 0 .6.6.9 1.3.9 2.1s-.3 1.6-.9 2.1C30.6 26.7 29.8 27 29 27z"/><path fill="#454B54" d="M64,112c-1.7,0-3-1.3-3-3V94c0-1.7,1.3-3,3-3c1.7,0,3,1.3,3,3v15C67,110.7,65.7,112,64,112z"/></svg>