<svg xmlns="http://www.w3.org/2000/svg" x="0" y="0" viewBox="0 0 128 128"><path fill="#444b54" d="M64,22H4c-1.66,0-3-1.34-3-3s1.34-3,3-3h60c1.66,0,3,1.34,3,3S65.66,22,64,22z"/><path fill="#444b54" d="M64,52H4c-1.66,0-3-1.34-3-3s1.34-3,3-3h60c1.66,0,3,1.34,3,3S65.66,52,64,52z"/><path fill="#444b54" d="M64,82H4c-1.66,0-3-1.34-3-3s1.34-3,3-3h60c1.66,0,3,1.34,3,3S65.66,82,64,82z"/><path fill="#444b54" d="M64,112H4c-1.66,0-3-1.34-3-3s1.34-3,3-3h60c1.66,0,3,1.34,3,3S65.66,112,64,112z"/><path fill="#71c2ff" d="M124,112H94c-1.21,0-2.31-0.73-2.77-1.85c-0.46-1.12-0.21-2.41,0.65-3.27L116.76,82H94c-1.66,0-3-1.34-3-3 s1.34-3,3-3h30c1.21,0,2.31,0.73,2.77,1.85c0.46,1.12,0.21,2.41-0.65,3.27L101.24,106H124c1.66,0,3,1.34,3,3S125.66,112,124,112z"/><path fill="#71c2ff" d="M126.68,47.66l-15-30C111.17,16.64,110.14,16,109,16s-2.17,0.64-2.68,1.66l-15,30 c-0.74,1.48-0.14,3.28,1.34,4.02c1.48,0.74,3.28,0.14,4.03-1.34L99.35,45h19.29l2.67,5.34C121.84,51.39,122.9,52,124,52 c0.45,0,0.91-0.1,1.34-0.32C126.82,50.94,127.42,49.14,126.68,47.66z M102.35,39L109,25.71L115.65,39H102.35z"/></svg>