<svg xmlns="http://www.w3.org/2000/svg" viewBox="0 0 64 64"><radialGradient id="zYscW~kBWrgYxWqAXg8Tfa" cx="31.5" cy="32" r="31.751" gradientUnits="userSpaceOnUse" spreadMethod="reflect"><stop offset="0" stop-color="#f4e9c3"/><stop offset=".219" stop-color="#f8eecd"/><stop offset=".644" stop-color="#fdf4dc"/><stop offset="1" stop-color="#fff6e1"/></radialGradient><path fill="url(#zYscW~kBWrgYxWqAXg8Tfa)" d="M0,4L0,4c0-2.209,1.791-4,4-4h0c2.209,0,4,1.791,4,4v0c0,2.209-1.791,4-4,4h0 C1.791,8,0,6.209,0,4z M57.5,25h-1c-1.933,0-3.5,1.567-3.5,3.5v0c0,1.933,1.567,3.5,3.5,3.5H58c2.209,0,4,1.791,4,4v0 c0,2.209-1.791,4-4,4h-5.5c-1.381,0-2.5,1.119-2.5,2.5v0c0,1.381,1.119,2.5,2.5,2.5H54c2.209,0,4,1.791,4,4v0c0,2.209-1.791,4-4,4 h-5c-1.105,0-2,0.895-2,2v0c0,1.105,0.895,2,2,2h0.5c1.933,0,3.5,1.567,3.5,3.5v0c0,1.933-1.567,3.5-3.5,3.5h-38 C9.567,64,8,62.433,8,60.5v0c0-1.933,1.567-3.5,3.5-3.5h0c1.381,0,2.5-1.119,2.5-2.5v0c0-1.381-1.119-2.5-2.5-2.5H9 c-2.209,0-4-1.791-4-4v0c0-2.209,1.791-4,4-4h0.5c1.933,0,3.5-1.567,3.5-3.5v0c0-1.933-1.567-3.5-3.5-3.5H5c-2.761,0-5-2.239-5-5v0 c0-2.761,2.239-5,5-5h2c1.657,0,3-1.343,3-3v0c0-1.657-1.343-3-3-3H5.5C3.567,21,2,19.433,2,17.5v0C2,15.567,3.567,14,5.5,14H13l1,1 l3-1c1.657,0,3-1.343,3-3v0c0-1.657-1.343-3-3-3h-2c-2.209,0-4-1.791-4-4v0c0-2.209,1.791-4,4-4l36,0c2.209,0,4,1.791,4,4v0 c0,2.209-1.791,4-4,4h-2c-2.209,0-4,1.791-4,4v0c0,2.209,1.791,4,4,4h8.5c2.485,0,4.5,2.015,4.5,4.5v0C62,22.985,59.985,25,57.5,25z M59.5,64L59.5,64c1.933,0,3.5-1.567,3.5-3.5v0c0-1.933-1.567-3.5-3.5-3.5h0c-1.933,0-3.5,1.567-3.5,3.5v0 C56,62.433,57.567,64,59.5,64z"/><linearGradient id="zYscW~kBWrgYxWqAXg8Tfb" x1="31.492" x2="31.492" y1="43.911" y2="-39.09" gradientUnits="userSpaceOnUse" spreadMethod="reflect"><stop offset="0" stop-color="#155cde"/><stop offset=".278" stop-color="#1f7fe5"/><stop offset=".569" stop-color="#279ceb"/><stop offset=".82" stop-color="#2cafef"/><stop offset="1" stop-color="#2eb5f0"/></linearGradient><path fill="url(#zYscW~kBWrgYxWqAXg8Tfb)" d="M23.984,42.98V55c0,1.1-0.9,2-2,2H9.986c-1.764,0-2.648-2.132-1.402-3.38l3.936-3.942 C8.989,45.304,7,39.819,7,34c0-0.248,0-0.5,0-0.5C7,32.119,8.119,31,9.5,31s2.5,1.119,2.5,2.5c0.002,0,0.004,0,0.006,0 c-0.114,4.65,1.364,9.057,4.075,12.611l4.523-4.531C21.854,40.34,23.984,41.22,23.984,42.98z M39.58,44.38l4.531,4.523 c-3.553,2.711-7.96,4.189-12.611,4.075c0,0.002,0,0.004,0,0.006c-1.381,0-2.5,1.119-2.5,2.5s1.119,2.5,2.5,2.5c0,0,0.252,0,0.5,0 c5.819,0,11.304-1.989,15.677-5.52L51.62,56.4c1.248,1.246,3.38,0.362,3.38-1.402V43c0-1.1-0.9-2-2-2H40.98 C39.22,41,38.34,43.13,39.58,44.38z M42.38,25.42l4.523-4.531c2.711,3.553,4.189,7.96,4.075,12.611c0.002,0,0.004,0,0.006,0 c0,1.381,1.119,2.5,2.5,2.5s2.5-1.119,2.5-2.5c0,0,0-0.252,0-0.5c0-5.819-1.989-11.304-5.52-15.677L54.4,13.38 c1.246-1.248,0.362-3.38-1.402-3.38H41c-1.1,0-2,0.9-2,2v12.02C39,25.78,41.13,26.66,42.38,25.42z M23.42,22.62l-4.531-4.523 c3.553-2.711,7.96-4.189,12.611-4.075c0-0.002,0-0.004,0-0.006c1.381,0,2.5-1.119,2.5-2.5s-1.119-2.5-2.5-2.5c0,0-0.252,0-0.5,0 c-5.819,0-11.304,1.989-15.677,5.52L11.38,10.6C10.132,9.354,8,10.238,8,12.002V24c0,1.1,0.9,2,2,2h12.02 C23.78,26,24.66,23.87,23.42,22.62z"/></svg>