<svg xmlns="http://www.w3.org/2000/svg" viewBox="0 0 64 64"><radialGradient id="JpwgT8YHlGUyFYjREp_IOa" cx="31.999" cy="31.5" r="38.273" gradientTransform="matrix(1 0 0 -1 0 64)" gradientUnits="userSpaceOnUse"><stop offset="0" stop-color="#f2e7c1"/><stop offset=".219" stop-color="#f6eccb"/><stop offset=".644" stop-color="#faf2da"/><stop offset="1" stop-color="#fcf4df"/></radialGradient><path fill="url(#JpwgT8YHlGUyFYjREp_IOa)" d="M63.92,59.24C63.58,60.88,62.06,62,60.39,62H4.5c-2.17,0-3.89-2-3.42-4.24C1.42,56.12,2.95,55,4.62,55H7c1.21,0,2.18-1.08,1.97-2.34C8.81,51.68,7.89,51,6.62,51h-2c-1.67,0-3.2-1.12-3.54-2.76C0.61,46,2.33,44,4.5,44H15c1.21,0,2.18-1.08,1.97-2.34C16.81,40.68,15.89,40,14.89,40H5c-1.38,0-2.63-0.56-3.54-1.46c-0.72-0.73-1.22-1.67-1.39-2.73C0.02,35.55,0,35.28,0,35c0-2.76,2.24-5,5-5h10v-9H4.5c-2.17,0-3.89-2-3.42-4.24C1.42,15.12,2.95,14,4.62,14H7c1.21,0,2.18-1.08,1.97-2.34C8.81,10.68,7.89,10,6.89,10H6.5c-2.17,0-3.89-2-3.42-4.24C3.42,4.12,4.94,3,6.61,3H58.5c2.17,0,3.89,2,3.42,4.24C61.58,8.88,60.05,10,58.38,10H57c-1.21,0-2.18,1.08-1.97,2.34C55.19,13.32,56.1,14,57.46,14h2.92c1.67,0,3.2,1.12,3.54,2.76C64.39,19,62.67,21,60.5,21h-9c-2.49,0-4.5,2.01-4.5,4.5c0,1.24,0.5,2.37,1.32,3.18C49.13,29.5,50.26,30,51.5,30h7c2.39,0,4.33,1.87,4.47,4.22c0.01,0.08,0.02,0.16,0.03,0.23v0.05c0,2.49-2.01,4.5-4.5,4.5h-1c-1.38,0-2.5,1.12-2.5,2.5c0,0.69,0.28,1.32,0.73,1.77S56.81,44,57.5,44h2c2.17,0,3.89,2,3.42,4.24C62.58,49.88,61.05,51,59.38,51H57c-1.21,0-2.18,1.08-1.97,2.34c0.16,0.98,1.08,1.66,2.08,1.66h3.39C62.67,55,64.39,57,63.92,59.24z"/><linearGradient id="JpwgT8YHlGUyFYjREp_IOb" x1="14" x2="14" y1="52.45" y2="18.803" gradientTransform="matrix(1 0 0 -1 0 64)" gradientUnits="userSpaceOnUse"><stop offset=".447" stop-color="#5e6d7b"/><stop offset=".709" stop-color="#5c6b79"/><stop offset="1" stop-color="#515c69"/></linearGradient><rect width="4" height="29" x="12" y="11" fill="url(#JpwgT8YHlGUyFYjREp_IOb)"/><linearGradient id="JpwgT8YHlGUyFYjREp_IOc" x1="32" x2="32" y1="52.45" y2="18.803" gradientTransform="matrix(1 0 0 -1 0 64)" gradientUnits="userSpaceOnUse"><stop offset=".447" stop-color="#5e6d7b"/><stop offset=".709" stop-color="#5c6b79"/><stop offset="1" stop-color="#515c69"/></linearGradient><rect width="4" height="29" x="30" y="11" fill="url(#JpwgT8YHlGUyFYjREp_IOc)"/><linearGradient id="JpwgT8YHlGUyFYjREp_IOd" x1="50" x2="50" y1="52.45" y2="18.803" gradientTransform="matrix(1 0 0 -1 0 64)" gradientUnits="userSpaceOnUse"><stop offset=".447" stop-color="#5e6d7b"/><stop offset=".709" stop-color="#5c6b79"/><stop offset="1" stop-color="#515c69"/></linearGradient><rect width="4" height="29" x="48" y="11" fill="url(#JpwgT8YHlGUyFYjREp_IOd)"/><linearGradient id="JpwgT8YHlGUyFYjREp_IOe" x1="14" x2="14" y1="10.097" y2="68.281" gradientTransform="matrix(1 0 0 -1 0 64)" gradientUnits="userSpaceOnUse"><stop offset="0" stop-color="#909aa2"/><stop offset="1" stop-color="#98a1aa"/></linearGradient><path fill="url(#JpwgT8YHlGUyFYjREp_IOe)" d="M14,55c-1.104,0-2-0.896-2-2V38c0-1.104,0.896-2,2-2s2,0.896,2,2v15C16,54.104,15.104,55,14,55z"/><linearGradient id="JpwgT8YHlGUyFYjREp_IOf" x1="32" x2="32" y1="10.386" y2="83.881" gradientTransform="matrix(1 0 0 -1 0 64)" gradientUnits="userSpaceOnUse"><stop offset="0" stop-color="#909aa2"/><stop offset="1" stop-color="#98a1aa"/></linearGradient><path fill="url(#JpwgT8YHlGUyFYjREp_IOf)" d="M32,55c-1.104,0-2-0.896-2-2V33c0-1.104,0.896-2,2-2s2,0.896,2,2v20C34,54.104,33.104,55,32,55z"/><linearGradient id="JpwgT8YHlGUyFYjREp_IOg" x1="50" x2="50" y1="10.79" y2="105.721" gradientTransform="matrix(1 0 0 -1 0 64)" gradientUnits="userSpaceOnUse"><stop offset="0" stop-color="#909aa2"/><stop offset="1" stop-color="#98a1aa"/></linearGradient><path fill="url(#JpwgT8YHlGUyFYjREp_IOg)" d="M50,55c-1.104,0-2-0.896-2-2V26c0-1.104,0.896-2,2-2s2,0.896,2,2v27C52,54.104,51.104,55,50,55z"/><linearGradient id="JpwgT8YHlGUyFYjREp_IOh" x1="32" x2="32" y1="9" y2="13" gradientTransform="matrix(1 0 0 -1 0 64)" gradientUnits="userSpaceOnUse"><stop offset="0" stop-color="#828c95"/><stop offset="1" stop-color="#8a949f"/></linearGradient><path fill="url(#JpwgT8YHlGUyFYjREp_IOh)" d="M56,55H8c-1.104,0-2-0.896-2-2s0.896-2,2-2h48c1.104,0,2,0.896,2,2S57.104,55,56,55z"/><linearGradient id="JpwgT8YHlGUyFYjREp_IOi" x1="32" x2="32" y1="9" y2="13" gradientTransform="matrix(1 0 0 -1 0 64)" gradientUnits="userSpaceOnUse"><stop offset="0" stop-color="#828c95"/><stop offset="1" stop-color="#8a949f"/></linearGradient><path fill="url(#JpwgT8YHlGUyFYjREp_IOi)" d="M56,55H8c-1.104,0-2-0.896-2-2s0.896-2,2-2h48c1.104,0,2,0.896,2,2S57.104,55,56,55z"/><linearGradient id="JpwgT8YHlGUyFYjREp_IOj" x1="32" x2="32" y1="51" y2="55" gradientTransform="matrix(1 0 0 -1 0 64)" gradientUnits="userSpaceOnUse"><stop offset="0" stop-color="#828c95"/><stop offset="1" stop-color="#8a949f"/></linearGradient><path fill="url(#JpwgT8YHlGUyFYjREp_IOj)" d="M56,13H8c-1.104,0-2-0.896-2-2s0.896-2,2-2h48c1.104,0,2,0.896,2,2S57.104,13,56,13z"/><linearGradient id="JpwgT8YHlGUyFYjREp_IOk" x1="11.275" x2="16.725" y1="17.55" y2="36.45" gradientTransform="matrix(1 0 0 -1 0 64)" gradientUnits="userSpaceOnUse"><stop offset="0" stop-color="#155cdc"/><stop offset=".122" stop-color="#186adf"/><stop offset=".509" stop-color="#2691e7"/><stop offset=".815" stop-color="#30aaec"/><stop offset="1" stop-color="#2fb3ee"/></linearGradient><path fill="url(#JpwgT8YHlGUyFYjREp_IOk)" d="M10,28h8c1.105,0,2,0.895,2,2v14c0,1.105-0.895,2-2,2h-8c-1.105,0-2-0.895-2-2V30C8,28.895,8.895,28,10,28z"/><linearGradient id="JpwgT8YHlGUyFYjREp_IOl" x1="29.275" x2="34.725" y1="22.55" y2="41.45" gradientTransform="matrix(1 0 0 -1 0 64)" gradientUnits="userSpaceOnUse"><stop offset="0" stop-color="#155cdc"/><stop offset=".122" stop-color="#186adf"/><stop offset=".509" stop-color="#2691e7"/><stop offset=".815" stop-color="#30aaec"/><stop offset="1" stop-color="#2fb3ee"/></linearGradient><path fill="url(#JpwgT8YHlGUyFYjREp_IOl)" d="M28,23h8c1.105,0,2,0.895,2,2v14c0,1.105-0.895,2-2,2h-8c-1.105,0-2-0.895-2-2V25C26,23.895,26.895,23,28,23z"/><linearGradient id="JpwgT8YHlGUyFYjREp_IOm" x1="47.275" x2="52.725" y1="27.55" y2="46.45" gradientTransform="matrix(1 0 0 -1 0 64)" gradientUnits="userSpaceOnUse"><stop offset="0" stop-color="#155cdc"/><stop offset=".122" stop-color="#186adf"/><stop offset=".509" stop-color="#2691e7"/><stop offset=".815" stop-color="#30aaec"/><stop offset="1" stop-color="#2fb3ee"/></linearGradient><path fill="url(#JpwgT8YHlGUyFYjREp_IOm)" d="M46,18h8c1.105,0,2,0.895,2,2v14c0,1.105-0.895,2-2,2h-8c-1.105,0-2-0.895-2-2V20C44,18.895,44.895,18,46,18z"/></svg>