<svg xmlns="http://www.w3.org/2000/svg" viewBox="0 0 64 64"><radialGradient id="hUPRJnGP8RUYxLgTztF97a" cx="32" cy="790" r="33.002" gradientTransform="matrix(1 0 0 -1 0 822)" gradientUnits="userSpaceOnUse"><stop offset="0" stop-color="#efdcb1"/><stop offset="0" stop-color="#f2e0bb"/><stop offset=".011" stop-color="#f2e0bc"/><stop offset=".362" stop-color="#f9edd2"/><stop offset=".699" stop-color="#fef4df"/><stop offset="1" stop-color="#fff7e4"/></radialGradient><path fill="url(#hUPRJnGP8RUYxLgTztF97a)" d="M56,44.06c0,1.628,1.325,2.947,2.953,2.94c0.011,0,0.022,0,0.033,0 c1.846-0.008,3.306,1.651,2.963,3.557C61.688,52.007,60.325,53,58.852,53L26,53v1H7c-1.71,0-3.085-1.43-2.996-3.16 C4.088,49.217,5.545,48,7.17,48H8c1.214,0,2.175-1.082,1.973-2.334C9.815,44.682,8.89,44,7.893,44H3c-1.71,0-3.085-1.43-2.996-3.16 C0.088,39.217,1.545,38,3.17,38H7.5c1.381,0,2.5-1.119,2.5-2.5l0,0c0-1.381-1.119-2.5-2.5-2.5l0,0C6.119,33,5,31.881,5,30.5l0,0 C5,29.119,6.119,28,7.5,28H18v-9h-7.5c-2.139,0-3.83-1.919-3.445-4.129C7.353,13.165,8.966,12,10.698,12L22,12v-2h34.5 c2.139,0,3.83,1.919,3.445,4.129C59.647,15.835,58.034,17,56.302,17L53.5,17c-2.139,0-3.83,1.919-3.445,4.129 C50.353,22.835,51.966,24,53.698,24L58,24c1.777,0,3.194,1.546,2.978,3.365c-0.179,1.509-1.545,2.573-3.063,2.636 c-1.198,0.049-2.124,1.154-1.875,2.408C56.229,33.356,57.125,34,58.091,34l2.409,0c2.139,0,3.83,1.919,3.445,4.129 C63.647,39.835,62.034,41,60.302,41H58.94C57.316,41,56,42.316,56,43.94V44.06z"/><linearGradient id="hUPRJnGP8RUYxLgTztF97b" x1="37" x2="37" y1="11.625" y2="90.669" gradientUnits="userSpaceOnUse"><stop offset="0" stop-color="#26a7ec"/><stop offset=".259" stop-color="#2194e8"/><stop offset="1" stop-color="#155fdd"/></linearGradient><path fill="url(#hUPRJnGP8RUYxLgTztF97b)" d="M54,19.24V47c0,1.1-0.9,2-2,2H22c-1.1,0-2-0.9-2-2V7c0-1.1,0.9-2,2-2h17.76 c0.43,0,0.86,0.09,1.24,0.28c0.18,0.07,0.34,0.17,0.5,0.29c0.14,0.09,0.26,0.19,0.38,0.31l11.24,11.24 c0.12,0.12,0.22,0.24,0.31,0.38C53.8,18,54,18.61,54,19.24z"/><linearGradient id="hUPRJnGP8RUYxLgTztF97c" x1="47.5" x2="47.5" y1="26.363" y2="-10.144" gradientUnits="userSpaceOnUse"><stop offset="0" stop-color="#26a7ec"/><stop offset=".098" stop-color="#2298e9"/><stop offset=".301" stop-color="#1d7fe4"/><stop offset=".513" stop-color="#186de0"/><stop offset=".737" stop-color="#1662de"/><stop offset=".993" stop-color="#155fdd"/></linearGradient><path fill="url(#hUPRJnGP8RUYxLgTztF97c)" d="M54,19.24V20H43c-1.1,0-2-0.9-2-2V5.28c0.18,0.07,0.34,0.17,0.5,0.29 c0.14,0.09,0.26,0.19,0.38,0.31l11.24,11.24c0.12,0.12,0.22,0.24,0.31,0.38C53.8,18,54,18.61,54,19.24z"/><linearGradient id="hUPRJnGP8RUYxLgTztF97d" x1="40.5" x2="40.5" y1="34" y2="48.005" gradientUnits="userSpaceOnUse"><stop offset="0" stop-color="#47c3ee"/><stop offset=".98" stop-color="#32b5e8"/><stop offset="1" stop-color="#32b5e8"/></linearGradient><circle cx="40.5" cy="36.5" r="2.5" fill="url(#hUPRJnGP8RUYxLgTztF97d)"/><linearGradient id="hUPRJnGP8RUYxLgTztF97e" x1="44.5" x2="44.5" y1="27.875" y2="62.625" gradientUnits="userSpaceOnUse"><stop offset="0" stop-color="#26a7ec"/><stop offset=".098" stop-color="#2298e9"/><stop offset=".301" stop-color="#1d7fe4"/><stop offset=".513" stop-color="#186de0"/><stop offset=".737" stop-color="#1662de"/><stop offset=".993" stop-color="#155fdd"/></linearGradient><path fill="url(#hUPRJnGP8RUYxLgTztF97e)" d="M44.5,35c-1.466,0-2.637,1.261-2.487,2.758c0.13,1.301,1.322,2.242,2.63,2.242H47 c1.105,0,2,0.895,2,2v0c0,1.105-0.895,2-2,2h-9.5c-1.466,0-2.637,1.261-2.487,2.758c0.13,1.301,1.322,2.242,2.63,2.242L52,49 c1.105,0,2-0.895,2-2V35C54,35,45.881,35,44.5,35z"/><linearGradient id="hUPRJnGP8RUYxLgTztF97f" x1="64.597" x2="38.662" y1="-5.597" y2="20.338" gradientUnits="userSpaceOnUse"><stop offset="0" stop-color="#3cb5ea"/><stop offset="1" stop-color="#7ddefb"/></linearGradient><path fill="url(#hUPRJnGP8RUYxLgTztF97f)" d="M53.43,17.5c-0.09-0.14-0.19-0.26-0.31-0.38L41.88,5.88c-0.12-0.12-0.24-0.22-0.38-0.31 c-0.16-0.12-0.32-0.22-0.5-0.29V16c0,1.105,0.895,2,2,2h10.719C53.638,17.825,53.545,17.656,53.43,17.5z"/><linearGradient id="hUPRJnGP8RUYxLgTztF97g" x1="26.5" x2="26.5" y1="63.125" y2="5.484" gradientUnits="userSpaceOnUse"><stop offset="0" stop-color="#155cde"/><stop offset=".278" stop-color="#1f7fe5"/><stop offset=".569" stop-color="#279ceb"/><stop offset=".82" stop-color="#2cafef"/><stop offset="1" stop-color="#2eb5f0"/></linearGradient><path fill="url(#hUPRJnGP8RUYxLgTztF97g)" d="M31,5h-9c-1.105,0-2,0.895-2,2v11h6.893c0.996,0,1.92-0.681,2.08-1.664 C29.176,15.083,28.215,14,27,14h-0.5c-1.381,0-2.5-1.119-2.5-2.5v0c0-1.381,1.119-2.5,2.5-2.5l4.393,0 c0.996,0,1.92-0.681,2.08-1.664C33.176,6.083,32.215,5,31,5z"/><g><linearGradient id="hUPRJnGP8RUYxLgTztF97h" x1="29" x2="29" y1="58.875" y2="15.122" gradientUnits="userSpaceOnUse"><stop offset="0" stop-color="#41bfec"/><stop offset=".232" stop-color="#4cc5ef"/><stop offset=".644" stop-color="#6bd4f6"/><stop offset="1" stop-color="#8ae4fd"/></linearGradient><path fill="url(#hUPRJnGP8RUYxLgTztF97h)" d="M46,29.24V57c0,1.1-0.9,2-2,2H14c-1.1,0-2-0.9-2-2V17c0-1.1,0.9-2,2-2h17.76 c0.43,0,0.86,0.09,1.24,0.28c0.18,0.07,0.34,0.17,0.5,0.29c0.14,0.09,0.26,0.19,0.38,0.31l11.24,11.24 c0.12,0.12,0.22,0.24,0.31,0.38C45.8,28,46,28.61,46,29.24z"/><linearGradient id="hUPRJnGP8RUYxLgTztF97i" x1="39.5" x2="39.5" y1="30.125" y2="25.625" gradientUnits="userSpaceOnUse"><stop offset="0" stop-color="#42c6ee"/><stop offset=".48" stop-color="#3bc3ed"/><stop offset="1" stop-color="#2ebeea"/></linearGradient><path fill="url(#hUPRJnGP8RUYxLgTztF97i)" d="M46,29.24V30H35c-1.1,0-2-0.9-2-2V15.28c0.18,0.07,0.34,0.17,0.5,0.29 c0.14,0.09,0.26,0.19,0.38,0.31l11.24,11.24c0.12,0.12,0.22,0.24,0.31,0.38C45.8,28,46,28.61,46,29.24z"/><linearGradient id="hUPRJnGP8RUYxLgTztF97j" x1="31.5" x2="31.5" y1="45" y2="59.005" gradientUnits="userSpaceOnUse"><stop offset="0" stop-color="#47c3ee"/><stop offset=".98" stop-color="#32b5e8"/><stop offset="1" stop-color="#32b5e8"/></linearGradient><circle cx="31.5" cy="47.5" r="2.5" fill="url(#hUPRJnGP8RUYxLgTztF97j)"/><linearGradient id="hUPRJnGP8RUYxLgTztF97k" x1="36.5" x2="36.5" y1="45" y2="59" gradientUnits="userSpaceOnUse"><stop offset="0" stop-color="#47c3ee"/><stop offset=".98" stop-color="#32b5e8"/><stop offset="1" stop-color="#32b5e8"/></linearGradient><path fill="url(#hUPRJnGP8RUYxLgTztF97k)" d="M38.5,45c-1.466,0-2.637,1.261-2.487,2.758c0.13,1.301,1.322,2.242,2.63,2.242H39 c1.105,0,2,0.895,2,2v0c0,1.105-0.895,2-2,2h-9.5c-1.466,0-2.637,1.261-2.487,2.758c0.13,1.301,1.322,2.242,2.63,2.242L44,59 c1.105,0,2-0.895,2-2V45C46,45,39.881,45,38.5,45z"/><linearGradient id="hUPRJnGP8RUYxLgTztF97l" x1="26" x2="26" y1="27.75" y2="14.995" gradientUnits="userSpaceOnUse"><stop offset="0" stop-color="#81dcf7"/><stop offset=".48" stop-color="#8ce1f9"/><stop offset="1" stop-color="#9ee8fd"/></linearGradient><circle cx="26" cy="26" r="2" fill="url(#hUPRJnGP8RUYxLgTztF97l)"/><linearGradient id="hUPRJnGP8RUYxLgTztF97m" x1="18.5" x2="18.5" y1="27.75" y2="14.995" gradientUnits="userSpaceOnUse"><stop offset="0" stop-color="#81dcf7"/><stop offset=".48" stop-color="#8ce1f9"/><stop offset="1" stop-color="#9ee8fd"/></linearGradient><path fill="url(#hUPRJnGP8RUYxLgTztF97m)" d="M23,15h-9c-1.105,0-2,0.895-2,2v11h6.893c0.996,0,1.92-0.681,2.08-1.664 C21.176,25.083,20.215,24,19,24h-0.5c-1.381,0-2.5-1.119-2.5-2.5v0c0-1.381,1.119-2.5,2.5-2.5l4.393,0 c0.996,0,1.92-0.681,2.08-1.664C25.176,16.083,24.215,15,23,15z"/><linearGradient id="hUPRJnGP8RUYxLgTztF97n" x1="33.586" x2="40.438" y1="27.414" y2="20.562" gradientUnits="userSpaceOnUse"><stop offset="0" stop-color="#c6effd"/><stop offset=".375" stop-color="#b7ecfd"/><stop offset="1" stop-color="#95e6fd"/></linearGradient><path fill="url(#hUPRJnGP8RUYxLgTztF97n)" d="M45.43,27.5c-0.09-0.14-0.19-0.26-0.31-0.38L33.88,15.88c-0.12-0.12-0.24-0.22-0.38-0.31 c-0.16-0.12-0.32-0.22-0.5-0.29V26c0,1.105,0.895,2,2,2h10.719C45.638,27.825,45.545,27.656,45.43,27.5z"/></g></svg>