<svg xmlns="http://www.w3.org/2000/svg" viewBox="0 0 64 64"><radialGradient id="D6hltVpj2q2fspXIH2miYa" cx="32.502" cy="33.5" r="31.501" gradientTransform="matrix(1 0 0 -1 0 66)" gradientUnits="userSpaceOnUse"><stop offset="0" stop-color="#afeeff"/><stop offset=".193" stop-color="#bbf1ff"/><stop offset=".703" stop-color="#d7f8ff"/><stop offset="1" stop-color="#e1faff"/></radialGradient><path fill="url(#D6hltVpj2q2fspXIH2miYa)" d="M59.29,44H50c-1.1,0-2-0.9-2-2c0-0.55,0.22-1.05,0.59-1.41C48.95,40.22,49.45,40,50,40h6.83c2.09,0,3.95-1.53,4.15-3.61C61.21,34.01,59.34,32,57,32h-3c-1.66,0-3-1.34-3-3c0-0.83,0.34-1.58,0.88-2.12C52.42,26.34,53.17,26,54,26h1.36c1.31,0,2.5-0.94,2.63-2.24c0.15-1.5-1.02-2.76-2.49-2.76H54c-1.1,0-2-0.9-2-2c0-0.55,0.22-1.05,0.59-1.41C52.95,17.22,53.45,17,54,17h6.87c1.45,0,2.79-0.97,3.07-2.4C64.32,12.69,62.85,11,61,11h-8.34C51.2,11,49.92,9.8,50,8.35c0.04-0.63,0.31-1.2,0.73-1.62C51.18,6.28,51.81,6,52.5,6h1c1.6,0,2.86-1.52,2.41-3.18C55.61,1.72,54.54,1,53.4,1H12.5c-1.6,0-2.86,1.52-2.41,3.18C10.39,5.28,11.46,6,12.6,6h2.9C16.33,6,17,6.67,17,7.5S16.33,9,15.5,9L4.13,9.01c-1.45,0-2.79,0.97-3.07,2.4c-0.38,1.91,1.09,3.6,2.94,3.6h4.88c1,0,1.93,0.67,2.09,1.66c0.21,1.25-0.76,2.34-1.97,2.34H7.5c-1.59,0-2.85,1.52-2.41,3.18c0.29,1.05,1.27,1.76,2.36,1.81c0.05,0.01,0.09,0.01,0.14,0.01L9.5,24c1.93,0,3.5,1.57,3.5,3.5c0,0.96-0.39,1.84-1.03,2.47C11.34,30.61,10.46,31,9.5,31H7.17c-2.09,0-3.95,1.53-4.15,3.61C2.79,36.99,4.66,39,7,39h7c2.21,0,4,0,4,3c0,2-2.9,2-4,2H9H5.71H5c-0.87,0-1.65,0.37-2.19,0.96C2.31,45.49,2,46.21,2,47c0,0.83,0.34,1.58,0.88,2.12C3.42,49.66,4.17,50,5,50h4h3.36c1.3,0,2.5,0.94,2.63,2.24c0.15,1.5-1.02,5.76-2.49,5.76H7.16C5.54,58,4.09,59.22,4,60.84C3.92,62.58,5.29,64,7,64h50.84c1.62,0,3.07-1.22,3.16-2.84c0.08-1.74-1.29-3.16-3-3.16h-3.36c-1.3,0-2.5-0.94-2.63-2.24C51.86,54.26,53.03,53,54.5,53h5c2.63,0,4.75-2.28,4.48-4.96C63.74,45.7,61.63,44,59.29,44z"/><linearGradient id="D6hltVpj2q2fspXIH2miYb" x1="31.999" x2="31.999" y1="27.906" y2="-11.383" gradientTransform="matrix(1 0 0 -1 0 66)" gradientUnits="userSpaceOnUse"><stop offset="0" stop-color="#42d778"/><stop offset=".996" stop-color="#34b171"/><stop offset="1" stop-color="#34b171"/></linearGradient><path fill="url(#D6hltVpj2q2fspXIH2miYb)" d="M52.52,58H11.48c-2.27,0-3.97-2.03-3.5-4.19L8.81,50l0.22-1l0.87-4l0.22-1l1.13-5.24c0.34-1.61,1.81-2.76,3.5-2.76h33.69c1.62,0,3.04,1.06,3.46,2.59L53.37,44l1.62,6l0.82,3l0.17,0.64C56.57,55.84,54.86,58,52.52,58z"/><linearGradient id="D6hltVpj2q2fspXIH2miYc" x1="32.125" x2="31.919" y1="27.785" y2="10.802" gradientTransform="matrix(1 0 0 -1 0 66)" gradientUnits="userSpaceOnUse"><stop offset="0" stop-color="#42d778"/><stop offset=".996" stop-color="#34b171"/><stop offset="1" stop-color="#34b171"/></linearGradient><ellipse cx="32" cy="48.5" fill="url(#D6hltVpj2q2fspXIH2miYc)" rx="6" ry="4.5"/><linearGradient id="D6hltVpj2q2fspXIH2miYd" x1="45.905" x2="45.905" y1="33.953" y2="4.862" gradientTransform="matrix(1 0 0 -1 0 66)" gradientUnits="userSpaceOnUse"><stop offset="0" stop-color="#42d778"/><stop offset=".996" stop-color="#34b171"/><stop offset="1" stop-color="#34b171"/></linearGradient><path fill="url(#D6hltVpj2q2fspXIH2miYd)" d="M48.971,41.658C48.806,40.675,47.876,40,46.878,40H36v-4h12.44c1.62,0,3.04,1.06,3.46,2.59L53.37,44l1.62,6l0.82,3H46.5c-2.485,0-4.5-2.015-4.5-4.5l0,0c0-2.485,2.015-4.5,4.5-4.5H47C48.212,44,49.181,42.907,48.971,41.658z"/><linearGradient id="D6hltVpj2q2fspXIH2miYe" x1="16.451" x2="16.451" y1="22.702" y2=".008" gradientTransform="matrix(1 0 0 -1 0 66)" gradientUnits="userSpaceOnUse"><stop offset="0" stop-color="#5cdf8e"/><stop offset=".996" stop-color="#4dbf88"/><stop offset="1" stop-color="#4dbf88"/></linearGradient><path fill="url(#D6hltVpj2q2fspXIH2miYe)" d="M24.99,55.25c0.14,1.5-1.02,2.75-2.49,2.75H11.48c-2.27,0-3.97-2.03-3.5-4.19L8.81,50l0.22-1l0.87-4l0.22-1H17c1.66,0,3,1.34,3,3s-1.34,3-3,3h-2.5c-0.83,0-1.5,0.67-1.5,1.5s0.67,1.5,1.5,1.5h7.86C23.67,53,24.87,53.95,24.99,55.25z"/><linearGradient id="D6hltVpj2q2fspXIH2miYf" x1="32" x2="32" y1="12.654" y2="73.039" gradientTransform="matrix(1 0 0 -1 0 66)" gradientUnits="userSpaceOnUse"><stop offset="0" stop-color="#ff634d"/><stop offset=".204" stop-color="#fe6464"/><stop offset=".521" stop-color="#fc6581"/><stop offset=".794" stop-color="#fa6694"/><stop offset=".989" stop-color="#fa669a"/><stop offset="1" stop-color="#fa669a"/></linearGradient><path fill="url(#D6hltVpj2q2fspXIH2miYf)" d="M32,6c-8.839,0-16,7.008-16,15.644c0,6.713,9.668,20.538,13.973,26.363c0.98,1.324,3.076,1.324,4.053,0C38.332,42.181,48,28.351,48,21.644C48,13.008,40.839,6,32,6z"/><path fill="#fff" d="M32,14c-4.418,0-8,3.582-8,8s3.582,8,8,8s8-3.582,8-8S36.418,14,32,14z"/></svg>