<svg xmlns="http://www.w3.org/2000/svg" baseProfile="basic" viewBox="0 0 64 64"><radialGradient id="6Gws-gsj1CsEGw7ZFSxNja" cx="32" cy="807.39" r="68.686" gradientTransform="translate(0 -775.89)" gradientUnits="userSpaceOnUse"><stop offset="0" stop-color="#c5f1ff"/><stop offset=".35" stop-color="#cdf3ff"/><stop offset=".907" stop-color="#e4faff"/><stop offset="1" stop-color="#e9fbff"/></radialGradient><path fill="url(#6Gws-gsj1CsEGw7ZFSxNja)" d="M60.5,30c1.995,0,3.6-1.669,3.495-3.688C63.896,24.419,62.197,23,60.302,23H59.5 c-0.828,0-1.5-0.671-1.5-1.5s0.672-1.5,1.5-1.5h0.802c1.895,0,3.594-1.419,3.693-3.312C64.1,14.669,62.495,13,60.5,13h-1.393 c-0.996,0-1.92-0.681-2.08-1.664C56.823,10.083,57.785,9,59,9h0.302c1.895,0,3.594-1.419,3.693-3.312C63.101,3.669,61.495,2,59.5,2 H4.698C2.803,2,1.104,3.419,1.005,5.312C0.899,7.331,2.505,9,4.5,9h0.393c0.996,0,1.92,0.681,2.08,1.664 C7.177,11.917,6.215,13,5,13H3.698c-1.895,0-3.594,1.419-3.693,3.312C-0.101,18.331,1.505,20,3.5,20C4.328,20,5,20.671,5,21.5 S4.328,23,3.5,23h0.198c-1.895,0-3.594,1.419-3.693,3.312C-0.101,28.331,1.505,30,3.5,30l0,0C4.328,30,5,30.672,5,31.5l0,0 C5,32.328,4.328,33,3.5,33l0,0c-1.995,0-3.6,1.669-3.495,3.688C0.104,38.581,1.803,40,3.698,40H4.5C5.328,40,6,40.671,6,41.5 C6,42.328,5.328,43,4.5,43H3.698c-1.895,0-3.594,1.419-3.693,3.312C-0.101,48.331,1.505,50,3.5,50h1.393 c0.996,0,1.92,0.681,2.08,1.664C7.176,52.917,6.215,54,5,54H4.698c-1.895,0-3.594,1.419-3.693,3.312C0.899,59.331,2.505,61,4.5,61 h54.802c1.895,0,3.594-1.419,3.693-3.312C63.1,55.669,61.495,54,59.5,54H59c-1.105,0-2-0.896-2-2l0,0c0-1.104,0.895-2,2-2h1.302 c1.895,0,3.594-1.419,3.693-3.312C64.1,44.669,62.495,43,60.5,43c-0.828,0-1.5-0.672-1.5-1.5l0,0c0-0.829,0.672-1.5,1.5-1.5h-0.198 c1.895,0,3.594-1.419,3.693-3.312C64.101,34.669,62.495,33,60.5,33l0,0c-0.828,0-1.5-0.672-1.5-1.5l0,0 C59,30.672,59.672,30,60.5,30L60.5,30z"/><linearGradient id="6Gws-gsj1CsEGw7ZFSxNjb" x1="12" x2="12" y1="46.106" y2="17.651" gradientUnits="userSpaceOnUse"><stop offset="0" stop-color="#ff9757"/><stop offset="1" stop-color="#ffb65b"/></linearGradient><path fill="url(#6Gws-gsj1CsEGw7ZFSxNjb)" d="M24,31.096 c0,6.679-5.374,12.096-12,12.096S0,37.775,0,31.096S5.374,19,12,19S24,24.416,24,31.096z"/><linearGradient id="6Gws-gsj1CsEGw7ZFSxNjc" x1="32.001" x2="32.001" y1="-570.89" y2="-595.081" gradientTransform="matrix(1 0 0 -1 0 -551.89)" gradientUnits="userSpaceOnUse"><stop offset="0" stop-color="#42d778"/><stop offset=".996" stop-color="#34b171"/><stop offset="1" stop-color="#34b171"/></linearGradient><path fill="url(#6Gws-gsj1CsEGw7ZFSxNjc)" d="M44.096,31.096 c0,6.679-5.416,12.096-12.096,12.096s-12.096-5.416-12.096-12.096S25.321,19,32,19S44.096,24.416,44.096,31.096z"/><linearGradient id="6Gws-gsj1CsEGw7ZFSxNjd" x1="52" x2="52" y1="59.894" y2="7.033" gradientUnits="userSpaceOnUse"><stop offset="0" stop-color="#155cdc"/><stop offset=".278" stop-color="#1e7fe3"/><stop offset=".569" stop-color="#279ae9"/><stop offset=".82" stop-color="#2eaded"/><stop offset="1" stop-color="#2fb3ee"/></linearGradient><path fill="url(#6Gws-gsj1CsEGw7ZFSxNjd)" d="M64,31.096 c0,6.679-5.374,12.096-12,12.096s-12-5.416-12-12.096S45.374,19,52,19S64,24.416,64,31.096z"/><path fill="#6a696a" d="M24,31.1c0,2.5-0.75,4.81-2.04,6.74c-1.3-1.93-2.06-4.24-2.06-6.74s0.76-4.81,2.06-6.74 C23.25,26.29,24,28.6,24,31.1z"/><path fill="#6a696a" d="M44.1,31.1c0,2.5-0.76,4.81-2.06,6.74C40.75,35.91,40,33.6,40,31.1s0.75-4.81,2.04-6.74 C43.34,26.29,44.1,28.6,44.1,31.1z"/></svg>