<svg xmlns="http://www.w3.org/2000/svg" viewBox="0 0 64 64"><radialGradient id="rIvnjpJUmq3xkpynWjT2pa" cx="32" cy="10928" r="33.002" gradientTransform="translate(0 -10896)" gradientUnits="userSpaceOnUse"><stop offset="0" stop-color="#efdcb1"/><stop offset="0" stop-color="#f2e0bb"/><stop offset=".011" stop-color="#f2e0bc"/><stop offset=".362" stop-color="#f9edd2"/><stop offset=".699" stop-color="#fef4df"/><stop offset="1" stop-color="#fff7e4"/></radialGradient><path fill="url(#rIvnjpJUmq3xkpynWjT2pa)" d="M55.454,45.668c0.5,0.898,1.504,1.337,2.532,1.332c1.75-0.008,3.153,1.483,3.002,3.262C60.855,51.838,59.434,53,57.852,53H48v1H26h-8H7c-1.71,0-3.086-1.431-2.996-3.161C4.089,49.216,5.545,48,7.17,48H8c1.215,0,2.176-1.083,1.973-2.336C9.813,44.681,8.889,44,7.893,44H3c-1.71,0-3.086-1.431-2.996-3.161C0.089,39.216,1.545,38,3.17,38H9.5c1.381,0,7.5-3.619,7.5-5l2-2c-2,0-8.119,0-9.5,0l0,0C8.119,31,7,29.881,7,28.5l0,0C7,27.119,8.119,26,9.5,26H18v-5h-7.5c-1.995,0-3.601-1.67-3.495-3.688C7.104,15.419,8.803,14,10.698,14H18v-4h24h6h8.5c1.995,0,3.601,1.67,3.495,3.688C59.896,15.581,58.197,17,56.302,17H53.5c-1.995,0-3.601,1.67-3.495,3.688C50.104,22.581,51.803,24,53.698,24H56c1.777,0,3.194,1.546,2.978,3.366c-0.179,1.509-1.546,2.572-3.064,2.635c-1.197,0.05-2.122,1.153-1.874,2.406C54.228,33.355,55.123,34,56.089,34H60.5c1.995,0,3.601,1.67,3.495,3.688C63.896,39.581,62.197,41,60.302,41H58C55.808,41,54.166,43.35,55.454,45.668z M2.5,31L2.5,31C3.881,31,5,29.881,5,28.5l0,0C5,27.119,3.881,26,2.5,26l0,0C1.119,26,0,27.119,0,28.5l0,0C0,29.881,1.119,31,2.5,31z M2.5,31L2.5,31C3.881,31,5,29.881,5,28.5l0,0C5,27.119,3.881,26,2.5,26l0,0C1.119,26,0,27.119,0,28.5l0,0C0,29.881,1.119,31,2.5,31z"/><linearGradient id="rIvnjpJUmq3xkpynWjT2pb" x1="-1528.654" x2="-1527.654" y1="5119.096" y2="5119.096" gradientTransform="matrix(0 -52 -52 0 266226 -79432)" gradientUnits="userSpaceOnUse"><stop offset="0" stop-color="#67ccf0"/><stop offset=".232" stop-color="#70d1f2"/><stop offset=".644" stop-color="#89ddf8"/><stop offset="1" stop-color="#a1e9fd"/></linearGradient><path fill="url(#rIvnjpJUmq3xkpynWjT2pb)" d="M36.757,6H16c-1.657,0-3,1.343-3,3v46c0,1.657,1.343,3,3,3h34c1.657,0,3-1.343,3-3V22.243c0-0.796-0.317-1.56-0.879-2.121L38.878,6.879C38.316,6.317,37.553,6,36.757,6"/><linearGradient id="rIvnjpJUmq3xkpynWjT2pc" x1="37.935" x2="45.148" y1="-689.459" y2="-681.864" gradientTransform="matrix(1 0 0 -1 0 -668)" gradientUnits="userSpaceOnUse"><stop offset="0" stop-color="#c6effd"/><stop offset=".375" stop-color="#b7ecfd"/><stop offset="1" stop-color="#95e6fd"/></linearGradient><path fill="url(#rIvnjpJUmq3xkpynWjT2pc)" d="M52.121,20.122L38.878,6.879c-0.255-0.255-0.556-0.452-0.878-0.6V18c0,1.657,1.343,3,3,3h11.721C52.574,20.678,52.377,20.377,52.121,20.122z"/><linearGradient id="rIvnjpJUmq3xkpynWjT2pd" x1="45.5" x2="45.5" y1="10920.083" y2="10914.083" gradientTransform="translate(0 -10896)" gradientUnits="userSpaceOnUse"><stop offset="0" stop-color="#42c6ee"/><stop offset=".48" stop-color="#3bc3ed"/><stop offset="1" stop-color="#2ebeea"/></linearGradient><path fill="url(#rIvnjpJUmq3xkpynWjT2pd)" d="M41,21c-1.657,0-3-1.343-3-3v3c0,1.657,1.343,3,3,3h12v-1.757c0-0.434-0.102-0.855-0.279-1.243H41z"/><path fill="#fff" d="M30.798,52.215c-1.582-1.096-3.03-2.498-4.154-4.216c-1.122-1.712-1.901-3.756-2.111-5.935c-0.212-2.175,0.169-4.449,1.05-6.468l1.556-3.74l-1.853-1.027c-1.045-0.579-0.926-2.099,0.193-2.483l8.65-2.959c0.633-0.216,1.322,0.166,1.474,0.817l2.076,8.903c0.269,1.152-0.959,2.059-2.003,1.48l-1.854-1.027l-2.292,3.221c-0.731,0.962-1.217,2.075-1.395,3.306c-0.172,1.228-0.019,2.572,0.471,3.886c0.488,1.315,1.303,2.586,2.352,3.712l0.032,0.034c0.53,0.569,0.616,1.44,0.159,2.094C32.621,52.57,31.569,52.75,30.798,52.215z"/></svg>