<svg xmlns="http://www.w3.org/2000/svg" viewBox="0 0 64 64"><radialGradient id="G09OxcN5QZBp9iQE~ycyva" cx="32" cy="30.5" r="31.259" gradientUnits="userSpaceOnUse" spreadMethod="reflect"><stop offset="0" stop-color="#f4e9c3"/><stop offset=".219" stop-color="#f8eecd"/><stop offset=".644" stop-color="#fdf4dc"/><stop offset="1" stop-color="#fff6e1"/></radialGradient><path fill="url(#G09OxcN5QZBp9iQE~ycyva)" d="M58,53c-1.105,0-2-0.895-2-2c0-1.105,0.895-2,2-2h2.5c1.925,0,3.5-1.575,3.5-3.5 S62.425,42,60.5,42H50c-1.381,0-2.5-1.119-2.5-2.5c0-1.381,1.119-2.5,2.5-2.5h8c1.65,0,3-1.35,3-3c0-1.65-1.35-3-3-3H42v-6h18 c2.335,0,4.22-2.028,3.979-4.41C63.77,18.514,61.897,17,59.811,17H58c-1.105,0-2-0.895-2-2c0-1.105,0.895-2,2-2h0.357 c1.308,0,2.499-0.941,2.63-2.242C61.137,9.261,59.966,8,58.5,8h-14C43.672,8,43,7.328,43,6.5S43.672,5,44.5,5h3.857 c1.308,0,2.499-0.941,2.63-2.242C51.137,1.261,49.966,0,48.5,0L15.643,0c-1.308,0-2.499,0.941-2.63,2.242 C12.863,3.739,14.034,5,15.5,5H19c1.105,0,2,0.895,2,2c0,1.105-0.895,2-2,2H6.189c-2.086,0-3.958,1.514-4.168,3.59 C1.78,14.972,3.665,17,6,17h2.5c1.933,0,3.5,1.567,3.5,3.5c0,1.933-1.567,3.5-3.5,3.5H5.189c-2.086,0-3.958,1.514-4.168,3.59 C0.78,29.972,2.665,32,5,32h17v11H6c-1.65,0-3,1.35-3,3c0,1.65,1.35,3,3,3h0c1.105,0,2,0.895,2,2c0,1.105-0.895,2-2,2H4.189 c-2.086,0-3.958,1.514-4.168,3.59C-0.22,58.972,1.665,61,4,61h53.811c2.086,0,3.958-1.514,4.168-3.59C62.22,55.028,60.335,53,58,53z"/><linearGradient id="G09OxcN5QZBp9iQE~ycyvb" x1="20.5" x2="20.5" y1="53" y2="-3.504" gradientUnits="userSpaceOnUse" spreadMethod="reflect"><stop offset="0" stop-color="#155cde"/><stop offset=".278" stop-color="#1f7fe5"/><stop offset=".569" stop-color="#279ceb"/><stop offset=".82" stop-color="#2cafef"/><stop offset="1" stop-color="#2eb5f0"/></linearGradient><path fill="url(#G09OxcN5QZBp9iQE~ycyvb)" d="M14,11h13c1.657,0,3,1.343,3,3v36c0,1.657-1.343,3-3,3H14c-1.657,0-3-1.343-3-3V14 C11,12.343,12.343,11,14,11z"/><linearGradient id="G09OxcN5QZBp9iQE~ycyvc" x1="20.5" x2="20.5" y1="39.147" y2="55.736" gradientUnits="userSpaceOnUse" spreadMethod="reflect"><stop offset="0" stop-color="#b2b2b2"/><stop offset=".594" stop-color="#949494"/><stop offset="1" stop-color="#848484"/><stop offset="1" stop-color="#848484"/></linearGradient><path fill="url(#G09OxcN5QZBp9iQE~ycyvc)" d="M26,43.5c0,3.04-2.46,5.5-5.5,5.5S15,46.54,15,43.5s2.46-5.5,5.5-5.5S26,40.46,26,43.5z"/><path fill="#626262" d="M23,43.5c0,1.379-1.121,2.5-2.5,2.5S18,44.879,18,43.5s1.121-2.5,2.5-2.5S23,42.121,23,43.5z"/><linearGradient id="G09OxcN5QZBp9iQE~ycyvd" x1="20.5" x2="20.5" y1="34" y2="17" gradientUnits="userSpaceOnUse" spreadMethod="reflect"><stop offset="0" stop-color="#deedfb"/><stop offset="1" stop-color="#dff1fc"/></linearGradient><path fill="url(#G09OxcN5QZBp9iQE~ycyvd)" d="M18,17h5c0.552,0,1,0.448,1,1v15c0,0.552-0.448,1-1,1h-5c-0.552,0-1-0.448-1-1V18 C17,17.448,17.448,17,18,17z"/><linearGradient id="G09OxcN5QZBp9iQE~ycyve" x1="43.5" x2="43.5" y1="53" y2="11" gradientUnits="userSpaceOnUse" spreadMethod="reflect"><stop offset="0" stop-color="#ff634d"/><stop offset=".204" stop-color="#fe6464"/><stop offset=".521" stop-color="#fc6581"/><stop offset=".794" stop-color="#fa6694"/><stop offset=".989" stop-color="#fa669a"/><stop offset="1" stop-color="#fa669a"/></linearGradient><path fill="url(#G09OxcN5QZBp9iQE~ycyve)" d="M37,11h13c1.657,0,3,1.343,3,3v36c0,1.657-1.343,3-3,3H37c-1.657,0-3-1.343-3-3V14 C34,12.343,35.343,11,37,11z"/><linearGradient id="G09OxcN5QZBp9iQE~ycyvf" x1="43.5" x2="43.5" y1="39.032" y2="55.728" gradientUnits="userSpaceOnUse" spreadMethod="reflect"><stop offset="0" stop-color="#b2b2b2"/><stop offset=".594" stop-color="#949494"/><stop offset="1" stop-color="#848484"/><stop offset="1" stop-color="#848484"/></linearGradient><path fill="url(#G09OxcN5QZBp9iQE~ycyvf)" d="M49,43.5c0,3.04-2.46,5.5-5.5,5.5S38,46.54,38,43.5s2.46-5.5,5.5-5.5S49,40.46,49,43.5z"/><path fill="#626262" d="M46,43.5c0,1.379-1.121,2.5-2.5,2.5S41,44.879,41,43.5s1.121-2.5,2.5-2.5S46,42.121,46,43.5z"/><linearGradient id="G09OxcN5QZBp9iQE~ycyvg" x1="43.5" x2="43.5" y1="34" y2="17" gradientUnits="userSpaceOnUse" spreadMethod="reflect"><stop offset="0" stop-color="#ffe8eb"/><stop offset="1" stop-color="#fee8ef"/></linearGradient><path fill="url(#G09OxcN5QZBp9iQE~ycyvg)" d="M41,17h5c0.552,0,1,0.448,1,1v15c0,0.552-0.448,1-1,1h-5c-0.552,0-1-0.448-1-1V18 C40,17.448,40.448,17,41,17z"/></svg>