<svg xmlns="http://www.w3.org/2000/svg" viewBox="0 0 64 64"><radialGradient id="e8txPwk2ITnHf92JzivbEa" cx="-1724.583" cy="1434.083" r="28.77" gradientTransform="matrix(-1 0 0 1 -1690 -1400)" gradientUnits="userSpaceOnUse"><stop offset="0" stop-color="#f4e9c3"/><stop offset=".219" stop-color="#f8eecd"/><stop offset=".644" stop-color="#fdf4dc"/><stop offset="1" stop-color="#fff6e1"/></radialGradient><path fill="url(#e8txPwk2ITnHf92JzivbEa)" d="M58.5,0L58.5,0C56.567,0,55,1.567,55,3.5l0,0C55,5.433,56.567,7,58.5,7l0,0C60.433,7,62,5.433,62,3.5l0,0C62,1.567,60.433,0,58.5,0z"/><radialGradient id="e8txPwk2ITnHf92JzivbEb" cx="-1721.5" cy="1431.995" r="31.753" gradientTransform="matrix(-1 0 0 1 -1690 -1400)" gradientUnits="userSpaceOnUse"><stop offset="0" stop-color="#f4e9c3"/><stop offset=".219" stop-color="#f8eecd"/><stop offset=".644" stop-color="#fdf4dc"/><stop offset="1" stop-color="#fff6e1"/></radialGradient><path fill="url(#e8txPwk2ITnHf92JzivbEb)" d="M0,43.5L0,43.5C0,45.985,2.015,48,4.5,48H10c2.209,0,4,1.791,4,4l0,0c0,2.209-1.791,4-4,4H9c-2.209,0-4,1.791-4,4l0,0c0,2.209,1.791,4,4,4h41c2.209,0,4-1.791,4-4l0,0c0-2.209-1.791-4-4-4h-1c-1.657,0-3-1.343-3-3l0,0c0-1.657,1.343-3,3-3h8.5c1.933,0,3.5-1.567,3.5-3.5l0,0c0-1.933-1.567-3.5-3.5-3.5h-0.502C55.342,43,54,41.658,54,40.002l0,0c0-1.655,1.341-2.997,2.996-2.998L58.009,37C60.767,36.995,63,34.758,63,32l0,0c0-2.761-1.239-5-4-5h-5.5c-1.933,0-3.5-1.567-3.5-3.5l0,0c0-1.933,1.567-3.5,3.5-3.5H55c2.209,0,4-1.791,4-4l0,0c0-2.209-1.791-4-4-4h-6.5c-1.38,0-2.499-1.12-2.498-2.5V9.395c0.001-1.322,1.074-2.392,2.396-2.388h0.16c1.91,0.005,3.44-1.519,3.441-3.402c0-0.035,0-0.07,0-0.106c0.001-1.938-1.568-3.51-3.507-3.508C41.425-0.002,23.554,0,16.497,0C14.564,0,13,1.567,13,3.5l0,0C13,5.433,14.567,7,16.5,7H17c1.105,0,2,0.895,2,2l0,0c0,1.105-0.895,2-2,2H9c-2.209,0-4,1.791-4,4l0,0c0,2.209,1.791,4,4,4h1.5c1.381,0,2.5,1.119,2.5,2.5l0,0c0,1.381-1.119,2.5-2.5,2.5H7c-2.209,0-4,1.791-4,4H2c0,2.209,1.791,4,4,4h0.5c1.933,0,3.5,1.567,3.5,3.5l0,0c0,1.933-1.567,3.5-3.5,3.5h-2C2.015,39,0,41.015,0,43.5z"/><linearGradient id="e8txPwk2ITnHf92JzivbEc" x1="12" x2="12" y1="4.859" y2="38.713" gradientUnits="userSpaceOnUse"><stop offset="0" stop-color="#a4a4a4"/><stop offset=".63" stop-color="#7f7f7f"/><stop offset="1" stop-color="#6f6f6f"/><stop offset="1" stop-color="#6f6f6f"/></linearGradient><circle cx="12" cy="32" r="11" fill="url(#e8txPwk2ITnHf92JzivbEc)"/><linearGradient id="e8txPwk2ITnHf92JzivbEd" x1="32" x2="32" y1="24.859" y2="58.713" gradientUnits="userSpaceOnUse"><stop offset="0" stop-color="#a4a4a4"/><stop offset=".63" stop-color="#7f7f7f"/><stop offset="1" stop-color="#6f6f6f"/><stop offset="1" stop-color="#6f6f6f"/></linearGradient><circle cx="32" cy="52" r="11" fill="url(#e8txPwk2ITnHf92JzivbEd)"/><linearGradient id="e8txPwk2ITnHf92JzivbEe" x1="52" x2="52" y1="4.859" y2="38.713" gradientUnits="userSpaceOnUse"><stop offset="0" stop-color="#a4a4a4"/><stop offset=".63" stop-color="#7f7f7f"/><stop offset="1" stop-color="#6f6f6f"/><stop offset="1" stop-color="#6f6f6f"/></linearGradient><circle cx="52" cy="32" r="11" fill="url(#e8txPwk2ITnHf92JzivbEe)"/><linearGradient id="e8txPwk2ITnHf92JzivbEf" x1="32" x2="32" y1="-15.141" y2="18.713" gradientUnits="userSpaceOnUse"><stop offset="0" stop-color="#a4a4a4"/><stop offset=".63" stop-color="#7f7f7f"/><stop offset="1" stop-color="#6f6f6f"/><stop offset="1" stop-color="#6f6f6f"/></linearGradient><circle cx="32" cy="12" r="11" fill="url(#e8txPwk2ITnHf92JzivbEf)"/><linearGradient id="e8txPwk2ITnHf92JzivbEg" x1="12" x2="12" y1="38.5" y2="25.5" gradientUnits="userSpaceOnUse"><stop offset="0" stop-color="#ff735d"/><stop offset=".139" stop-color="#fe746b"/><stop offset=".492" stop-color="#fc758a"/><stop offset=".791" stop-color="#fa769d"/><stop offset="1" stop-color="#fa76a4"/></linearGradient><path fill="url(#e8txPwk2ITnHf92JzivbEg)" d="M17,38.5H7c-0.829,0-1.5-0.671-1.5-1.5V27c0-0.829,0.671-1.5,1.5-1.5h10c0.829,0,1.5,0.671,1.5,1.5v10C18.5,37.829,17.829,38.5,17,38.5z M8.5,35.5h7v-7h-7V35.5z"/><linearGradient id="e8txPwk2ITnHf92JzivbEh" x1="32" x2="32" y1="4.046" y2="16.954" gradientUnits="userSpaceOnUse"><stop offset="0" stop-color="#42d778"/><stop offset=".428" stop-color="#3dca76"/><stop offset="1" stop-color="#34b171"/></linearGradient><path fill="url(#e8txPwk2ITnHf92JzivbEh)" d="M38,16.954H26c-0.542,0-1.041-0.292-1.307-0.764c-0.266-0.472-0.257-1.05,0.023-1.513l6-9.907C30.989,4.32,31.475,4.046,32,4.046s1.011,0.274,1.283,0.723l6,9.907c0.28,0.463,0.29,1.042,0.023,1.513C39.041,16.662,38.542,16.954,38,16.954z M28.662,13.954h6.676L32,8.442L28.662,13.954z"/><linearGradient id="e8txPwk2ITnHf92JzivbEi" x1="52" x2="52" y1="24.5" y2="39.5" gradientUnits="userSpaceOnUse"><stop offset="0" stop-color="#ff5840"/><stop offset=".989" stop-color="#fa528c"/></linearGradient><path fill="url(#e8txPwk2ITnHf92JzivbEi)" d="M52,39.5c-4.136,0-7.5-3.364-7.5-7.5s3.364-7.5,7.5-7.5s7.5,3.364,7.5,7.5S56.136,39.5,52,39.5z M52,27.5c-2.481,0-4.5,2.019-4.5,4.5s2.019,4.5,4.5,4.5s4.5-2.019,4.5-4.5S54.481,27.5,52,27.5z"/><linearGradient id="e8txPwk2ITnHf92JzivbEj" x1="32" x2="32" y1="46" y2="58" gradientUnits="userSpaceOnUse"><stop offset="0" stop-color="#40daf2"/><stop offset=".259" stop-color="#3bd3ef"/><stop offset=".624" stop-color="#2ec1e8"/><stop offset="1" stop-color="#1ba7dd"/></linearGradient><path fill="url(#e8txPwk2ITnHf92JzivbEj)" d="M34.121,52l3.439-3.439c0.586-0.585,0.586-1.536,0-2.121c-0.586-0.586-1.535-0.586-2.121,0L32,49.879l-3.439-3.439c-0.586-0.586-1.535-0.586-2.121,0c-0.586,0.585-0.586,1.536,0,2.121L29.879,52l-3.439,3.439c-0.586,0.585-0.586,1.536,0,2.121C26.732,57.854,27.116,58,27.5,58s0.768-0.146,1.061-0.439L32,54.121l3.439,3.439C35.732,57.854,36.116,58,36.5,58s0.768-0.146,1.061-0.439c0.586-0.585,0.586-1.536,0-2.121L34.121,52z"/></svg>