<svg xmlns="http://www.w3.org/2000/svg" viewBox="0 0 64 64"><radialGradient id="Og_hqzh18BNlCzRHPjgUda" cx="32" cy="34.5" r="51.925" gradientTransform="matrix(1 0 0 -1 0 66)" gradientUnits="userSpaceOnUse"><stop offset="0" stop-color="#9ceeff"/><stop offset=".642" stop-color="#c5f5ff"/><stop offset="1" stop-color="#dcf9ff"/></radialGradient><path fill="url(#Og_hqzh18BNlCzRHPjgUda)" d="M60.5,30c1.995,0,3.6-1.669,3.495-3.688C63.896,24.419,62.197,23,60.302,23H59.5c-0.828,0-1.5-0.671-1.5-1.5s0.672-1.5,1.5-1.5h0.802c1.895,0,3.594-1.419,3.693-3.312C64.1,14.669,62.495,13,60.5,13h-1.393c-0.996,0-1.92-0.681-2.08-1.664C56.823,10.083,57.785,9,59,9h0.302c1.895,0,3.594-1.419,3.693-3.312C63.101,3.669,61.495,2,59.5,2H4.698C2.803,2,1.104,3.419,1.005,5.312C0.899,7.331,2.505,9,4.5,9h0.393c0.996,0,1.92,0.681,2.08,1.664C7.177,11.917,6.215,13,5,13H3.698c-1.895,0-3.594,1.419-3.693,3.312C-0.101,18.331,1.505,20,3.5,20C4.328,20,5,20.671,5,21.5S4.328,23,3.5,23h0.198c-1.895,0-3.594,1.419-3.693,3.312C-0.101,28.331,1.505,30,3.5,30l0,0C4.328,30,5,30.672,5,31.5l0,0C5,32.328,4.328,33,3.5,33l0,0c-1.995,0-3.6,1.669-3.495,3.688C0.104,38.581,1.803,40,3.698,40H4.5C5.328,40,6,40.671,6,41.5C6,42.328,5.328,43,4.5,43H3.698c-1.895,0-3.594,1.419-3.693,3.312C-0.101,48.331,1.505,50,3.5,50h1.393c0.996,0,1.92,0.681,2.08,1.664C7.176,52.917,6.215,54,5,54H4.698c-1.895,0-3.594,1.419-3.693,3.312C0.899,59.331,2.505,61,4.5,61h54.802c1.895,0,3.594-1.419,3.693-3.312C63.1,55.669,61.495,54,59.5,54H59c-1.105,0-2-0.896-2-2l0,0c0-1.104,0.895-2,2-2h1.302c1.895,0,3.594-1.419,3.693-3.312C64.1,44.669,62.495,43,60.5,43c-0.828,0-1.5-0.672-1.5-1.5l0,0c0-0.829,0.672-1.5,1.5-1.5h-0.198c1.895,0,3.594-1.419,3.693-3.312C64.101,34.669,62.495,33,60.5,33l0,0c-0.828,0-1.5-0.672-1.5-1.5l0,0C59,30.672,59.672,30,60.5,30L60.5,30z"/><linearGradient id="Og_hqzh18BNlCzRHPjgUdb" x1="32" x2="32" y1="-4.259" y2="81.29" gradientTransform="matrix(1 0 0 -1 0 66)" gradientUnits="userSpaceOnUse"><stop offset="0" stop-color="#dbdee1"/><stop offset=".085" stop-color="#dee1e4"/><stop offset=".606" stop-color="#eff1f2"/><stop offset="1" stop-color="#f5f6f7"/></linearGradient><path fill="url(#Og_hqzh18BNlCzRHPjgUdb)" d="M18,8h28c5.523,0,10,4.477,10,10v28c0,5.523-4.477,10-10,10H18c-5.523,0-10-4.477-10-10V18C8,12.477,12.477,8,18,8z"/><linearGradient id="Og_hqzh18BNlCzRHPjgUdc" x1="17.002" x2="17.002" y1="8.088" y2="68.413" gradientTransform="matrix(1 0 0 -1 0 66)" gradientUnits="userSpaceOnUse"><stop offset="0" stop-color="#dbdee1"/><stop offset=".892" stop-color="#f2f3f4"/><stop offset="1" stop-color="#f5f6f7"/></linearGradient><path fill="url(#Og_hqzh18BNlCzRHPjgUdc)" d="M25.99,42.24c0.15,1.5-1.02,2.76-2.49,2.76H15c-0.55,0-1.05,0.22-1.41,0.59C13.22,45.95,13,46.45,13,47c0,1.1,0.9,2,2,2h3.5c2,0,3.6,1.67,3.5,3.69C21.9,54.58,20.2,56,18.3,56H18c-5.52,0-10-4.48-10-10V33h10c1.21,0,2.18,1.08,1.97,2.34C19.81,36.32,18.89,37,17.89,37H17.5c-0.83,0-1.5,0.67-1.5,1.5s0.67,1.5,1.5,1.5h5.86C24.67,40,25.86,40.94,25.99,42.24z"/><linearGradient id="Og_hqzh18BNlCzRHPjgUdd" x1="21" x2="21" y1="42.532" y2="-12.488" gradientTransform="matrix(1 0 0 -1 0 66)" gradientUnits="userSpaceOnUse"><stop offset=".011" stop-color="#f97499"/><stop offset=".207" stop-color="#f97492"/><stop offset=".285" stop-color="#f9748d"/><stop offset=".476" stop-color="#fa7381"/><stop offset=".786" stop-color="#fc7366"/><stop offset="1" stop-color="#fc724e"/></linearGradient><path fill="url(#Og_hqzh18BNlCzRHPjgUdd)" d="M17.957,32.737l6-0.064c2.226-0.024,4.043,1.774,4.043,4v6.149c0,2.341-2.001,4.181-4.333,3.986l-6-0.501C15.594,46.133,14,44.4,14,42.32v-5.583C14,34.545,15.765,32.761,17.957,32.737z"/><linearGradient id="Og_hqzh18BNlCzRHPjgUde" x1="35" x2="35" y1="21.18" y2="32.241" gradientTransform="matrix(1 0 0 -1 0 66)" gradientUnits="userSpaceOnUse"><stop offset="0" stop-color="#feaa53"/><stop offset=".609" stop-color="#ffcd49"/><stop offset="1" stop-color="#ffde44"/></linearGradient><path fill="url(#Og_hqzh18BNlCzRHPjgUde)" d="M32.977,32.578l4-0.045c1.113-0.013,2.023,0.886,2.023,2v2.206c0,1.136-0.945,2.044-2.08,1.998l-4-0.16C31.847,38.534,31,37.652,31,36.578v-2.001C31,33.482,31.882,32.59,32.977,32.578z"/><linearGradient id="Og_hqzh18BNlCzRHPjgUdf" x1="35" x2="35" y1="30.009" y2="6.338" gradientTransform="matrix(1 0 0 -1 0 66)" gradientUnits="userSpaceOnUse"><stop offset=".096" stop-color="#5e6d7b"/><stop offset=".577" stop-color="#5c6b79"/><stop offset=".993" stop-color="#515c69"/></linearGradient><path fill="url(#Og_hqzh18BNlCzRHPjgUdf)" d="M33.08,41.583l4,0.16c1.073,0.043,1.92,0.925,1.92,1.998v2.167c0,1.169-0.999,2.089-2.164,1.993l-4-0.33C31.798,47.486,31,46.619,31,45.578v-1.997C31,42.446,31.945,41.538,33.08,41.583z"/><linearGradient id="Og_hqzh18BNlCzRHPjgUdg" x1="32" x2="32" y1="48.395" y2="21.915" gradientTransform="matrix(1 0 0 -1 0 66)" gradientUnits="userSpaceOnUse"><stop offset="0" stop-color="#00d772"/><stop offset=".59" stop-color="#00b26e"/><stop offset="1" stop-color="#00b26e"/></linearGradient><path fill="url(#Og_hqzh18BNlCzRHPjgUdg)" d="M50,19.347v6.086c0,2.192-1.765,3.976-3.957,4l-28,0.303c-2.226,0.024-4.043-1.774-4.043-4V21.68c0-2.08,1.595-3.813,3.668-3.986l28-2.333C48,15.167,50,17.007,50,19.347z"/><linearGradient id="Og_hqzh18BNlCzRHPjgUdh" x1="46" x2="46" y1="51.477" y2="18.427" gradientTransform="matrix(1 0 0 -1 0 66)" gradientUnits="userSpaceOnUse"><stop offset="0" stop-color="#6af1fb"/><stop offset=".386" stop-color="#58e0f4"/><stop offset=".769" stop-color="#28b3e2"/><stop offset="1" stop-color="#1ba7dd"/><stop offset="1" stop-color="#1ba7dd"/></linearGradient><path fill="url(#Og_hqzh18BNlCzRHPjgUdh)" d="M43.978,32.458l4-0.045C49.091,32.4,50,33.3,50,34.413v2.765c0,1.136-0.945,2.044-2.08,1.998l-4-0.16C42.847,38.974,42,38.092,42,37.018v-2.561C42,33.362,42.882,32.47,43.978,32.458z"/><linearGradient id="Og_hqzh18BNlCzRHPjgUdi" x1="46" x2="46" y1="35.404" y2=".785" gradientTransform="matrix(1 0 0 -1 0 66)" gradientUnits="userSpaceOnUse"><stop offset="0" stop-color="#7c9eea"/><stop offset=".277" stop-color="#798ce6"/><stop offset=".737" stop-color="#7780e3"/><stop offset="1" stop-color="#7363dc"/></linearGradient><path fill="url(#Og_hqzh18BNlCzRHPjgUdi)" d="M44.08,42.023l4,0.16c1.073,0.043,1.92,0.925,1.92,1.998v2.644c0,1.17-1.001,2.091-2.167,1.993l-4-0.335C42.797,48.397,42,47.53,42,46.491v-2.469C42,42.886,42.945,41.978,44.08,42.023z"/><linearGradient id="Og_hqzh18BNlCzRHPjgUdj" x1="19.502" x2="19.502" y1="8.305" y2="51.134" gradientTransform="matrix(1 0 0 -1 0 66)" gradientUnits="userSpaceOnUse"><stop offset="0" stop-color="#fd6b53"/><stop offset=".007" stop-color="#fd6b53"/><stop offset=".989" stop-color="#f96599"/><stop offset="1" stop-color="#f96599"/></linearGradient><path fill="url(#Og_hqzh18BNlCzRHPjgUdj)" d="M24.99,42.24c0.15,1.5-1.02,2.76-2.49,2.76h-7.47C14.39,44.28,14,43.35,14,42.32v-5.58c0-1.71,1.07-3.17,2.58-3.74H18c1.21,0,2.18,1.08,1.97,2.34C19.81,36.32,18.89,37,17.89,37H17.5c-0.83,0-1.5,0.67-1.5,1.5s0.67,1.5,1.5,1.5h4.86C23.67,40,24.86,40.94,24.99,42.24z"/></svg>