<svg xmlns="http://www.w3.org/2000/svg" viewBox="0 0 64 64"><radialGradient id="TlMmMdMYnkGyFG~pcUmR5a" cx="25.128" cy="33.638" r="32.027" gradientTransform="matrix(1 0 0 -1 0 66)" gradientUnits="userSpaceOnUse"><stop offset="0" stop-color="#f4e9c3"/><stop offset=".219" stop-color="#f8eecd"/><stop offset=".644" stop-color="#fdf4dc"/><stop offset="1" stop-color="#fff6e1"/></radialGradient><path fill="url(#TlMmMdMYnkGyFG~pcUmR5a)" d="M62.95,22.43C62.98,22.62,63,22.81,63,23c0,1.66-1.34,3-3,3H50c-0.83,0-1.58,0.34-2.12,0.88S47,28.17,47,29s0.34,1.58,0.88,2.12S49.17,32,50,32h2c2.34,0,4.21,2.01,3.98,4.39c-0.2,2.08-2.06,3.61-4.15,3.61H42.5c-0.69,0-1.32,0.28-1.77,0.73S40,41.81,40,42.5c0,1.38,1.12,2.5,2.5,2.5H43c1.71,0,3.08,1.42,3,3.16C45.91,49.78,44.46,51,42.84,51H37.5c-1.46,0-2.62,1.24-2.49,2.73c0.11,1.31,1.31,2.27,2.63,2.27H38c1.71,0,3.08,1.42,3,3.16C40.91,60.78,39.46,62,37.84,62H3c-2.28,0-3.95-2.52-2.4-4.93C1.1,56.3,2.02,55.98,2.94,56c0.58,0.01,1.1-0.21,1.47-0.59C4.78,55.05,5,54.55,5,54c0-1.1-0.9-2-2-2c-0.83,0-1.58-0.34-2.12-0.88c-0.59-0.59-0.94-1.42-0.87-2.34C0.12,47.18,1.57,46,3.17,46H5.5c1.46,0,2.62-1.24,2.49-2.73C7.88,41.96,6.68,41,5.36,41H3.5c-1.46,0-2.62-1.24-2.49-2.73C1.12,36.96,2.32,36,3.64,36H6.5c0.69,0,1.32-0.28,1.77-0.73c0.42-0.42,0.69-0.99,0.73-1.62C9.08,32.2,7.8,31,6.34,31H6c-1.85,0-3.31-1.68-2.94-3.59C3.33,25.98,4.66,25,6.11,25H17.5c0.69,0,1.32-0.28,1.77-0.73c0.42-0.42,0.69-0.99,0.73-1.62C20.08,21.2,18.8,20,17.34,20H16.5c-1.93,0-3.5-1.57-3.5-3.5c0-0.18,0.01-0.36,0.05-0.53c0.11-0.75,0.46-1.43,0.98-1.94C14.66,13.39,15.54,13,16.5,13h11.94c0.68,0,1.3-0.28,1.76-0.72c0.48-0.48,0.77-1.15,0.74-1.91C30.88,9.02,29.68,8,28.33,8H28c-1.85,0-3.31-1.68-2.94-3.59C25.33,2.98,26.66,2,28.11,2h32.25c1.2,0,2.32,0.78,2.58,1.95c0.2,0.89-0.1,1.73-0.66,2.3C61.84,6.7,61.22,6.98,60.54,7H60.5C59.67,7,59,7.67,59,8.5s0.67,1.5,1.5,1.5H61c1.71,0,3.08,1.42,3,3.16C63.91,14.78,62.46,16,60.84,16H57c-1.21,0-2.18,1.09-1.97,2.34c0.16,0.98,1.1,1.66,2.09,1.66H60c0.83,0,1.58,0.34,2.12,0.88C62.53,21.29,62.83,21.83,62.95,22.43z"/><radialGradient id="TlMmMdMYnkGyFG~pcUmR5b" cx="25.128" cy="33.638" r="32.027" gradientTransform="matrix(1 0 0 -1 0 66)" gradientUnits="userSpaceOnUse"><stop offset="0" stop-color="#f4e9c3"/><stop offset=".219" stop-color="#f8eecd"/><stop offset=".644" stop-color="#fdf4dc"/><stop offset="1" stop-color="#fff6e1"/></radialGradient><path fill="url(#TlMmMdMYnkGyFG~pcUmR5b)" d="M47,62L47,62c-1.657,0-3-1.343-3-3l0,0c0-1.657,1.343-3,3-3l0,0c1.657,0,3,1.343,3,3l0,0C50,60.657,48.657,62,47,62z"/><radialGradient id="TlMmMdMYnkGyFG~pcUmR5c" cx="25.128" cy="33.638" r="32.027" gradientTransform="matrix(1 0 0 -1 0 66)" gradientUnits="userSpaceOnUse"><stop offset="0" stop-color="#f4e9c3"/><stop offset=".219" stop-color="#f8eecd"/><stop offset=".644" stop-color="#fdf4dc"/><stop offset="1" stop-color="#fff6e1"/></radialGradient><path fill="url(#TlMmMdMYnkGyFG~pcUmR5c)" d="M6.5,20L6.5,20c1.933,0,3.5-1.567,3.5-3.5l0,0c0-1.933-1.567-3.5-3.5-3.5l0,0C4.567,13,3,14.567,3,16.5l0,0C3,18.433,4.567,20,6.5,20z"/><linearGradient id="TlMmMdMYnkGyFG~pcUmR5d" x1="26.689" x2="10.859" y1="10.915" y2="42.915" gradientTransform="matrix(1 0 0 -1 0 66)" gradientUnits="userSpaceOnUse"><stop offset="0" stop-color="#155cde"/><stop offset=".278" stop-color="#1f7fe5"/><stop offset=".569" stop-color="#279ceb"/><stop offset=".82" stop-color="#2cafef"/><stop offset="1" stop-color="#2eb5f0"/></linearGradient><path fill="url(#TlMmMdMYnkGyFG~pcUmR5d)" d="M23.515,29.698c2.945,0,5.89,1.12,8.132,3.361c0,0.001,0,0.001,0.001,0.001c4.482,4.484,4.482,11.779,0,16.264l-4.951,4.949c-4.483,4.485-11.779,4.483-16.263,0s-4.484-11.779,0-16.263l4.949-4.95C17.625,30.819,20.57,29.698,23.515,29.698z M26.697,38.01c-1.756-1.754-4.611-1.755-6.365,0.001l-4.949,4.949c-1.754,1.755-1.754,4.609,0,6.364c1.756,1.753,4.608,1.755,6.364,0l4.95-4.949C28.451,42.62,28.451,39.765,26.697,38.01z"/><linearGradient id="TlMmMdMYnkGyFG~pcUmR5e" x1="50.199" x2="33.688" y1="35.04" y2="65.168" gradientTransform="matrix(1 0 0 -1 0 66)" gradientUnits="userSpaceOnUse"><stop offset="0" stop-color="#155cde"/><stop offset=".278" stop-color="#1f7fe5"/><stop offset=".569" stop-color="#279ceb"/><stop offset=".82" stop-color="#2cafef"/><stop offset="1" stop-color="#2eb5f0"/></linearGradient><path fill="url(#TlMmMdMYnkGyFG~pcUmR5e)" d="M46.849,6.363c2.945,0,5.89,1.121,8.132,3.363c4.484,4.483,4.484,11.779,0,16.263l-4.949,4.95c-4.481,4.484-11.778,4.483-16.264,0.001c-4.483-4.485-4.483-11.781,0-16.265l4.95-4.949C40.959,7.484,43.904,6.363,46.849,6.363z M41.899,27.306c1.152,0,2.305-0.438,3.183-1.315l4.949-4.95c1.754-1.755,1.754-4.609,0-6.364c-1.755-1.754-4.607-1.754-6.364,0l-4.95,4.949c-1.754,1.755-1.754,4.61,0.001,6.365C39.595,26.867,40.747,27.306,41.899,27.306z"/><linearGradient id="TlMmMdMYnkGyFG~pcUmR5f" x1="34.984" x2="29.792" y1="31.574" y2="37.106" gradientTransform="matrix(1 0 0 -1 0 66)" gradientUnits="userSpaceOnUse"><stop offset="0" stop-color="#155cde"/><stop offset=".278" stop-color="#1f7fe5"/><stop offset=".569" stop-color="#279ceb"/><stop offset=".82" stop-color="#2cafef"/><stop offset="1" stop-color="#2eb5f0"/></linearGradient><path fill="url(#TlMmMdMYnkGyFG~pcUmR5f)" d="M39.071,22.136c0.896,0,1.791,0.342,2.475,1.025c1.367,1.366,1.367,3.583,0,4.949L28.817,40.839c-1.367,1.367-3.582,1.367-4.949,0c-1.367-1.366-1.367-3.583,0-4.949l12.728-12.728C37.28,22.478,38.176,22.136,39.071,22.136z"/></svg>