<svg xmlns="http://www.w3.org/2000/svg" viewBox="0 0 64 64"><radialGradient id="EegnG5cl3ZXwcGB_z6q9Ra" cx="32.5" cy="32" r="31.751" gradientUnits="userSpaceOnUse" spreadMethod="reflect"><stop offset="0" stop-color="#f4e9c3"/><stop offset=".219" stop-color="#f8eecd"/><stop offset=".644" stop-color="#fdf4dc"/><stop offset="1" stop-color="#fff6e1"/></radialGradient><path fill="url(#EegnG5cl3ZXwcGB_z6q9Ra)" d="M45.997,5l5.408,0c1.139,0,2.206-0.719,2.505-1.818C54.361,1.521,53.101,0,51.5,0L7.595,0 C6.456,0,5.39,0.719,5.091,1.818C4.639,3.479,5.899,5,7.5,5h3c0.69,0,1.32,0.28,1.77,0.73c0.417,0.417,0.688,0.988,0.725,1.618 C13.083,8.804,11.799,10,10.34,10l-6.209,0c-1.451,0-2.789,0.972-3.071,2.395C0.681,14.307,2.152,16,4,16h2v28l-0.288,0 c-2.347,0-4.453,1.704-4.689,4.038C0.752,50.718,2.873,53,5.5,53l18.855,0c1.308,0,2.5,0.94,2.631,2.241 C27.138,56.737,25.965,58,24.5,58l-5.335,0c-1.626,0-3.079,1.221-3.161,2.844C15.917,62.575,17.288,64,19,64l39.835,0 c1.626,0,3.079-1.221,3.161-2.844C62.083,59.425,60.712,58,59,58l-5.355,0c-1.308,0-2.5-0.94-2.631-2.241 C50.862,54.263,52.035,53,53.5,53l3.788,0c2.347,0,4.453-1.704,4.689-4.039C62.247,46.282,60.127,44,57.5,44H57V25.997L61.411,26 c1.14,0,2.2-0.72,2.5-1.82c0.44-1.66-0.82-3.18-2.41-3.18H56c-1.105,0-2-0.895-2-2v0c0-1.105,0.895-2,2-2h3 c1.851,0,3.321-1.692,2.939-3.603c-0.285-1.425-1.624-2.397-3.077-2.397l-12.867-0.006C44.341,10.993,43,9.652,43,7.997v0 C43,6.342,44.342,5,45.997,5z"/><linearGradient id="EegnG5cl3ZXwcGB_z6q9Rb" x1="31.526" x2="31.526" y1="68.727" y2="2.754" gradientUnits="userSpaceOnUse" spreadMethod="reflect"><stop offset="0" stop-color="#155cde"/><stop offset="1" stop-color="#2eb5f0"/></linearGradient><path fill="url(#EegnG5cl3ZXwcGB_z6q9Rb)" d="M6,52V23h51c0.552,0,1,0.448,1,1v28c0,1.657-1.343,3-3,3H9C7.343,55,6,53.657,6,52z M5.093,17.865L6,23l51.013-8.393c0.545-0.09,0.914-0.605,0.824-1.15l-0.629-3.81c-0.282-1.71-1.897-2.866-3.607-2.584L7.33,14.706 C5.836,14.953,4.83,16.373,5.093,17.865z"/><linearGradient id="EegnG5cl3ZXwcGB_z6q9Rc" x1="31.451" x2="31.451" y1="23.68" y2="1.708" gradientUnits="userSpaceOnUse" spreadMethod="reflect"><stop offset="0" stop-color="#0d47a1"/><stop offset=".365" stop-color="#135fba"/><stop offset=".734" stop-color="#1770cc"/><stop offset="1" stop-color="#1976d2"/></linearGradient><path fill="url(#EegnG5cl3ZXwcGB_z6q9Rc)" d="M57.208,9.647c-0.282-1.71-1.897-2.866-3.607-2.584l-46.27,7.643 c-1.495,0.247-2.5,1.667-2.237,3.159L6,23l51.013-8.393c0.545-0.09,0.914-0.605,0.824-1.15L57.208,9.647z"/><linearGradient id="EegnG5cl3ZXwcGB_z6q9Rd" x1="32" x2="32" y1="31.341" y2="20.34" gradientUnits="userSpaceOnUse" spreadMethod="reflect"><stop offset="0" stop-color="#0d47a1"/><stop offset=".365" stop-color="#135fba"/><stop offset=".734" stop-color="#1770cc"/><stop offset="1" stop-color="#1976d2"/></linearGradient><path fill="url(#EegnG5cl3ZXwcGB_z6q9Rd)" d="M58,31v-7c0-0.552-0.448-1-1-1H6v8H58z"/><linearGradient id="EegnG5cl3ZXwcGB_z6q9Re" x1="31.882" x2="31.882" y1="31" y2="7.367" gradientUnits="userSpaceOnUse" spreadMethod="reflect"><stop offset="0" stop-color="#b6c9e4"/><stop offset="1" stop-color="#b9d4ef"/></linearGradient><path fill="url(#EegnG5cl3ZXwcGB_z6q9Re)" d="M20,23h5l-5,8h-5L20,23z M6,27.8V31h3l5-8H9L6,27.8z M37,31h5l5-8h-5L37,31z M26,31h5l5-8h-5 L26,31z M57,23h-4l-5,8h5l4.764-7.623C57.581,23.152,57.313,23,57,23z M19.204,12.745l-4.933,0.815l6.237,7.078l4.933-0.815 L19.204,12.745z M40.91,9.159l-4.933,0.815l6.237,7.078l4.933-0.815L40.91,9.159z M57.705,14.11l-5.942-6.744L46.83,8.181 l6.234,7.075l3.948-0.65C57.321,14.556,57.561,14.362,57.705,14.11z M30.057,10.952l-4.933,0.815l6.237,7.078l4.933-0.815 L30.057,10.952z M9.256,17.02c-0.817,0.135-1.37,0.907-1.235,1.724c0.135,0.817,0.907,1.37,1.724,1.235 c0.817-0.135,1.37-0.907,1.235-1.724S10.073,16.885,9.256,17.02z"/><linearGradient id="EegnG5cl3ZXwcGB_z6q9Rf" x1="47" x2="47" y1="54.581" y2="38.962" gradientUnits="userSpaceOnUse" spreadMethod="reflect"><stop offset="0" stop-color="#1663ca"/><stop offset=".989" stop-color="#1c7bda"/></linearGradient><path fill="url(#EegnG5cl3ZXwcGB_z6q9Rf)" d="M38,41c0-1.657,1.343-3,3-3s3,1.343,3,3s-1.343,3-3,3S38,42.657,38,41z M58,38v6v8 c0,1.657-1.343,3-3,3H39c-1.657,0-3-1.343-3-3s1.343-3,3-3h10.5c1.381,0,2.5-1.119,2.5-2.5c0-1.381-1.119-2.5-2.5-2.5H49 c-1.657,0-3-1.343-3-3s1.343-3,3-3H58z"/><linearGradient id="EegnG5cl3ZXwcGB_z6q9Rg" x1="13" x2="13" y1="45" y2="31" gradientUnits="userSpaceOnUse" spreadMethod="reflect"><stop offset="0" stop-color="#358ae8"/><stop offset=".989" stop-color="#399aea"/></linearGradient><path fill="url(#EegnG5cl3ZXwcGB_z6q9Rg)" d="M13.5,45c1.381,0,2.5-1.119,2.5-2.5c0-1.381-1.119-2.5-2.5-2.5h-1c-1.381,0-2.5-1.119-2.5-2.5 c0-1.381,1.119-2.5,2.5-2.5H18c1.105,0,2-0.895,2-2c0-1.105-0.895-2-2-2H6v14H13.5z"/></svg>