<svg xmlns="http://www.w3.org/2000/svg" baseProfile="basic" viewBox="0 0 64 64"><radialGradient id="j7R3ItTVOAHoZJ1ANWbkHa" cx="-436" cy="443.195" r="15.151" gradientTransform="matrix(2 0 0 2 904 -854.89)" gradientUnits="userSpaceOnUse"><stop offset="0" stop-color="#f7e9c2"/><stop offset=".219" stop-color="#fbeecc"/><stop offset=".644" stop-color="#fff3db"/><stop offset="1" stop-color="#fff5e0"/></radialGradient><path fill="url(#j7R3ItTVOAHoZJ1ANWbkHa)" d="M63.99,35.31C64.1,37.33,62.5,39,60.5,39h-9.48C51.009,39,51,39.009,51,39.02v5.96 c0,0.011,0.009,0.02,0.02,0.02h9.48c1.58,0,2.81,1.46,2.43,3.11C62.66,49.25,61.54,50,60.37,50H59.5c-0.825,0-1.5,0.675-1.5,1.5 l0,0c0,0.825,0.675,1.5,1.5,1.5l0,0c2,0,3.6,1.67,3.49,3.69C62.9,58.58,61.2,60,59.3,60H4c-2.48,0-4.43-2.26-3.92-4.82 C0.47,53.29,2.25,52,4.18,52H5c2.92,0,5.26-2.51,4.98-5.49C9.73,43.91,7.4,42,4.78,42H4c-2.48,0-4.43-2.26-3.92-4.82 C0.47,35.29,2.07,34,4,34l0,0c1.301,0,2.332-1.252,1.899-2.634C5.633,30.52,4.776,30,3.89,30H3.5c-2,0-3.6-1.67-3.49-3.69 C0.1,24.42,1.8,23,3.7,23h7.28c0.011,0,0.02-0.009,0.02-0.02v-4.96c0-0.011-0.009-0.02-0.02-0.02H3.5 c-1.577,0-2.805-1.445-2.432-3.091C1.329,13.757,2.448,13,3.63,13H4.5C5.33,13,6,12.33,6,11.5S5.33,10,4.5,10h-1 c-2,0-3.6-1.67-3.49-3.69C0.1,4.42,1.8,3,3.7,3H60c2.34,0,4.21,2.01,3.98,4.39c-0.19,2.05-2,3.56-4.04,3.61H58.5 c-2.485,0-4.5,2.015-4.5,4.5l0,0c0,2.485,0,4.5,0,4.5h6c2.48,0,4.43,2.26,3.92,4.82C63.53,26.71,61.93,28,60,28l0,0 c-1.1,0-2,0.9-2,2l0,0c0,1.1,0.9,2,2,2h0.3C62.2,32,63.9,33.42,63.99,35.31z"/><linearGradient id="j7R3ItTVOAHoZJ1ANWbkHb" x1="32" x2="32" y1="-4.426" y2="67.347" gradientUnits="userSpaceOnUse"><stop offset="0" stop-color="#ff5840"/><stop offset=".007" stop-color="#ff5840"/><stop offset=".989" stop-color="#fa528c"/><stop offset="1" stop-color="#fa528c"/></linearGradient><path fill="url(#j7R3ItTVOAHoZJ1ANWbkHb)" d="M56,17v30c0,4.97-4.03,9-9,9H17 c-4.97,0-9-4.03-9-9V17c0-4.97,4.03-9,9-9h30C51.97,8,56,12.03,56,17z"/><linearGradient id="j7R3ItTVOAHoZJ1ANWbkHc" x1="16.46" x2="16.46" y1="-10.901" y2="76.31" gradientUnits="userSpaceOnUse"><stop offset="0" stop-color="#ff6953"/><stop offset=".007" stop-color="#ff6953"/><stop offset=".989" stop-color="#fb6498"/><stop offset="1" stop-color="#fb6498"/></linearGradient><path fill="url(#j7R3ItTVOAHoZJ1ANWbkHc)" d="M24.92,8.38c0,0.76-0.62,1.37-1.38,1.37 h-6.12c-0.51,0-0.97,0.2-1.3,0.54c-0.33,0.33-0.54,0.79-0.54,1.29c0,1.01,0.83,1.84,1.84,1.84h0.46c1.34,0,2.41,1.15,2.28,2.53 C20.04,17.14,18.95,18,17.75,18H8v-1c0-4.97,4.03-9,9-9h7.86C24.9,8.12,24.92,8.25,24.92,8.38z"/><linearGradient id="j7R3ItTVOAHoZJ1ANWbkHd" x1="47.501" x2="47.501" y1="35.693" y2="70.439" gradientUnits="userSpaceOnUse"><stop offset="0" stop-color="#ff6953"/><stop offset=".007" stop-color="#ff6953"/><stop offset=".989" stop-color="#fb6498"/><stop offset="1" stop-color="#fb6498"/></linearGradient><path fill="url(#j7R3ItTVOAHoZJ1ANWbkHd)" d="M56,45v2c0,4.97-4.03,9-9,9h-7.73 c-0.12-0.2-0.2-0.42-0.24-0.66C38.82,54.09,39.79,53,41,53h8.5c0.83,0,1.5-0.67,1.5-1.5c0-0.83-0.67-1.5-1.5-1.5h-0.86 c-1.3,0-2.5-0.94-2.63-2.24C45.86,46.26,47.03,45,48.5,45H56z"/><g><path fill="#fff" d="M24,22.084V38c0,0.552-0.448,1-1,1h-1c-3,0-5,1.767-5,4c0,3,2.629,4,5.629,4c3,0,5.371-2,5.371-7 l0.061-12.766c0-0.627,0.434-1.171,1.045-1.311l8.671-1.986C38.403,23.793,39,24.269,39,24.912V34c0,0.552-0.448,1-1,1h-1 c-3,0-5,1.767-5,4c0,3,2.567,3.957,5.568,3.957S43,41,43,36l0,0V16.594c0-1.311-1.241-2.268-2.509-1.934l-13.509,3.555 C25.225,18.678,24,20.266,24,22.084z"/></g></svg>