<svg xmlns="http://www.w3.org/2000/svg" viewBox="0 0 64 64"><radialGradient id="UN_F4eZR0u53SXtcWAUm_a" cx="32.001" cy="34" r="32" gradientTransform="matrix(1 0 0 -1 0 66)" gradientUnits="userSpaceOnUse"><stop offset="0" stop-color="#afeeff"/><stop offset=".193" stop-color="#bbf1ff"/><stop offset=".703" stop-color="#d7f8ff"/><stop offset="1" stop-color="#e1faff"/></radialGradient><path fill="url(#UN_F4eZR0u53SXtcWAUm_a)" d="M51.001,42.69c0.1,1.89,1.8,3.31,3.7,3.31h3.3c2.33,0,4.22,2.03,3.98,4.41c-0.21,2.08-2.08,3.59-4.17,3.59h-2.31c-0.69,0-1.32,0.28-1.77,0.73s-0.73,1.08-0.73,1.77c0,1.38,1.12,2.5,2.5,2.5h1c1.47,0,2.64,1.26,2.49,2.76c-0.13,1.3-1.33,2.24-2.63,2.24H8.501c-1.47,0-2.64-1.26-2.49-2.76c0.13-1.3,1.33-2.24,2.63-2.24h0.36c0.55,0,1.05-0.22,1.41-0.59c0.37-0.36,0.59-0.86,0.59-1.41c0-1.1-0.9-2-2-2h-3.5c-1.47,0-2.64-1.26-2.49-2.76c0.13-1.3,1.33-2.24,2.63-2.24h1.36c1.22,0,2.18-1.08,1.97-2.34C8.811,46.68,7.891,46,6.891,46h-2.39c-2.49,0-4.5-2.01-4.5-4.5s2.01-4.5,4.5-4.5h11c0.69,0,1.32-0.28,1.77-0.73s0.73-1.08,0.73-1.77c0-1.38-1.12-2.5-2.5-2.5h-11.5c-2.34,0-4.22-2.03-3.98-4.41c0.21-2.08,2.08-3.59,4.17-3.59h3.31c1.99,0,3.6-1.67,3.49-3.69c-0.09-1.89-1.79-3.31-3.69-3.31h-0.3c-2.34,0-4.22-2.03-3.98-4.41C3.231,10.51,5.101,9,7.191,9h7.812c1.22,0,2.18-1.08,1.97-2.34C16.813,5.68,15.893,5,14.893,5h-5.39c-1.47,0-2.64-1.26-2.49-2.76C7.143,0.94,8.343,0,9.643,0h42.854c1.47,0,2.64,1.26,2.49,2.76c-0.13,1.3-1.33,2.24-2.63,2.24h-2.86c-0.83,0-1.5,0.67-1.5,1.5s0.67,1.5,1.5,1.5h8.973c1.47,0,2.64,1.26,2.49,2.76c-0.13,1.3-1.33,2.24-2.63,2.24h-0.36c-1.22,0-2.18,1.08-1.97,2.34c0.16,0.98,1.08,1.66,2.08,1.66h0.731c2.09,0,3.96,1.51,4.17,3.59c0.24,2.38-1.65,4.41-3.98,4.41h-3c-0.83,0-1.58,0.34-2.12,0.88c-0.54,0.54-0.88,1.29-0.88,2.12c0,1.66,1.34,3,3,3h4c2.33,0,4.22,2.03,3.98,4.41c-0.21,2.08-2.08,3.59-4.17,3.59h-5.31C52.511,39,50.901,40.67,51.001,42.69z"/><linearGradient id="UN_F4eZR0u53SXtcWAUm_b" x1="32.001" x2="32.001" y1="5.648" y2="58.357" gradientTransform="matrix(1 0 0 -1 0 64)" gradientUnits="userSpaceOnUse"><stop offset="0" stop-color="#feaa53"/><stop offset=".612" stop-color="#ffcd49"/><stop offset="1" stop-color="#ffde44"/></linearGradient><path fill="url(#UN_F4eZR0u53SXtcWAUm_b)" d="M57.82,25.13c-0.79-2.9-2.06-5.62-3.77-8.07c-0.49-0.71-1.02-1.4-1.58-2.06c-0.88-1.03-1.84-1.99-2.88-2.88c-5.23-4.54-12.02-6.84-18.93-6.43C17.45,6.55,6.92,17.08,6.06,30.3c-0.49,7.28,2.09,14.43,7.1,19.72c6.47,6.9,16.13,9.81,25.33,7.61c3.4-0.76,6.11-3.35,7.03-6.71c0.99-3.38,0.03-7.02-2.48-9.5l-1.03-1.04c-0.12-0.12-0.24-0.25-0.34-0.38c-0.24-0.3-0.43-0.63-0.58-0.97c-0.71-1.6-0.4-3.54,0.91-4.86c0.82-0.82,1.91-1.28,3.07-1.29h6.78c3.39,0,6.15-2.75,6.15-6.15C58.01,26.19,57.95,25.66,57.82,25.13z"/><linearGradient id="UN_F4eZR0u53SXtcWAUm_c" x1="19" x2="19" y1="28" y2="20" gradientTransform="matrix(1 0 0 -1 0 64)" gradientUnits="userSpaceOnUse"><stop offset="0" stop-color="#42d778"/><stop offset=".996" stop-color="#34b171"/><stop offset="1" stop-color="#34b171"/></linearGradient><path fill="url(#UN_F4eZR0u53SXtcWAUm_c)" d="M19,36c-2.209,0-4,1.791-4,4s1.791,4,4,4s4-1.791,4-4S21.209,36,19,36z"/><linearGradient id="UN_F4eZR0u53SXtcWAUm_d" x1="42" x2="42" y1="42" y2="50" gradientTransform="matrix(1 0 0 -1 0 64)" gradientUnits="userSpaceOnUse"><stop offset="0" stop-color="#ff634d"/><stop offset=".208" stop-color="#fd6464"/><stop offset=".522" stop-color="#fc6582"/><stop offset=".793" stop-color="#fa6694"/><stop offset=".989" stop-color="#fa669a"/><stop offset="1" stop-color="#fa669a"/></linearGradient><path fill="url(#UN_F4eZR0u53SXtcWAUm_d)" d="M42,14c-2.209,0-4,1.791-4,4s1.791,4,4,4s4-1.791,4-4S44.209,14,42,14z"/><linearGradient id="UN_F4eZR0u53SXtcWAUm_e" x1="18" x2="18" y1="34" y2="42" gradientTransform="matrix(1 0 0 -1 0 64)" gradientUnits="userSpaceOnUse"><stop offset="0" stop-color="#155cde"/><stop offset=".158" stop-color="#196ce1"/><stop offset=".724" stop-color="#28a1ec"/><stop offset="1" stop-color="#2eb5f0"/></linearGradient><path fill="url(#UN_F4eZR0u53SXtcWAUm_e)" d="M18,22c-2.209,0-4,1.791-4,4s1.791,4,4,4s4-1.791,4-4S20.209,22,18,22z"/><linearGradient id="UN_F4eZR0u53SXtcWAUm_f" x1="28" x2="28" y1="44" y2="52" gradientTransform="matrix(1 0 0 -1 0 64)" gradientUnits="userSpaceOnUse"><stop offset="0" stop-color="#7363de"/><stop offset=".342" stop-color="#7880e5"/><stop offset=".775" stop-color="#7da0ec"/></linearGradient><path fill="url(#UN_F4eZR0u53SXtcWAUm_f)" d="M28,12c-2.209,0-4,1.791-4,4s1.791,4,4,4s4-1.791,4-4S30.209,12,28,12z"/><path fill="#fff" d="M32,42c-2.761,0-5,2.239-5,5s2.239,5,5,5s5-2.239,5-5S34.761,42,32,42z"/><linearGradient id="UN_F4eZR0u53SXtcWAUm_g" x1="27" x2="32" y1="26.5" y2="26.5" gradientTransform="matrix(1 0 0 -1 0 64)" gradientUnits="userSpaceOnUse"><stop offset="0" stop-color="#ffda76"/><stop offset=".335" stop-color="#ffe075"/><stop offset="1" stop-color="#ffe673"/></linearGradient><path fill="url(#UN_F4eZR0u53SXtcWAUm_g)" d="M29.5,35c1.382,0,2.5,1.119,2.5,2.5c0,1.382-1.117,2.5-2.5,2.5S27,38.882,27,37.5C27,36.119,28.118,35,29.5,35"/><linearGradient id="UN_F4eZR0u53SXtcWAUm_h" x1="30" x2="58.001" y1="36.5" y2="36.5" gradientTransform="matrix(1 0 0 -1 0 64)" gradientUnits="userSpaceOnUse"><stop offset="0" stop-color="#ffda76"/><stop offset=".335" stop-color="#ffe075"/><stop offset="1" stop-color="#ffe673"/></linearGradient><path fill="url(#UN_F4eZR0u53SXtcWAUm_h)" d="M58,26.73c0,3.4-2.76,6.15-6.15,6.15h-6.78c-1.16,0.01-2.25,0.47-3.07,1.29c-1.31,1.32-1.62,3.26-0.91,4.86c0.15,0.34,0.34,0.67,0.58,0.97H36.5c-1.38,0-2.5-1.12-2.5-2.5s1.12-2.5,2.5-2.5h1c1.38,0,2.5-1.12,2.5-2.5S38.88,30,37.5,30h-5c-1.38,0-2.5-1.12-2.5-2.5s1.12-2.5,2.5-2.5h20c1.38,0,2.5-1.12,2.5-2.5S53.88,20,52.5,20h-1c-1.38,0-2.5-1.12-2.5-2.5s1.12-2.5,2.5-2.5h0.97c0.56,0.66,1.09,1.35,1.58,2.06c1.71,2.45,2.98,5.17,3.77,8.07C57.95,25.66,58.01,26.19,58,26.73z"/></svg>