<svg xmlns="http://www.w3.org/2000/svg" baseProfile="basic" viewBox="0 0 64 64"><radialGradient id="lGqNTG_-QxEQeRoGn_jlQa" cx="31" cy="162.5" r="29.751" gradientTransform="matrix(1 0 0 -1 0 194)" gradientUnits="userSpaceOnUse"><stop offset="0" stop-color="#efdcb1"/><stop offset="0" stop-color="#efdcb1"/><stop offset=".092" stop-color="#f2e0b9"/><stop offset=".415" stop-color="#f9eccf"/><stop offset=".724" stop-color="#fdf4dc"/><stop offset="1" stop-color="#fff6e1"/></radialGradient><path fill="url(#lGqNTG_-QxEQeRoGn_jlQa)" d="M54.764,32h-0.477H52c-1.71,0-3.086-1.431-2.996-3.161C49.089,27.216,50.545,26,52.17,26h4.33c2.627,0,4.747-2.282,4.477-4.962C60.741,18.704,58.634,17,56.288,17h-8.181c-0.996,0-1.92-0.681-2.08-1.664C45.824,14.083,46.785,13,48,13h1.264c2.873,0,5.438-2.1,5.71-4.96C55.287,4.76,52.716,2,49.5,2h-10H32H6.5C3.289,2,0.697,4.789,1.029,8.064C1.317,10.918,3.891,13,6.759,13H8c1.71,0,3.086,1.431,2.996,3.161C10.911,17.784,9.455,19,7.83,19H7.5c-3.211,0-5.803,2.789-5.471,6.064C2.317,27.918,4.891,30,7.759,30H12c1.215,0,2.176,1.083,1.973,2.336C13.813,33.319,12.889,34,11.893,34H8.5c-2.627,0-4.747,2.282-4.477,4.962C4.259,41.296,6.366,43,8.712,43H17c2.209,0,4,1.791,4,4l0,0c0,2.209-1.791,4-4,4h-5.764c-2.607,0-4.947,1.893-5.21,4.487C5.725,58.465,8.081,61,11,61h8h21h6h5.775c3.046,0,5.772-2.174,6.172-5.193C58.43,52.152,55.565,49,52,49h-4.5c-1.933,0-3.5-1.567-3.5-3.5l0,0c0-1.933,1.567-3.5,3.5-3.5H55c2.919,0,5.275-2.535,4.974-5.513C59.712,33.893,57.372,32,54.764,32z"/><linearGradient id="lGqNTG_-QxEQeRoGn_jlQb" x1="31.5" x2="31.5" y1="52.758" y2="10.33" gradientUnits="userSpaceOnUse"><stop offset="0" stop-color="#ff634d"/><stop offset=".204" stop-color="#fe6464"/><stop offset=".521" stop-color="#fc6581"/><stop offset=".794" stop-color="#fa6694"/><stop offset=".989" stop-color="#fa669a"/><stop offset="1" stop-color="#fa669a"/></linearGradient><path fill="url(#lGqNTG_-QxEQeRoGn_jlQb)" d="M46,10H17c-2.209,0-4,1.791-4,4c0,2.209,1.791,4,4,4h9v29.5c0,3.038,2.462,5.5,5.5,5.5s5.5-2.462,5.5-5.5V18h9c2.209,0,4-1.791,4-4C50,11.791,48.209,10,46,10z"/></svg>