<svg xmlns="http://www.w3.org/2000/svg" viewBox="0 0 64 64"><radialGradient id="EjaaazIVlAnYcXOralA5La" cx="369.787" cy="286.617" r="19.951" gradientTransform="rotate(180 200 160)" gradientUnits="userSpaceOnUse"><stop offset="0" stop-color="#f4e9c3"/><stop offset=".219" stop-color="#f8eecd"/><stop offset=".644" stop-color="#fdf4dc"/><stop offset="1" stop-color="#fff6e1"/></radialGradient><path fill="url(#EjaaazIVlAnYcXOralA5La)" d="M64.002,5L64.002,5c0-2.209-1.791-4-4-4l0,0c-2.209,0-4,1.791-4,4l0,0c0,2.209,1.791,4,4,4l0,0C62.211,9,64.002,7.209,64.002,5z"/><radialGradient id="EjaaazIVlAnYcXOralA5Lb" cx="368.501" cy="287.851" r="23.894" gradientTransform="rotate(180 200 160)" gradientUnits="userSpaceOnUse"><stop offset="0" stop-color="#f4e9c3"/><stop offset=".219" stop-color="#f8eecd"/><stop offset=".644" stop-color="#fdf4dc"/><stop offset="1" stop-color="#fff6e1"/></radialGradient><path fill="url(#EjaaazIVlAnYcXOralA5Lb)" d="M12.502,43h-8.5c-2.342,0-4.214-2.013-3.979-4.397C0.227,36.523,2.098,35,4.188,35h5.073c3.097,0,5.813-2.534,5.74-5.63c-0.035-1.469-0.648-2.799-1.609-3.76c-0.99-0.99-2.37-1.61-3.89-1.61h-4.81c-2.35,0-4.45-1.72-4.67-4.06c-0.26-2.68,1.85-4.94,4.48-4.94h4.45c3.68,0,4.17-5.55,0.52-5.97C9.322,9.01,9.162,9,9.002,9H7.2C5.111,9,3.235,7.484,3.023,5.405C2.78,3.023,4.66,1,7.002,1h41.802c2.089,0,3.965,1.516,4.177,3.595C53.224,6.977,51.344,9,49.002,9h-1c-1.105,0-2,0.895-2,2l0,0c0,1.105,0.895,2,2,2h9.31c2.349,0,4.45,1.717,4.67,4.056C62.235,19.737,60.133,22,57.502,22h-8.209c-3.976,0-7.413,3.256-7.287,7.23c0.059,1.847,0.827,3.501,2.046,4.72c1.27,1.27,3.01,2.05,4.95,2.05h10.12c2.143,0,3.88,1.737,3.88,3.88v0.24c0,2.143-1.737,3.88-3.88,3.88h-8.12c-3.314,0-6,2.686-6,6l0,0c0,3.314,2.686,6,6,6l0,0v-0.01h5.51c0.06,0,0.12,0,0.18,0.01c1.85,0.1,3.31,1.62,3.31,3.49v0.01c0,1.933-1.567,3.5-3.5,3.5h-51.8c-1.9,0-3.6-1.42-3.7-3.31c-0.1-2.02,1.5-3.69,3.5-3.69h8c3.59,0,6.5-2.91,6.5-6.5l0,0C19.002,45.91,16.092,43,12.502,43z"/><linearGradient id="EjaaazIVlAnYcXOralA5Lc" x1="32" x2="32" y1="9" y2="53.456" gradientUnits="userSpaceOnUse"><stop offset="0" stop-color="#2eb5f0"/><stop offset=".401" stop-color="#279ceb"/><stop offset=".678" stop-color="#1f7fe5"/><stop offset="1" stop-color="#155cde"/></linearGradient><path fill="url(#EjaaazIVlAnYcXOralA5Lc)" d="M31.693,9C41.469,9,47,13.707,47,21.342c0,5.971-2.625,8.324-6.816,11.309c-3.575,2.526-3.184,3.387-4.637,5.396C34.408,39.624,32.754,40,31.078,40c-2.067,0-4.581-0.912-4.581-4.076c0-3.215,1.764-5.028,5.363-7.635c3.408-2.469,4.86-3.732,4.86-6.429c0-2.584-1.788-4.478-5.14-4.478c-2.682,0-4.414,1.091-5.419,3.33c-0.782,1.722-2.402,2.871-4.358,2.871c-2.625,0-4.804-2.239-4.804-4.937C17,12.504,24.731,9,31.693,9z M30.24,44h1.564c2.681,0,4.86,2.229,4.86,5.029c0,2.743-2.179,4.971-4.86,4.971H30.24c-2.682,0-4.861-2.229-4.861-5.028C25.38,46.229,27.559,44,30.24,44z"/></svg>