<svg xmlns="http://www.w3.org/2000/svg" viewBox="0 0 64 64"><radialGradient id="iu21HXeAuZ1tit56C5cRla" cx="32.5" cy="31.5" r="30.516" gradientUnits="userSpaceOnUse" spreadMethod="reflect"><stop offset="0" stop-color="#afeeff"/><stop offset=".193" stop-color="#bbf1ff"/><stop offset=".703" stop-color="#d7f8ff"/><stop offset="1" stop-color="#e1faff"/></radialGradient><path fill="url(#iu21HXeAuZ1tit56C5cRla)" d="M59,20h1.5c2.168,0,3.892-1.998,3.422-4.243C63.58,14.122,62.056,13,60.385,13L53,13 c-1.105,0-2-0.895-2-2c0-1.105,0.895-2,2-2h3.385c1.67,0,3.195-1.122,3.537-2.757C60.392,3.998,58.668,2,56.5,2H34.006H32.5h-24 C6.575,2,5,3.575,5,5.5S6.575,9,8.5,9H10c1.105,0,2,0.895,2,2c0,1.105-0.895,2-2,2l-5.385,0c-1.67,0-3.195,1.122-3.537,2.757 C0.608,18.002,2.332,20,4.5,20H18v12L4.615,32c-1.67,0-3.195,1.122-3.537,2.757C0.608,37.002,2.332,39,4.5,39H5c1.105,0,2,0.895,2,2 c0,1.105-0.895,2-2,2H4.5c-2.168,0-3.892,1.998-3.422,4.243C1.42,48.878,2.945,50,4.615,50H10c1.105,0,2,0.895,2,2 c0,1.105-0.895,2-2,2l-1.385,0c-1.67,0-3.195,1.122-3.537,2.757C4.608,59.002,6.332,61,8.5,61h22.494H32.5h23 c1.925,0,3.5-1.575,3.5-3.5S57.425,54,55.5,54H55c-1.105,0-2-0.895-2-2c0-1.105,0.895-2,2-2h4.385c1.67,0,3.195-1.122,3.537-2.757 C63.392,44.998,61.668,43,59.5,43H47V31h12.385c1.67,0,3.195-1.122,3.537-2.757C63.392,25.998,61.668,24,59.5,24H59 c-1.105,0-2-0.895-2-2C57,20.895,57.895,20,59,20z"/><linearGradient id="iu21HXeAuZ1tit56C5cRlb" x1="32" x2="32" y1="64.025" y2="14.025" gradientUnits="userSpaceOnUse" spreadMethod="reflect"><stop offset="0" stop-color="#155cde"/><stop offset=".278" stop-color="#1f7fe5"/><stop offset=".569" stop-color="#279ceb"/><stop offset=".82" stop-color="#2cafef"/><stop offset="1" stop-color="#2eb5f0"/></linearGradient><path fill="url(#iu21HXeAuZ1tit56C5cRlb)" d="M57,31c0,13.805-11.195,25-25,25S7,44.805,7,31S18.195,6,32,6S57,17.195,57,31z"/><path fill="#fff" d="M18.525 27c.965 0 1.818-.568 2.256-1.428C22.765 21.677 26.805 19 31.467 19c5.213 0 9.647 3.347 11.3 8h5.207c-1.802-7.454-8.5-13-16.507-13-6.673 0-12.437 3.852-15.215 9.45C15.44 25.086 16.696 27 18.521 27H18.525zM32.075 43c-4.831 0-8.994-2.876-10.895-7h-5.355c2.136 6.947 8.603 12 16.25 12 6.188 0 11.602-3.308 14.575-8.251C47.642 38.101 46.401 36 44.479 36H44.46c-.881 0-1.684.472-2.142 1.224C40.211 40.682 36.413 43 32.075 43z"/><path fill="#fff" d="M39.44 25h10.12c.795 0 1.44.645 1.44 1.44v0c0 .36-.135.707-.378.973l-4.446 4.85C45.745 32.733 45.137 33 44.5 33h0c-.637 0-1.245-.267-1.676-.737l-4.446-4.85C38.135 27.147 38 26.8 38 26.44v0C38 25.645 38.645 25 39.44 25zM24.56 38H14.44C13.645 38 13 37.355 13 36.56v0c0-.36.135-.707.378-.973l4.446-4.85C18.255 30.267 18.863 30 19.5 30h0c.637 0 1.245.267 1.676.737l4.446 4.85C25.865 35.853 26 36.2 26 36.56v0C26 37.355 25.355 38 24.56 38z"/></svg>