<svg xmlns="http://www.w3.org/2000/svg" viewBox="0 0 64 64"><radialGradient id="6P2SpqyWM7IPfjjSus9kxa" cx="31.873" cy="35.569" r="50.261" gradientUnits="userSpaceOnUse" spreadMethod="reflect"><stop offset="0" stop-color="#afeeff"/><stop offset=".193" stop-color="#bbf1ff"/><stop offset=".703" stop-color="#d7f8ff"/><stop offset="1" stop-color="#e1faff"/></radialGradient><path fill="url(#6P2SpqyWM7IPfjjSus9kxa)" d="M58.5,38h2c1.925,0,3.5-1.575,3.5-3.5S62.425,31,60.5,31H54c-1.1,0-2-0.9-2-2c0-1.1,0.9-2,2-2 h5.5c1.925,0,3.5-1.575,3.5-3.5S61.425,20,59.5,20H59c-1.105,0-2-0.895-2-2c0-1.105,0.895-2,2-2h2c1.848,0,3.319-1.693,2.94-3.605 C63.657,10.972,62.32,10,60.869,10H53c-0.828,0-1.5-0.672-1.5-1.5S52.172,7,53,7h3.412c1.139,0,2.202-0.721,2.497-1.821 C59.355,3.516,58.096,2,56.5,2H34h-1.5h-24C6.575,2,5,3.575,5,5.5S6.575,9,8.5,9H10c1.105,0,2,0.895,2,2c0,1.105-0.895,2-2,2 l-5.385,0c-1.67,0-3.195,1.122-3.537,2.757C0.608,18.002,2.332,20,4.5,20H12L9,32l-5.385,0c-1.67,0-3.195,1.122-3.537,2.757 C-0.392,37.002,1.332,39,3.5,39H4c1.105,0,2,0.895,2,2c0,1.105-0.895,2-2,2H3.5c-2.168,0-3.892,1.998-3.422,4.243 C0.42,48.878,1.945,50,3.615,50H9c1.105,0,2,0.895,2,2c0,1.105-0.895,2-2,2l-1.385,0c-1.67,0-3.195,1.122-3.537,2.757 C3.608,59.002,5.332,61,7.5,61h23.494H32.5H34h22c1.657,0,3-1.343,3-3s-1.343-3-3-3h-0.5c-1.381,0-2.5-1.119-2.5-2.5 c0-1.381,1.119-2.5,2.5-2.5h3c1.925,0,3.5-1.575,3.5-3.5S60.425,43,58.5,43c-1.375,0-2.5-1.125-2.5-2.5S57.125,38,58.5,38z"/><linearGradient id="6P2SpqyWM7IPfjjSus9kxb" x1="31" x2="31" y1="-13.72" y2="45.768" gradientUnits="userSpaceOnUse" spreadMethod="reflect"><stop offset="0" stop-color="#42d778"/><stop offset=".996" stop-color="#34b171"/></linearGradient><path fill="url(#6P2SpqyWM7IPfjjSus9kxb)" d="M51.62,7.584l-3.942,3.936C43.304,7.989,37.819,6,32,6C18.215,6,7,17.215,7,31 s11.215,25,25,25c8.878,0,17.174-4.684,21.65-12.224c0.705-1.188,0.313-2.722-0.874-3.426c-1.185-0.705-2.72-0.314-3.426,0.873 C45.771,47.254,39.123,51,32,51c-11.028,0-20-8.972-20-20s8.972-20,20-20c4.466,0,8.685,1.468,12.111,4.081l-4.531,4.523 c-1.24,1.25-0.36,3.38,1.4,3.38H53c1.1,0,2-0.9,2-2v-12C55,7.224,52.87,6.334,51.62,7.584z"/></svg>