<svg xmlns="http://www.w3.org/2000/svg" viewBox="0 0 64 64"><radialGradient id="kp9L5HcSuNDXJacrFEhQ9a" cx="30.064" cy="33.638" r="34.81" gradientTransform="matrix(1 0 0 -1 0 66)" gradientUnits="userSpaceOnUse"><stop offset="0" stop-color="#f4e9c3"/><stop offset=".219" stop-color="#f8eecd"/><stop offset=".644" stop-color="#fdf4dc"/><stop offset="1" stop-color="#fff6e1"/></radialGradient><path fill="url(#kp9L5HcSuNDXJacrFEhQ9a)" d="M63.95,34.13c-0.3,1.7-1.91,2.87-3.65,2.87h-2.8c-2.14,0-3.83,3.92-3.45,6.13c0.3,1.7,1.91,2.87,3.65,2.87H59c1.83,0,3.27,1.63,2.95,3.53C61.7,51,60.32,52,58.83,52H57c-1.22,0-2.18,1.08-1.97,2.33c0.17,0.99,1.1,1.67,2.1,1.67H58c2.34,0,4.21,2.02,3.98,4.4c-0.21,2.08-2.08,3.6-4.17,3.6H5.5c-2.17,0-3.89-1.99-3.42-4.23C2.41,58.13,3.93,57,5.6,57h0.9c0.69,0,1.32-0.28,1.77-0.73C8.72,55.82,9,55.19,9,54.5s-0.28-1.32-0.73-1.77C7.82,52.28,7.19,52,6.5,52H5c-2.92,0-5.26-2.51-4.98-5.49C0.27,43.91,2.6,42,5.22,42H6.5c2.17,0,3.89-1.99,3.42-4.23C9.59,36.13,8.07,35,6.4,35H5c-1.83,0-3.29-1.64-2.96-3.54C2.3,30,3.68,29,5.17,29H7c2.34,0,4.21-2.02,3.98-4.4C10.77,22.52,8.9,21,6.81,21H3.5c-2.14,0-3.83-1.92-3.44-4.13C0.35,15.17,1.96,14,3.7,14H7c0.83,0,1.58-0.34,2.12-0.88S10,11.83,10,11c0-1.66-1.34-3-3-3H6C3.66,8,1.79,5.99,2.02,3.61C2.22,1.53,4.08,0,6.17,0H60c1.83,0,3.29,1.64,2.96,3.54C62.7,5,61.32,6,59.83,6h-0.62c-2.61,0-4.94,1.91-5.19,4.5c-0.28,2.98,2.05,5.49,4.97,5.49c0.21,0,0.38,0,0.51,0.01c2.63,0,4.74,2.26,4.48,4.94C63.76,23.28,61.66,25,59.31,25H55.5c-2.14,0-0.88-0.08-0.5,2.13c0.3,1.7-1.04,2.87,0.7,2.87h4.8C62.64,30,64.33,31.92,63.95,34.13z"/><linearGradient id="kp9L5HcSuNDXJacrFEhQ9b" x1="52.75" x2="52.75" y1="3.511" y2="70.599" gradientTransform="matrix(1 0 0 -1 0 66)" gradientUnits="userSpaceOnUse"><stop offset="0" stop-color="#155cde"/><stop offset=".122" stop-color="#196ae1"/><stop offset=".509" stop-color="#2493e9"/><stop offset=".815" stop-color="#2bacee"/><stop offset="1" stop-color="#2eb5f0"/></linearGradient><path fill="url(#kp9L5HcSuNDXJacrFEhQ9b)" d="M55,57h-4.5c-1.104,0-2-0.896-2-2s0.896-2,2-2H53v-2.5c0-1.104,0.896-2,2-2s2,0.896,2,2V55C57,56.104,56.104,57,55,57z"/><linearGradient id="kp9L5HcSuNDXJacrFEhQ9c" x1="32" x2="32" y1="3.511" y2="70.599" gradientTransform="matrix(1 0 0 -1 0 66)" gradientUnits="userSpaceOnUse"><stop offset="0" stop-color="#155cde"/><stop offset=".122" stop-color="#196ae1"/><stop offset=".509" stop-color="#2493e9"/><stop offset=".815" stop-color="#2bacee"/><stop offset="1" stop-color="#2eb5f0"/></linearGradient><path fill="url(#kp9L5HcSuNDXJacrFEhQ9c)" d="M43.1,57h-7.4c-1.104,0-2-0.896-2-2s0.896-2,2-2h7.4c1.104,0,2,0.896,2,2S44.204,57,43.1,57z M28.3,57h-7.4c-1.104,0-2-0.896-2-2s0.896-2,2-2h7.4c1.104,0,2,0.896,2,2S29.404,57,28.3,57z"/><linearGradient id="kp9L5HcSuNDXJacrFEhQ9d" x1="11.25" x2="11.25" y1="3.511" y2="70.599" gradientTransform="matrix(1 0 0 -1 0 66)" gradientUnits="userSpaceOnUse"><stop offset="0" stop-color="#155cde"/><stop offset=".122" stop-color="#196ae1"/><stop offset=".509" stop-color="#2493e9"/><stop offset=".815" stop-color="#2bacee"/><stop offset="1" stop-color="#2eb5f0"/></linearGradient><path fill="url(#kp9L5HcSuNDXJacrFEhQ9d)" d="M13.5,57H9c-1.104,0-2-0.896-2-2v-4.5c0-1.104,0.896-2,2-2s2,0.896,2,2V53h2.5c1.104,0,2,0.896,2,2S14.604,57,13.5,57z"/><linearGradient id="kp9L5HcSuNDXJacrFEhQ9e" x1="9" x2="9" y1="3.511" y2="70.599" gradientTransform="matrix(1 0 0 -1 0 66)" gradientUnits="userSpaceOnUse"><stop offset="0" stop-color="#155cde"/><stop offset=".122" stop-color="#196ae1"/><stop offset=".509" stop-color="#2493e9"/><stop offset=".815" stop-color="#2bacee"/><stop offset="1" stop-color="#2eb5f0"/></linearGradient><path fill="url(#kp9L5HcSuNDXJacrFEhQ9e)" d="M9,45.1c-1.104,0-2-0.896-2-2v-7.4c0-1.104,0.896-2,2-2s2,0.896,2,2v7.4C11,44.204,10.104,45.1,9,45.1z M9,30.3c-1.104,0-2-0.896-2-2v-7.4c0-1.104,0.896-2,2-2s2,0.896,2,2v7.4C11,29.404,10.104,30.3,9,30.3z"/><linearGradient id="kp9L5HcSuNDXJacrFEhQ9f" x1="11.25" x2="11.25" y1="3.511" y2="70.599" gradientTransform="matrix(1 0 0 -1 0 66)" gradientUnits="userSpaceOnUse"><stop offset="0" stop-color="#155cde"/><stop offset=".122" stop-color="#196ae1"/><stop offset=".509" stop-color="#2493e9"/><stop offset=".815" stop-color="#2bacee"/><stop offset="1" stop-color="#2eb5f0"/></linearGradient><path fill="url(#kp9L5HcSuNDXJacrFEhQ9f)" d="M9,15.5c-1.104,0-2-0.896-2-2V9c0-1.104,0.896-2,2-2h4.5c1.104,0,2,0.896,2,2s-0.896,2-2,2H11v2.5C11,14.604,10.104,15.5,9,15.5z"/><linearGradient id="kp9L5HcSuNDXJacrFEhQ9g" x1="32.001" x2="32.001" y1="3.511" y2="70.599" gradientTransform="matrix(1 0 0 -1 0 66)" gradientUnits="userSpaceOnUse"><stop offset="0" stop-color="#155cde"/><stop offset=".122" stop-color="#196ae1"/><stop offset=".509" stop-color="#2493e9"/><stop offset=".815" stop-color="#2bacee"/><stop offset="1" stop-color="#2eb5f0"/></linearGradient><path fill="url(#kp9L5HcSuNDXJacrFEhQ9g)" d="M43.101,11h-7.4c-1.104,0-2-0.896-2-2s0.896-2,2-2h7.4c1.104,0,2,0.896,2,2S44.205,11,43.101,11z M28.301,11h-7.4c-1.104,0-2-0.896-2-2s0.896-2,2-2h7.4c1.104,0,2,0.896,2,2S29.405,11,28.301,11z"/><linearGradient id="kp9L5HcSuNDXJacrFEhQ9h" x1="52.75" x2="52.75" y1="3.511" y2="70.599" gradientTransform="matrix(1 0 0 -1 0 66)" gradientUnits="userSpaceOnUse"><stop offset="0" stop-color="#155cde"/><stop offset=".122" stop-color="#196ae1"/><stop offset=".509" stop-color="#2493e9"/><stop offset=".815" stop-color="#2bacee"/><stop offset="1" stop-color="#2eb5f0"/></linearGradient><path fill="url(#kp9L5HcSuNDXJacrFEhQ9h)" d="M55,15.5c-1.104,0-2-0.896-2-2V11h-2.5c-1.104,0-2-0.896-2-2s0.896-2,2-2H55c1.104,0,2,0.896,2,2v4.5C57,14.604,56.104,15.5,55,15.5z"/><linearGradient id="kp9L5HcSuNDXJacrFEhQ9i" x1="55" x2="55" y1="3.511" y2="70.599" gradientTransform="matrix(1 0 0 -1 0 66)" gradientUnits="userSpaceOnUse"><stop offset="0" stop-color="#155cde"/><stop offset=".122" stop-color="#196ae1"/><stop offset=".509" stop-color="#2493e9"/><stop offset=".815" stop-color="#2bacee"/><stop offset="1" stop-color="#2eb5f0"/></linearGradient><path fill="url(#kp9L5HcSuNDXJacrFEhQ9i)" d="M55,45.101c-1.104,0-2-0.896-2-2v-7.4c0-1.104,0.896-2,2-2s2,0.896,2,2v7.4C57,44.205,56.104,45.101,55,45.101z M55,30.301c-1.104,0-2-0.896-2-2v-7.4c0-1.104,0.896-2,2-2s2,0.896,2,2v7.4C57,29.405,56.104,30.301,55,30.301z"/><linearGradient id="kp9L5HcSuNDXJacrFEhQ9j" x1="32" x2="32" y1="5.894" y2="61.931" gradientTransform="matrix(1 0 0 -1 0 66)" gradientUnits="userSpaceOnUse"><stop offset="0" stop-color="#155cde"/><stop offset=".122" stop-color="#196ae1"/><stop offset=".509" stop-color="#2493e9"/><stop offset=".815" stop-color="#2bacee"/><stop offset="1" stop-color="#2eb5f0"/></linearGradient><path fill="url(#kp9L5HcSuNDXJacrFEhQ9j)" d="M44,22H20c-1.104,0-2-0.896-2-2s0.896-2,2-2h24c1.104,0,2,0.896,2,2S45.104,22,44,22z"/><linearGradient id="kp9L5HcSuNDXJacrFEhQ9k" x1="29" x2="29" y1="5.894" y2="61.931" gradientTransform="matrix(1 0 0 -1 0 66)" gradientUnits="userSpaceOnUse"><stop offset="0" stop-color="#155cde"/><stop offset=".122" stop-color="#196ae1"/><stop offset=".509" stop-color="#2493e9"/><stop offset=".815" stop-color="#2bacee"/><stop offset="1" stop-color="#2eb5f0"/></linearGradient><path fill="url(#kp9L5HcSuNDXJacrFEhQ9k)" d="M38,30H20c-1.104,0-2-0.896-2-2s0.896-2,2-2h18c1.104,0,2,0.896,2,2S39.104,30,38,30z"/><linearGradient id="kp9L5HcSuNDXJacrFEhQ9l" x1="32" x2="32" y1="5.894" y2="61.931" gradientTransform="matrix(1 0 0 -1 0 66)" gradientUnits="userSpaceOnUse"><stop offset="0" stop-color="#155cde"/><stop offset=".122" stop-color="#196ae1"/><stop offset=".509" stop-color="#2493e9"/><stop offset=".815" stop-color="#2bacee"/><stop offset="1" stop-color="#2eb5f0"/></linearGradient><path fill="url(#kp9L5HcSuNDXJacrFEhQ9l)" d="M44,38H20c-1.104,0-2-0.896-2-2s0.896-2,2-2h24c1.104,0,2,0.896,2,2S45.104,38,44,38z"/><linearGradient id="kp9L5HcSuNDXJacrFEhQ9m" x1="29" x2="29" y1="5.894" y2="61.931" gradientTransform="matrix(1 0 0 -1 0 66)" gradientUnits="userSpaceOnUse"><stop offset="0" stop-color="#155cde"/><stop offset=".122" stop-color="#196ae1"/><stop offset=".509" stop-color="#2493e9"/><stop offset=".815" stop-color="#2bacee"/><stop offset="1" stop-color="#2eb5f0"/></linearGradient><path fill="url(#kp9L5HcSuNDXJacrFEhQ9m)" d="M38,46H20c-1.104,0-2-0.896-2-2s0.896-2,2-2h18c1.104,0,2,0.896,2,2S39.104,46,38,46z"/></svg>