<svg xmlns="http://www.w3.org/2000/svg" viewBox="0 0 64 64"><radialGradient id="1RjC1FQhhW~s7Uj7MQvV_a" cx="32.5" cy="31.5" r="31.004" gradientUnits="userSpaceOnUse" spreadMethod="reflect"><stop offset="0" stop-color="#f4e9c3"/><stop offset=".219" stop-color="#f8eecd"/><stop offset=".644" stop-color="#fdf4dc"/><stop offset="1" stop-color="#fff6e1"/></radialGradient><path fill="url(#1RjC1FQhhW~s7Uj7MQvV_a)" d="M6,54l-0.812,0c-2.086,0-3.958,1.514-4.168,3.59C0.78,59.972,2.665,62,5,62l50.812,0 c1.899,0,3.858-1.507,4.142-3.385c0.369-2.434-1.497-4.554-3.85-4.614c-0.809-0.021-1.608-0.396-1.923-1.141 C53.564,51.401,54.618,50,56,50l3.385,0c1.67,0,3.195-1.122,3.537-2.757C63.392,44.998,61.668,43,59.5,43l-9.357,0 c-1.308,0-2.499-0.941-2.63-2.242C47.363,39.261,48.534,38,50,38l7.869,0c1.451,0,2.789-0.972,3.071-2.395 C61.319,33.693,59.848,32,58,32H42v-4h18c2.335,0,4.22-2.028,3.979-4.41c-0.21-2.075-2.082-3.59-4.168-3.59l-1.704,0 c-0.996,0-1.92-0.681-2.08-1.664C55.824,17.083,56.785,16,58,16l0.357,0c1.308,0,2.5-0.941,2.63-2.242 C61.137,12.261,59.966,11,58.5,11h-13C44.119,11,43,9.881,43,8.5v0C43,7.119,44.119,6,45.5,6l2.857,0 c1.308,0,2.499-0.941,2.63-2.242C51.137,2.261,49.966,1,48.5,1L15.643,1c-1.308,0-2.5,0.941-2.63,2.242 C12.863,4.739,14.034,6,15.5,6l3.393,0c0.996,0,1.92,0.681,2.08,1.664C21.176,8.917,20.215,10,19,10L6,10c-2.209,0-4,1.791-4,4v0 c0,2.209,1.791,4,4,4l1.5,0c1.933,0,3.5,1.567,3.5,3.5v0c0,1.933-1.567,3.5-3.5,3.5H5c-2.209,0-4,1.791-4,4v0c0,2.209,1.791,4,4,4 h13c2.209,0,4,1.791,4,4v0c0,2.209-1.791,4-4,4H5.5C3.567,41,2,42.567,2,44.5v0C2,46.433,3.567,48,5.5,48L6,48c1.657,0,3,1.343,3,3 v0C9,52.657,7.657,54,6,54z"/><linearGradient id="1RjC1FQhhW~s7Uj7MQvV_b" x1="32.5" x2="32.5" y1="42.267" y2="53.87" gradientUnits="userSpaceOnUse" spreadMethod="reflect"><stop offset="0" stop-color="#a4a4a4"/><stop offset=".63" stop-color="#7f7f7f"/><stop offset="1" stop-color="#6f6f6f"/><stop offset="1" stop-color="#6f6f6f"/></linearGradient><path fill="url(#1RjC1FQhhW~s7Uj7MQvV_b)" d="M49.5,53H34v-5h-3v5H15.5c-0.828,0-1.5,0.672-1.5,1.5s0.672,1.5,1.5,1.5h34 c0.828,0,1.5-0.672,1.5-1.5S50.328,53,49.5,53z"/><linearGradient id="1RjC1FQhhW~s7Uj7MQvV_c" x1="32.5" x2="32.5" y1="37" y2="51.995" gradientUnits="userSpaceOnUse" spreadMethod="reflect"><stop offset="0" stop-color="#a4a4a4"/><stop offset=".63" stop-color="#7f7f7f"/><stop offset="1" stop-color="#6f6f6f"/></linearGradient><path fill="url(#1RjC1FQhhW~s7Uj7MQvV_c)" d="M49,48H16c-1.105,0-2-0.895-2-2v-7c0-1.105,0.895-2,2-2h33c1.105,0,2,0.895,2,2v7 C51,47.105,50.105,48,49,48z"/><linearGradient id="1RjC1FQhhW~s7Uj7MQvV_d" x1="41" x2="41" y1="40.943" y2="45.439" gradientUnits="userSpaceOnUse" spreadMethod="reflect"><stop offset="0" stop-color="#def9ff"/><stop offset=".282" stop-color="#cff6ff"/><stop offset=".823" stop-color="#a7efff"/><stop offset="1" stop-color="#99ecff"/></linearGradient><path fill="url(#1RjC1FQhhW~s7Uj7MQvV_d)" d="M45.5,44h-9c-0.828,0-1.5-0.672-1.5-1.5l0,0c0-0.828,0.672-1.5,1.5-1.5h9 c0.828,0,1.5,0.672,1.5,1.5l0,0C47,43.328,46.328,44,45.5,44z"/><linearGradient id="1RjC1FQhhW~s7Uj7MQvV_e" x1="29.5" x2="29.5" y1="44" y2="41" gradientUnits="userSpaceOnUse" spreadMethod="reflect"><stop offset="0" stop-color="#ffc050"/><stop offset=".004" stop-color="#ffc050"/><stop offset=".641" stop-color="#ffbe75"/><stop offset="1" stop-color="#ffbd85"/><stop offset="1" stop-color="#ffbd85"/></linearGradient><path fill="url(#1RjC1FQhhW~s7Uj7MQvV_e)" d="M29.5 41A1.5 1.5 0 1 0 29.5 44A1.5 1.5 0 1 0 29.5 41Z"/><linearGradient id="1RjC1FQhhW~s7Uj7MQvV_f" x1="24.5" x2="24.5" y1="44" y2="41" gradientUnits="userSpaceOnUse" spreadMethod="reflect"><stop offset="0" stop-color="#ecf9fd"/><stop offset=".848" stop-color="#f2fdff"/><stop offset="1" stop-color="#f4feff"/></linearGradient><path fill="url(#1RjC1FQhhW~s7Uj7MQvV_f)" d="M24.5 41A1.5 1.5 0 1 0 24.5 44A1.5 1.5 0 1 0 24.5 41Z"/><linearGradient id="1RjC1FQhhW~s7Uj7MQvV_g" x1="19.5" x2="19.5" y1="44" y2="41" gradientUnits="userSpaceOnUse" spreadMethod="reflect"><stop offset="0" stop-color="#ecf9fd"/><stop offset=".848" stop-color="#f2fdff"/><stop offset="1" stop-color="#f4feff"/></linearGradient><path fill="url(#1RjC1FQhhW~s7Uj7MQvV_g)" d="M19.5 41A1.5 1.5 0 1 0 19.5 44A1.5 1.5 0 1 0 19.5 41Z"/><linearGradient id="1RjC1FQhhW~s7Uj7MQvV_h" x1="32.5" x2="32.5" y1="23" y2="37.995" gradientUnits="userSpaceOnUse" spreadMethod="reflect"><stop offset="0" stop-color="#a4a4a4"/><stop offset=".63" stop-color="#7f7f7f"/><stop offset="1" stop-color="#6f6f6f"/></linearGradient><path fill="url(#1RjC1FQhhW~s7Uj7MQvV_h)" d="M49,34H16c-1.105,0-2-0.895-2-2v-7c0-1.105,0.895-2,2-2h33c1.105,0,2,0.895,2,2v7 C51,33.105,50.105,34,49,34z"/><linearGradient id="1RjC1FQhhW~s7Uj7MQvV_i" x1="41" x2="41" y1="26.943" y2="31.439" gradientUnits="userSpaceOnUse" spreadMethod="reflect"><stop offset="0" stop-color="#def9ff"/><stop offset=".282" stop-color="#cff6ff"/><stop offset=".823" stop-color="#a7efff"/><stop offset="1" stop-color="#99ecff"/></linearGradient><path fill="url(#1RjC1FQhhW~s7Uj7MQvV_i)" d="M45.5,30h-9c-0.828,0-1.5-0.672-1.5-1.5v0c0-0.828,0.672-1.5,1.5-1.5h9 c0.828,0,1.5,0.672,1.5,1.5v0C47,29.328,46.328,30,45.5,30z"/><linearGradient id="1RjC1FQhhW~s7Uj7MQvV_j" x1="29.5" x2="29.5" y1="30" y2="27" gradientUnits="userSpaceOnUse" spreadMethod="reflect"><stop offset="0" stop-color="#ffc050"/><stop offset=".004" stop-color="#ffc050"/><stop offset=".641" stop-color="#ffbe75"/><stop offset="1" stop-color="#ffbd85"/><stop offset="1" stop-color="#ffbd85"/></linearGradient><path fill="url(#1RjC1FQhhW~s7Uj7MQvV_j)" d="M29.5 27A1.5 1.5 0 1 0 29.5 30A1.5 1.5 0 1 0 29.5 27Z"/><linearGradient id="1RjC1FQhhW~s7Uj7MQvV_k" x1="24.5" x2="24.5" y1="30" y2="27" gradientUnits="userSpaceOnUse" spreadMethod="reflect"><stop offset="0" stop-color="#ecf9fd"/><stop offset=".848" stop-color="#f2fdff"/><stop offset="1" stop-color="#f4feff"/></linearGradient><path fill="url(#1RjC1FQhhW~s7Uj7MQvV_k)" d="M24.5 27A1.5 1.5 0 1 0 24.5 30A1.5 1.5 0 1 0 24.5 27Z"/><linearGradient id="1RjC1FQhhW~s7Uj7MQvV_l" x1="19.5" x2="19.5" y1="30" y2="27" gradientUnits="userSpaceOnUse" spreadMethod="reflect"><stop offset="0" stop-color="#ecf9fd"/><stop offset=".848" stop-color="#f2fdff"/><stop offset="1" stop-color="#f4feff"/></linearGradient><path fill="url(#1RjC1FQhhW~s7Uj7MQvV_l)" d="M19.5 27A1.5 1.5 0 1 0 19.5 30A1.5 1.5 0 1 0 19.5 27Z"/><linearGradient id="1RjC1FQhhW~s7Uj7MQvV_m" x1="32.5" x2="32.5" y1="9" y2="23.995" gradientUnits="userSpaceOnUse" spreadMethod="reflect"><stop offset="0" stop-color="#a4a4a4"/><stop offset=".63" stop-color="#7f7f7f"/><stop offset="1" stop-color="#6f6f6f"/></linearGradient><path fill="url(#1RjC1FQhhW~s7Uj7MQvV_m)" d="M49,20H16c-1.105,0-2-0.895-2-2v-7c0-1.105,0.895-2,2-2h33c1.105,0,2,0.895,2,2v7 C51,19.105,50.105,20,49,20z"/><linearGradient id="1RjC1FQhhW~s7Uj7MQvV_n" x1="41" x2="41" y1="12.943" y2="17.439" gradientUnits="userSpaceOnUse" spreadMethod="reflect"><stop offset="0" stop-color="#def9ff"/><stop offset=".282" stop-color="#cff6ff"/><stop offset=".823" stop-color="#a7efff"/><stop offset="1" stop-color="#99ecff"/></linearGradient><path fill="url(#1RjC1FQhhW~s7Uj7MQvV_n)" d="M45.5,16h-9c-0.828,0-1.5-0.672-1.5-1.5v0c0-0.828,0.672-1.5,1.5-1.5h9 c0.828,0,1.5,0.672,1.5,1.5v0C47,15.328,46.328,16,45.5,16z"/><linearGradient id="1RjC1FQhhW~s7Uj7MQvV_o" x1="29.5" x2="29.5" y1="16" y2="13" gradientUnits="userSpaceOnUse" spreadMethod="reflect"><stop offset="0" stop-color="#ffc050"/><stop offset=".004" stop-color="#ffc050"/><stop offset=".641" stop-color="#ffbe75"/><stop offset="1" stop-color="#ffbd85"/><stop offset="1" stop-color="#ffbd85"/></linearGradient><path fill="url(#1RjC1FQhhW~s7Uj7MQvV_o)" d="M29.5 13A1.5 1.5 0 1 0 29.5 16A1.5 1.5 0 1 0 29.5 13Z"/><linearGradient id="1RjC1FQhhW~s7Uj7MQvV_p" x1="24.5" x2="24.5" y1="16" y2="13" gradientUnits="userSpaceOnUse" spreadMethod="reflect"><stop offset="0" stop-color="#ecf9fd"/><stop offset=".848" stop-color="#f2fdff"/><stop offset="1" stop-color="#f4feff"/></linearGradient><path fill="url(#1RjC1FQhhW~s7Uj7MQvV_p)" d="M24.5 13A1.5 1.5 0 1 0 24.5 16A1.5 1.5 0 1 0 24.5 13Z"/><linearGradient id="1RjC1FQhhW~s7Uj7MQvV_q" x1="19.5" x2="19.5" y1="16" y2="13" gradientUnits="userSpaceOnUse" spreadMethod="reflect"><stop offset="0" stop-color="#ecf9fd"/><stop offset=".848" stop-color="#f2fdff"/><stop offset="1" stop-color="#f4feff"/></linearGradient><path fill="url(#1RjC1FQhhW~s7Uj7MQvV_q)" d="M19.5 13A1.5 1.5 0 1 0 19.5 16A1.5 1.5 0 1 0 19.5 13Z"/></svg>