<svg xmlns="http://www.w3.org/2000/svg" viewBox="0 0 64 64"><radialGradient id="94XHAoqvbNdoesLs15yk5a" cx="31.995" cy="34" r="31.019" gradientTransform="matrix(1 0 0 -1 0 66)" gradientUnits="userSpaceOnUse"><stop offset="0" stop-color="#c5f1ff"/><stop offset=".35" stop-color="#cdf3ff"/><stop offset=".907" stop-color="#e4faff"/><stop offset="1" stop-color="#e9fbff"/></radialGradient><path fill="url(#94XHAoqvbNdoesLs15yk5a)" d="M63.95,58.61C63.67,60.49,61.71,62,59.81,62H3.32c-1.86,0-3.33-1.52-3.33-3.33c0-0.13,0-0.26,0.02-0.4c0.05-0.87,0.43-1.66,1.02-2.24C1.66,55.39,2.54,55,3.5,55H15c0.55,0,1.05-0.22,1.41-0.59c0.41-0.4,0.64-0.97,0.58-1.59C16.9,51.77,16.05,51,15,51v-4h-2.5C10.57,47,9,45.43,9,43.5s1.57-3.5,3.5-3.5H22v-6H4c-2.33,0-4.22-2.03-3.98-4.41C0.23,27.51,2.1,26,4.19,26h6.31c0.69,0,1.32-0.28,1.77-0.73C12.72,24.82,13,24.19,13,23.5c0-1.38-1.12-2.5-2.5-2.5H4c-2.33,0-4.22-2.03-3.98-4.41C0.23,14.51,2.1,13,4.19,13H13c0.83,0,1.58-0.34,2.12-0.88S16,10.83,16,10c0-1.66-1.34-3-3-3H7.5C6.03,7,4.87,5.75,5.01,4.25C5.13,2.95,6.33,2,7.64,2H45.5c1.47,0,2.63,1.25,2.49,2.75C47.87,6.05,46.67,7,45.36,7H40.5C39.12,7,38,8.12,38,9.5c0,0.69,0.28,1.32,0.73,1.77C39.18,11.72,39.81,12,40.5,12H55c0.83,0,1.58,0.34,2.12,0.88c0.59,0.59,0.94,1.42,0.87,2.34c-0.11,1.6-1.56,2.78-3.16,2.78H53.5c-0.69,0-1.32,0.28-1.77,0.73c-0.42,0.42-0.69,0.99-0.73,1.62C50.92,21.8,52.2,23,53.66,23h6.15c2.09,0,3.96,1.51,4.17,3.59C64.22,28.97,62.33,31,60,31h-1.5c-1.38,0-2.5,1.12-2.5,2.5c0,0.69,0.28,1.32,0.73,1.77s0.64,9.29-0.27,10.19C55.56,46.37,55,47.62,55,49c0,2.76,2.24,5,5,5h0.1C62.46,54.06,64.32,56.18,63.95,58.61z"/><linearGradient id="94XHAoqvbNdoesLs15yk5b" x1="49.625" x2="49.625" y1="32.741" y2="12.375" gradientTransform="matrix(1 0 0 -1 0 66)" gradientUnits="userSpaceOnUse"><stop offset=".122" stop-color="#5e6d7b"/><stop offset=".191" stop-color="#5d6b79"/><stop offset="1" stop-color="#515c69"/></linearGradient><path fill="url(#94XHAoqvbNdoesLs15yk5b)" d="M58.25,33.78v18.44c0,0.98-0.76,1.78-1.7,1.78c-0.36,0-0.71-0.12-1-0.34L50,49.68l-1-0.72l-0.23-0.17c-0.5-0.36-1.09-0.55-1.7-0.55H41V37.76h6.07c0.61,0,1.2-0.19,1.7-0.55L49,37.04l1-0.72l5.55-3.98c0.29-0.22,0.64-0.34,1-0.34C57.49,32,58.25,32.8,58.25,33.78z"/><linearGradient id="94XHAoqvbNdoesLs15yk5c" x1="27" x2="27" y1="28.511" y2="39.13" gradientTransform="matrix(1 0 0 -1 0 66)" gradientUnits="userSpaceOnUse"><stop offset="0" stop-color="#6f7a85"/><stop offset="1" stop-color="#788490"/></linearGradient><rect width="22" height="13" x="16" y="20" fill="url(#94XHAoqvbNdoesLs15yk5c)"/><linearGradient id="94XHAoqvbNdoesLs15yk5d" x1="46" x2="46" y1="11.213" y2="28.103" gradientTransform="matrix(1 0 0 -1 0 66)" gradientUnits="userSpaceOnUse"><stop offset="0" stop-color="#6f7a85"/><stop offset="1" stop-color="#788490"/></linearGradient><path fill="url(#94XHAoqvbNdoesLs15yk5d)" d="M50,36.32v13.36l-1-0.72l-0.23-0.17c-0.5-0.36-1.09-0.55-1.7-0.55H42V37.76h5.07c0.61,0,1.2-0.19,1.7-0.55L49,37.04L50,36.32z"/><linearGradient id="94XHAoqvbNdoesLs15yk5e" x1="27" x2="27" y1="33.957" y2="11.186" gradientTransform="matrix(1 0 0 -1 0 66)" gradientUnits="userSpaceOnUse"><stop offset=".122" stop-color="#5e6d7b"/><stop offset=".191" stop-color="#5d6b79"/><stop offset="1" stop-color="#515c69"/></linearGradient><path fill="url(#94XHAoqvbNdoesLs15yk5e)" d="M46,34v18c0,1.66-1.7,3-3.8,3H11.8C9.7,55,8,53.66,8,52V34c0-1.66,1.7-3,3.8-3h30.4C44.3,31,46,32.34,46,34z"/><linearGradient id="94XHAoqvbNdoesLs15yk5f" x1="38" x2="38" y1="35.697" y2="54.697" gradientTransform="matrix(1 0 0 -1 0 66)" gradientUnits="userSpaceOnUse"><stop offset=".122" stop-color="#5e6d7b"/><stop offset=".191" stop-color="#5d6b79"/><stop offset="1" stop-color="#515c69"/></linearGradient><circle cx="38" cy="19.5" r="9.5" fill="url(#94XHAoqvbNdoesLs15yk5f)"/><linearGradient id="94XHAoqvbNdoesLs15yk5g" x1="38" x2="38" y1="50.843" y2="41.429" gradientTransform="matrix(1 0 0 -1 0 66)" gradientUnits="userSpaceOnUse"><stop offset="0" stop-color="#cdcdcd"/><stop offset=".419" stop-color="#bebebe"/><stop offset="1" stop-color="#aeaeae"/></linearGradient><circle cx="38" cy="19.5" r="4.5" fill="url(#94XHAoqvbNdoesLs15yk5g)"/><linearGradient id="94XHAoqvbNdoesLs15yk5h" x1="16" x2="16" y1="35.697" y2="54.697" gradientTransform="matrix(1 0 0 -1 0 66)" gradientUnits="userSpaceOnUse"><stop offset=".122" stop-color="#5e6d7b"/><stop offset=".191" stop-color="#5d6b79"/><stop offset="1" stop-color="#515c69"/></linearGradient><circle cx="16" cy="19.5" r="9.5" fill="url(#94XHAoqvbNdoesLs15yk5h)"/><linearGradient id="94XHAoqvbNdoesLs15yk5i" x1="16" x2="16" y1="50.843" y2="41.429" gradientTransform="matrix(1 0 0 -1 0 66)" gradientUnits="userSpaceOnUse"><stop offset="0" stop-color="#cdcdcd"/><stop offset=".419" stop-color="#bebebe"/><stop offset="1" stop-color="#aeaeae"/></linearGradient><circle cx="16" cy="19.5" r="4.5" fill="url(#94XHAoqvbNdoesLs15yk5i)"/><linearGradient id="94XHAoqvbNdoesLs15yk5j" x1="16.502" x2="16.502" y1="38.66" y2="6.08" gradientTransform="matrix(1 0 0 -1 0 66)" gradientUnits="userSpaceOnUse"><stop offset="0" stop-color="#677683"/><stop offset=".122" stop-color="#677683"/><stop offset=".191" stop-color="#677481"/><stop offset="1" stop-color="#5b6672"/></linearGradient><path fill="url(#94XHAoqvbNdoesLs15yk5j)" d="M15.88,35H8v17c0,1.66,1.7,3,3.8,3h10.56c1.3,0,2.5-0.939,2.63-2.24c0.009-0.088,0.013-0.175,0.013-0.261C25.002,51.116,23.884,50,22.5,50H17c-0.55,0-1.05-0.22-1.41-0.59C15.22,49.05,15,48.55,15,48l0,0l0,0c0-1.099,0.9-2,2-2h2.07c1.07,0,1.93-0.86,1.93-1.93v-0.14c0-1.07-0.86-1.93-1.93-1.93H13.5c-0.83,0-1.5-0.67-1.5-1.5l0,0l0,0c0-0.83,0.67-1.5,1.5-1.5H16c1.097,0,1.996-0.895,1.998-1.993c0-0.114-0.009-0.229-0.029-0.347C17.81,35.67,16.88,35,15.88,35"/><linearGradient id="94XHAoqvbNdoesLs15yk5k" x1="28" x2="28" y1="38.66" y2="6.08" gradientTransform="matrix(1 0 0 -1 0 66)" gradientUnits="userSpaceOnUse"><stop offset="0" stop-color="#677683"/><stop offset=".122" stop-color="#677683"/><stop offset=".191" stop-color="#677481"/><stop offset="1" stop-color="#5b6672"/></linearGradient><path fill="url(#94XHAoqvbNdoesLs15yk5k)" d="M28,46L28,46c-1.105,0-2-0.895-2-2l0,0c0-1.105,0.895-2,2-2l0,0c1.105,0,2,0.895,2,2l0,0C30,45.105,29.105,46,28,46z"/></svg>